<svg width="28" height="28" viewBox="0 0 28 28" fill="none" xmlns="http://www.w3.org/2000/svg">
<path fill-rule="evenodd" clip-rule="evenodd" d="M14.9049 10.2956C14.8397 10.2306 14.788 10.1533 14.7527 10.0683C14.7174 9.98324 14.6992 9.89207 14.6992 9.79999C14.6992 9.70792 14.7174 9.61675 14.7527 9.53171C14.788 9.44666 14.8397 9.36942 14.9049 9.30439L19.1049 5.10439C19.17 5.03931 19.2472 4.98768 19.3323 4.95246C19.4173 4.91724 19.5084 4.89911 19.6005 4.89911C19.6925 4.89911 19.7837 4.91724 19.8687 4.95246C19.9537 4.98768 20.031 5.03931 20.0961 5.10439C20.1612 5.16948 20.2128 5.24674 20.248 5.33178C20.2832 5.41681 20.3014 5.50795 20.3014 5.59999C20.3014 5.69203 20.2832 5.78317 20.248 5.86821C20.2128 5.95325 20.1612 6.03051 20.0961 6.09559L15.8961 10.2956C15.831 10.3608 15.7538 10.4125 15.6688 10.4478C15.5837 10.4831 15.4925 10.5012 15.4005 10.5012C15.3084 10.5012 15.2172 10.4831 15.1322 10.4478C15.0471 10.4125 14.9699 10.3608 14.9049 10.2956Z" fill="#2B2B2B"/>
<path fill-rule="evenodd" clip-rule="evenodd" d="M24.2959 10.2956C24.2309 10.3608 24.1536 10.4125 24.0686 10.4478C23.9835 10.4831 23.8924 10.5012 23.8003 10.5012C23.7082 10.5012 23.6171 10.4831 23.532 10.4478C23.447 10.4125 23.3697 10.3608 23.3047 10.2956L19.1047 6.09559C18.9733 5.96415 18.8994 5.78588 18.8994 5.59999C18.8994 5.41411 18.9733 5.23583 19.1047 5.10439C19.2361 4.97295 19.4144 4.89911 19.6003 4.89911C19.7862 4.89911 19.9645 4.97295 20.0959 5.10439L24.2959 9.30439C24.3611 9.36942 24.4128 9.44666 24.4481 9.53171C24.4834 9.61675 24.5016 9.70792 24.5016 9.79999C24.5016 9.89207 24.4834 9.98324 24.4481 10.0683C24.4128 10.1533 24.3611 10.2306 24.2959 10.2956Z" fill="#2B2B2B"/>
<path fill-rule="evenodd" clip-rule="evenodd" d="M19.6001 5.60001C19.7858 5.60001 19.9638 5.67376 20.0951 5.80503C20.2264 5.93631 20.3001 6.11435 20.3001 6.30001V19.6C20.3001 19.7857 20.2264 19.9637 20.0951 20.095C19.9638 20.2263 19.7858 20.3 19.6001 20.3C19.4145 20.3 19.2364 20.2263 19.1051 20.095C18.9739 19.9637 18.9001 19.7857 18.9001 19.6V6.30001C18.9001 6.11435 18.9739 5.93631 19.1051 5.80503C19.2364 5.67376 19.4145 5.60001 19.6001 5.60001ZM13.0957 17.7044C13.1609 17.7694 13.2126 17.8467 13.2479 17.9317C13.2832 18.0168 13.3014 18.1079 13.3014 18.2C13.3014 18.2921 13.2832 18.3832 13.2479 18.4683C13.2126 18.5533 13.1609 18.6306 13.0957 18.6956L8.8957 22.8956C8.76426 23.027 8.58599 23.1009 8.4001 23.1009C8.21422 23.1009 8.03594 23.027 7.9045 22.8956C7.77306 22.7642 7.69922 22.5859 7.69922 22.4C7.69922 22.2141 7.77306 22.0358 7.9045 21.9044L12.1045 17.7044C12.1695 17.6392 12.2468 17.5875 12.3318 17.5522C12.4169 17.5169 12.508 17.4988 12.6001 17.4988C12.6922 17.4988 12.7833 17.5169 12.8684 17.5522C12.9534 17.5875 13.0307 17.6392 13.0957 17.7044Z" fill="#2B2B2B"/>
<path fill-rule="evenodd" clip-rule="evenodd" d="M3.70467 17.7044C3.7697 17.6392 3.84694 17.5875 3.93199 17.5522C4.01703 17.5169 4.1082 17.4987 4.20027 17.4987C4.29235 17.4987 4.38352 17.5169 4.46856 17.5522C4.55361 17.5875 4.63085 17.6392 4.69587 17.7044L8.89587 21.9044C8.96096 21.9695 9.01258 22.0467 9.04781 22.1318C9.08303 22.2168 9.10116 22.308 9.10116 22.4C9.10116 22.492 9.08303 22.5832 9.04781 22.6682C9.01258 22.7533 8.96096 22.8305 8.89587 22.8956C8.83079 22.9607 8.75353 23.0123 8.66849 23.0475C8.58346 23.0828 8.49232 23.1009 8.40027 23.1009C8.30823 23.1009 8.21709 23.0828 8.13206 23.0475C8.04702 23.0123 7.96976 22.9607 7.90467 22.8956L3.70467 18.6956C3.63949 18.6306 3.58777 18.5533 3.55248 18.4683C3.51719 18.3832 3.49902 18.2921 3.49902 18.2C3.49902 18.1079 3.51719 18.0168 3.55248 17.9317C3.58777 17.8467 3.63949 17.7694 3.70467 17.7044Z" fill="#2B2B2B"/>
<path fill-rule="evenodd" clip-rule="evenodd" d="M8.4002 22.4C8.21454 22.4 8.0365 22.3262 7.90522 22.195C7.77395 22.0637 7.7002 21.8856 7.7002 21.7V8.39998C7.7002 8.21433 7.77395 8.03628 7.90522 7.90501C8.0365 7.77373 8.21454 7.69998 8.4002 7.69998C8.58585 7.69998 8.76389 7.77373 8.89517 7.90501C9.02645 8.03628 9.1002 8.21433 9.1002 8.39998V21.7C9.1002 21.8856 9.02645 22.0637 8.89517 22.195C8.76389 22.3262 8.58585 22.4 8.4002 22.4Z" fill="#2B2B2B"/>
</svg>
