<svg width="14" height="10" viewBox="0 0 14 10" fill="none" xmlns="http://www.w3.org/2000/svg">
<path d="M2.119 1H11.881C12.0706 0.999941 12.2564 1.0538 12.4166 1.1553C12.5767 1.2568 12.7048 1.40175 12.7857 1.57325C12.8666 1.74474 12.8971 1.93571 12.8736 2.12388C12.8501 2.31205 12.7736 2.48966 12.653 2.636L7.772 8.563C7.67819 8.67694 7.56031 8.76871 7.42684 8.83171C7.29336 8.89471 7.1476 8.92738 7 8.92738C6.85241 8.92738 6.70664 8.89471 6.57317 8.83171C6.43969 8.76871 6.32182 8.67694 6.228 8.563L1.348 2.636C1.2275 2.48979 1.15102 2.31237 1.12746 2.12438C1.10389 1.93639 1.13421 1.74557 1.2149 1.57415C1.29558 1.40273 1.4233 1.25775 1.58318 1.1561C1.74307 1.05446 1.92954 1.00032 2.119 1Z" stroke="#FE0101" stroke-width="2" stroke-linecap="round" stroke-linejoin="round"/>
</svg>
