<svg width="16" height="10" viewBox="0 0 16 10" fill="none" xmlns="http://www.w3.org/2000/svg">
<path fill-rule="evenodd" clip-rule="evenodd" d="M8.82442 0.675154C8.60564 0.456437 8.30894 0.33357 7.99959 0.33357C7.69023 0.33357 7.39354 0.456437 7.17475 0.675154L0.57492 7.27499C0.463491 7.38261 0.374612 7.51134 0.313468 7.65368C0.252324 7.79602 0.22014 7.94911 0.218794 8.10402C0.217448 8.25893 0.246967 8.41255 0.305628 8.55593C0.364289 8.69931 0.450918 8.82957 0.560459 8.93911C0.670001 9.04866 0.800261 9.13528 0.94364 9.19395C1.08702 9.25261 1.24065 9.28212 1.39555 9.28078C1.55046 9.27943 1.70355 9.24725 1.84589 9.1861C1.98823 9.12496 2.11697 9.03608 2.22459 8.92465L7.99959 3.14965L13.7746 8.92465C13.9946 9.13717 14.2893 9.25476 14.5952 9.25211C14.9011 9.24945 15.1937 9.12675 15.41 8.91044C15.6264 8.69413 15.749 8.40152 15.7517 8.09562C15.7544 7.78973 15.6368 7.49502 15.4243 7.27499L8.82442 0.675154Z" fill="#2B2B2B"/>
</svg>
