<svg width="16" height="10" viewBox="0 0 16 10" fill="none" xmlns="http://www.w3.org/2000/svg">
<path fill-rule="evenodd" clip-rule="evenodd" d="M8.82442 9.32485C8.60564 9.54356 8.30894 9.66643 7.99959 9.66643C7.69023 9.66643 7.39354 9.54356 7.17475 9.32485L0.57492 2.72501C0.463491 2.61739 0.374612 2.48866 0.313468 2.34632C0.252324 2.20398 0.22014 2.05089 0.218794 1.89598C0.217448 1.74107 0.246967 1.58745 0.305628 1.44407C0.364289 1.30069 0.450918 1.17043 0.560459 1.06089C0.670001 0.951344 0.800261 0.864716 0.94364 0.806055C1.08702 0.747394 1.24065 0.717875 1.39555 0.719221C1.55046 0.720567 1.70355 0.752751 1.84589 0.813895C1.98823 0.875039 2.11697 0.963918 2.22459 1.07535L7.99959 6.85035L13.7746 1.07535C13.9946 0.862829 14.2893 0.745235 14.5952 0.747894C14.9011 0.750552 15.1937 0.873249 15.41 1.08956C15.6264 1.30587 15.749 1.59848 15.7517 1.90438C15.7544 2.21027 15.6368 2.50498 15.4243 2.72501L8.82442 9.32485Z" fill="#2B2B2B"/>
</svg>
