<svg width="24" height="24" viewBox="0 0 24 24" fill="none" xmlns="http://www.w3.org/2000/svg">
<path d="M21.8815 13.9075C21.8183 13.7372 21.7456 13.5706 21.6638 13.4084L17.8984 4.82515C17.8607 4.74376 17.8084 4.66996 17.7441 4.60739C17.4745 4.33717 17.1541 4.12278 16.8015 3.97651C16.4489 3.83024 16.0708 3.75494 15.6891 3.75494C15.3073 3.75494 14.9293 3.83024 14.5766 3.97651C14.224 4.12278 13.9036 4.33717 13.634 4.60739C13.5675 4.6742 13.5148 4.75347 13.479 4.84066C13.4432 4.92785 13.4249 5.02124 13.4253 5.11549V7.74673H10.5218V5.11549C10.5222 5.02124 10.5039 4.92785 10.4681 4.84066C10.4323 4.75347 10.3796 4.6742 10.3132 4.60739C10.0435 4.33717 9.72314 4.12278 9.3705 3.97651C9.01786 3.83024 8.63984 3.75494 8.25807 3.75494C7.87629 3.75494 7.49827 3.83024 7.14563 3.97651C6.79299 4.12278 6.47266 4.33717 6.20298 4.60739C6.1387 4.66996 6.08643 4.74376 6.04873 4.82515L2.28333 13.4084C2.20152 13.5706 2.12882 13.7372 2.06558 13.9075C1.89696 14.376 1.811 14.8703 1.81153 15.3683C1.81153 16.5233 2.27037 17.6311 3.08712 18.4478C3.90387 19.2646 5.01162 19.7234 6.16668 19.7234C7.32174 19.7234 8.42949 19.2646 9.24624 18.4478C10.063 17.6311 10.5218 16.5233 10.5218 15.3683V9.19845H13.4253V15.3683C13.4253 16.5233 13.8841 17.6311 14.7009 18.4478C15.5176 19.2646 16.6254 19.7234 17.7804 19.7234C18.9355 19.7234 20.0432 19.2646 20.86 18.4478C21.6767 17.6311 22.1356 16.5233 22.1356 15.3683C22.1361 14.8703 22.0502 14.376 21.8815 13.9075ZM7.31898 5.55101C7.56072 5.34704 7.86213 5.22703 8.17791 5.20904C8.49369 5.19104 8.80678 5.27602 9.07012 5.4512V12.1291C8.27544 11.4079 7.23984 11.0098 6.16668 11.0131C5.71093 11.0123 5.25785 11.0827 4.82384 11.2218L7.31898 5.55101ZM6.16668 18.2717C5.70055 18.2735 5.24089 18.1626 4.82679 17.9486C4.4127 17.7345 4.05642 17.4236 3.78828 17.0424C3.52013 16.6611 3.34803 16.2207 3.28664 15.7586C3.22524 15.2965 3.27636 14.8264 3.43564 14.3883L3.59896 14.0254C3.83724 13.5686 4.19277 13.1835 4.62908 12.9095C5.06538 12.6355 5.56673 12.4825 6.08168 12.4663C6.59662 12.45 7.10662 12.5711 7.55932 12.8171C8.01201 13.063 8.39111 13.425 8.65771 13.8659C8.9243 14.3067 9.06878 14.8106 9.07632 15.3258C9.08387 15.8409 8.9542 16.3488 8.70063 16.7973C8.44706 17.2457 8.07872 17.6187 7.63342 17.8778C7.18811 18.1369 6.68188 18.2729 6.16668 18.2717ZM14.877 5.4512C15.1403 5.27602 15.4534 5.19104 15.7692 5.20904C16.085 5.22703 16.3864 5.34704 16.6281 5.55101L19.1233 11.2218C18.6893 11.0827 18.2362 11.0123 17.7804 11.0131C16.7073 11.0098 15.6717 11.4079 14.877 12.1291V5.4512ZM17.7804 18.2717C17.2652 18.2729 16.759 18.1369 16.3137 17.8778C15.8684 17.6187 15.5001 17.2457 15.2465 16.7973C14.9929 16.3488 14.8633 15.8409 14.8708 15.3258C14.8783 14.8106 15.0228 14.3067 15.2894 13.8659C15.556 13.425 15.9351 13.063 16.3878 12.8171C16.8405 12.5711 17.3505 12.45 17.8654 12.4663C18.3804 12.4825 18.8817 12.6355 19.318 12.9095C19.7543 13.1835 20.1099 13.5686 20.3482 14.0254L20.5115 14.3883C20.6708 14.8264 20.7219 15.2965 20.6605 15.7586C20.5991 16.2207 20.427 16.6611 20.1588 17.0424C19.8907 17.4236 19.5344 17.7345 19.1203 17.9486C18.7062 18.1626 18.2466 18.2735 17.7804 18.2717Z" fill="black"/>
</svg>
