<svg width="29" height="29" viewBox="0 0 29 29" fill="none" xmlns="http://www.w3.org/2000/svg">
<path d="M25.4827 7.34687C24.6482 7.70685 23.74 7.96593 22.8046 8.06684C23.7758 7.48987 24.5031 6.57835 24.85 5.50331C23.9387 6.04544 22.9403 6.42559 21.8992 6.6269C21.4641 6.16172 20.9378 5.79114 20.3532 5.53824C19.7686 5.28534 19.1381 5.15556 18.5012 5.15696C15.924 5.15696 13.8514 7.24596 13.8514 9.80949C13.8514 10.1695 13.895 10.5295 13.9659 10.8758C10.107 10.674 6.66533 8.83044 4.37724 6.00784C3.96033 6.71994 3.74185 7.53075 3.74454 8.35592C3.74454 9.97039 4.56542 11.394 5.81718 12.2312C5.0795 12.2021 4.35909 11.9994 3.71454 11.6394V11.6967C3.71454 13.9575 5.31266 15.831 7.44256 16.2619C7.04265 16.3658 6.63126 16.419 6.21807 16.4201C5.91536 16.4201 5.62901 16.3901 5.33993 16.3492C5.92899 18.1928 7.64437 19.5318 9.68701 19.5754C8.0889 20.8272 6.08717 21.5635 3.91363 21.5635C3.52364 21.5635 3.16366 21.5499 2.79004 21.5063C4.85177 22.8289 7.29803 23.5925 9.93246 23.5925C18.4848 23.5925 23.1646 16.5074 23.1646 10.3576C23.1646 10.1558 23.1646 9.95403 23.151 9.75222C24.0564 9.08952 24.85 8.26865 25.4827 7.34687Z" fill="#2B2B2B"/>
</svg>
