<svg width="60" height="73" viewBox="0 0 60 73" fill="none" xmlns="http://www.w3.org/2000/svg">
<g opacity="0.4">
<path d="M0 25.955V39.7752L30 20.5618L60 39.7752V26.2921L30 6.06738L0 25.955Z" fill="#4CFFC0"/>
<path d="M12.809 40.3851V48.3045L30 37.2945L47.191 48.3045V40.5782L30 28.9888L12.809 40.3851Z" fill="#4CFFC0"/>
<path d="M17.5281 56.1331V61.8786L30 53.891L42.4719 61.8786V56.2733L30 47.8652L17.5281 56.1331Z" fill="#4CFFC0"/>
<path d="M21.5731 68.957V72.8391L30 67.4421L38.427 72.8391V69.0517L30 63.3706L21.5731 68.957Z" fill="#4CFFC0"/>
</g>
<path d="M0 19.8876V33.7079L30 14.4944L60 33.7079V20.2247L30 0L0 19.8876Z" fill="#003522"/>
<path d="M12.809 35.6658V43.5853L30 32.5753L47.191 43.5853V35.859L30 24.2695L12.809 35.6658Z" fill="#003522"/>
<path d="M17.5281 52.7166V58.4621L30 50.4745L42.4719 58.4621V52.8568L30 44.4487L17.5281 52.7166Z" fill="#003522"/>
<path d="M21.5731 66.5107V70.3928L30 64.9958L38.427 70.3928V66.6054L30 60.9243L21.5731 66.5107Z" fill="#003522"/>
<g style="mix-blend-mode:plus-lighter">
<path d="M0 19.8876V33.7079L30 14.4944L60 33.7079V20.2247L30 0L0 19.8876Z" fill="#4CCB9E"/>
<path d="M12.809 35.6658V43.5853L30 32.5753L47.191 43.5853V35.859L30 24.2695L12.809 35.6658Z" fill="#4CCB9E"/>
<path d="M17.5281 52.7166V58.4621L30 50.4745L42.4719 58.4621V52.8568L30 44.4487L17.5281 52.7166Z" fill="#4CCB9E"/>
<path d="M21.5731 66.5107V70.3928L30 64.9958L38.427 70.3928V66.6054L30 60.9243L21.5731 66.5107Z" fill="#4CCB9E"/>
</g>
</svg>
