<svg width="22" height="22" viewBox="0 0 22 22" fill="none" xmlns="http://www.w3.org/2000/svg">
<path d="M0.490234 11.5054C0.490234 9.60136 0.966235 7.83736 1.9089 6.22269C2.85157 4.60802 4.13023 3.32936 5.7449 2.38669C7.35957 1.44402 9.11423 0.977356 11.0089 0.977356C12.4276 0.977356 13.7902 1.25736 15.0876 1.80802C16.3849 2.35869 17.4956 3.11469 18.4382 4.04802C19.3809 4.98136 20.1276 6.10136 20.6782 7.40802C21.2289 8.71469 21.5089 10.068 21.5089 11.5054C21.5089 12.924 21.2289 14.2867 20.6782 15.584C20.1276 16.8814 19.3716 18.0014 18.4382 18.9347C17.5049 19.868 16.3849 20.6147 15.0876 21.1654C13.7902 21.716 12.4369 21.996 11.0089 21.996C9.5809 21.996 8.2089 21.716 6.91157 21.1654C5.61423 20.6147 4.49423 19.8587 3.55157 18.9254C2.6089 17.992 1.87157 16.872 1.31157 15.584C0.751568 14.296 0.490234 12.9334 0.490234 11.5054ZM2.8049 11.5054C2.8049 13.7174 3.60757 15.64 5.22224 17.2734C6.8369 18.888 8.75957 19.6907 11.0089 19.6907C12.4836 19.6907 13.8556 19.3267 15.1062 18.5894C16.3569 17.852 17.3649 16.8627 18.1022 15.6027C18.8396 14.3427 19.2129 12.98 19.2129 11.5054C19.2129 10.0307 18.8396 8.65869 18.1022 7.39869C17.3649 6.13869 16.3662 5.14002 15.1062 4.40269C13.8462 3.66536 12.4836 3.30136 11.0089 3.30136C9.53424 3.30136 8.16223 3.66536 6.91157 4.40269C5.6609 5.14002 4.6529 6.13869 3.90623 7.39869C3.15957 8.65869 2.8049 10.0307 2.8049 11.5054ZM10.1969 11.5054V5.28936C10.1969 5.07469 10.2716 4.88802 10.4209 4.73869C10.5702 4.58936 10.7569 4.51469 10.9716 4.51469C11.1862 4.51469 11.3729 4.58936 11.5222 4.73869C11.6716 4.88802 11.7462 5.07469 11.7462 5.28936V11.2814L13.7529 14.8654C13.8649 15.0614 13.8836 15.2667 13.8276 15.472C13.7716 15.6774 13.6502 15.836 13.4636 15.948C13.3453 16.0083 13.2135 16.0373 13.0809 16.032C12.7729 16.032 12.5396 15.9014 12.3996 15.6494L10.3462 12.0094C10.2482 11.8596 10.1963 11.6843 10.1969 11.5054Z" fill="#808080"/>
</svg>
