<svg width="28" height="28" viewBox="0 0 28 28" fill="none" xmlns="http://www.w3.org/2000/svg">
<path d="M3.0625 5.25C2.7144 5.25 2.38056 5.38828 2.13442 5.63442C1.88828 5.88056 1.75 6.2144 1.75 6.5625C1.75 6.9106 1.88828 7.24444 2.13442 7.49058C2.38056 7.73672 2.7144 7.875 3.0625 7.875H24.9375C25.2856 7.875 25.6194 7.73672 25.8656 7.49058C26.1117 7.24444 26.25 6.9106 26.25 6.5625C26.25 6.2144 26.1117 5.88056 25.8656 5.63442C25.6194 5.38828 25.2856 5.25 24.9375 5.25H3.0625ZM3.0625 10.5C2.7144 10.5 2.38056 10.6383 2.13442 10.8844C1.88828 11.1306 1.75 11.4644 1.75 11.8125C1.75 12.1606 1.88828 12.4944 2.13442 12.7406C2.38056 12.9867 2.7144 13.125 3.0625 13.125H24.9375C25.2856 13.125 25.6194 12.9867 25.8656 12.7406C26.1117 12.4944 26.25 12.1606 26.25 11.8125C26.25 11.4644 26.1117 11.1306 25.8656 10.8844C25.6194 10.6383 25.2856 10.5 24.9375 10.5H3.0625ZM1.75 17.0625C1.75 16.7144 1.88828 16.3806 2.13442 16.1344C2.38056 15.8883 2.7144 15.75 3.0625 15.75H24.9375C25.2856 15.75 25.6194 15.8883 25.8656 16.1344C26.1117 16.3806 26.25 16.7144 26.25 17.0625C26.25 17.4106 26.1117 17.7444 25.8656 17.9906C25.6194 18.2367 25.2856 18.375 24.9375 18.375H3.0625C2.7144 18.375 2.38056 18.2367 2.13442 17.9906C1.88828 17.7444 1.75 17.4106 1.75 17.0625ZM3.0625 21C2.7144 21 2.38056 21.1383 2.13442 21.3844C1.88828 21.6306 1.75 21.9644 1.75 22.3125C1.75 22.6606 1.88828 22.9944 2.13442 23.2406C2.38056 23.4867 2.7144 23.625 3.0625 23.625H17.9375C18.2856 23.625 18.6194 23.4867 18.8656 23.2406C19.1117 22.9944 19.25 22.6606 19.25 22.3125C19.25 21.9644 19.1117 21.6306 18.8656 21.3844C18.6194 21.1383 18.2856 21 17.9375 21H3.0625Z" fill="#808080"/>
</svg>
