<svg width="347" height="1030" viewBox="0 0 347 1030" fill="none" xmlns="http://www.w3.org/2000/svg">
<g opacity="0.05">
<mask id="mask0_280_3064" style="mask-type:alpha" maskUnits="userSpaceOnUse" x="-581" y="105" width="839" height="821">
<path d="M257.361 515.099C257.361 741.223 69.8443 924.558 -161.5 924.558C-392.844 924.558 -580.361 741.223 -580.361 515.099C-580.361 288.974 -392.844 105.639 -161.5 105.639C69.8445 105.639 257.361 288.974 257.361 515.099Z" fill="#D9D9D9" stroke="black" stroke-width="1.27726"/>
</mask>
<g mask="url(#mask0_280_3064)">
<path d="M346.696 207.242L-700.982 207.242" stroke="black" stroke-width="2.55452" stroke-miterlimit="10"/>
<path d="M346.696 312.291L-700.982 312.291" stroke="black" stroke-width="2.55452" stroke-miterlimit="10"/>
<path d="M346.696 417.339L-700.982 417.339" stroke="black" stroke-width="2.55452" stroke-miterlimit="10"/>
<path d="M346.696 522.388L-700.982 522.388" stroke="black" stroke-width="2.55452" stroke-miterlimit="10"/>
<path d="M346.696 627.438L-700.982 627.437" stroke="black" stroke-width="2.55452" stroke-miterlimit="10"/>
<path d="M346.696 732.486L-700.982 732.486" stroke="black" stroke-width="2.55452" stroke-miterlimit="10"/>
<path d="M346.693 837.537L-700.985 837.537" stroke="black" stroke-width="2.55452" stroke-miterlimit="10"/>
<path d="M165.162 1033.03L165.162 -93.3057" stroke="black" stroke-width="2.55452" stroke-miterlimit="10"/>
<path d="M67.4504 1033.03L67.4504 -93.3057" stroke="black" stroke-width="2.55452" stroke-miterlimit="10"/>
</g>
</g>
</svg>
