<svg width="28" height="28" viewBox="0 0 28 28" fill="none" xmlns="http://www.w3.org/2000/svg">
<path d="M4.8998 5.6C4.34285 5.6 3.80871 5.82125 3.41488 6.21507C3.02105 6.6089 2.7998 7.14304 2.7998 7.7V10.5C2.7998 11.057 3.02105 11.5911 3.41488 11.9849C3.80871 12.3787 4.34285 12.6 4.8998 12.6H7.6998C8.25676 12.6 8.7909 12.3787 9.18473 11.9849C9.57856 11.5911 9.7998 11.057 9.7998 10.5V7.7C9.7998 7.14304 9.57856 6.6089 9.18473 6.21507C8.7909 5.82125 8.25676 5.6 7.6998 5.6H4.8998ZM4.1998 7.7C4.1998 7.51435 4.27355 7.3363 4.40483 7.20502C4.53611 7.07375 4.71415 7 4.8998 7H7.6998C7.88546 7 8.0635 7.07375 8.19478 7.20502C8.32605 7.3363 8.3998 7.51435 8.3998 7.7V10.5C8.3998 10.6856 8.32605 10.8637 8.19478 10.995C8.0635 11.1262 7.88546 11.2 7.6998 11.2H4.8998C4.71415 11.2 4.53611 11.1262 4.40483 10.995C4.27355 10.8637 4.1998 10.6856 4.1998 10.5V7.7ZM13.2998 7C13.1142 7 12.9361 7.07375 12.8048 7.20502C12.6736 7.3363 12.5998 7.51435 12.5998 7.7C12.5998 7.88565 12.6736 8.0637 12.8048 8.19497C12.9361 8.32625 13.1142 8.4 13.2998 8.4H24.4998C24.6855 8.4 24.8635 8.32625 24.9948 8.19497C25.1261 8.0637 25.1998 7.88565 25.1998 7.7C25.1998 7.51435 25.1261 7.3363 24.9948 7.20502C24.8635 7.07375 24.6855 7 24.4998 7H13.2998ZM13.2998 9.8C13.1142 9.8 12.9361 9.87375 12.8048 10.005C12.6736 10.1363 12.5998 10.3143 12.5998 10.5C12.5998 10.6856 12.6736 10.8637 12.8048 10.995C12.9361 11.1262 13.1142 11.2 13.2998 11.2H21.6998C21.8855 11.2 22.0635 11.1262 22.1948 10.995C22.3261 10.8637 22.3998 10.6856 22.3998 10.5C22.3998 10.3143 22.3261 10.1363 22.1948 10.005C22.0635 9.87375 21.8855 9.8 21.6998 9.8H13.2998ZM4.8998 15.4C4.34285 15.4 3.80871 15.6212 3.41488 16.0151C3.02105 16.4089 2.7998 16.943 2.7998 17.5V20.3C2.7998 20.857 3.02105 21.3911 3.41488 21.7849C3.80871 22.1787 4.34285 22.4 4.8998 22.4H7.6998C8.25676 22.4 8.7909 22.1787 9.18473 21.7849C9.57856 21.3911 9.7998 20.857 9.7998 20.3V17.5C9.7998 16.943 9.57856 16.4089 9.18473 16.0151C8.7909 15.6212 8.25676 15.4 7.6998 15.4H4.8998ZM4.1998 17.5C4.1998 17.3143 4.27355 17.1363 4.40483 17.005C4.53611 16.8737 4.71415 16.8 4.8998 16.8H7.6998C7.88546 16.8 8.0635 16.8737 8.19478 17.005C8.32605 17.1363 8.3998 17.3143 8.3998 17.5V20.3C8.3998 20.4857 8.32605 20.6637 8.19478 20.795C8.0635 20.9262 7.88546 21 7.6998 21H4.8998C4.71415 21 4.53611 20.9262 4.40483 20.795C4.27355 20.6637 4.1998 20.4857 4.1998 20.3V17.5ZM13.2998 16.8C13.1142 16.8 12.9361 16.8737 12.8048 17.005C12.6736 17.1363 12.5998 17.3143 12.5998 17.5C12.5998 17.6856 12.6736 17.8637 12.8048 17.995C12.9361 18.1262 13.1142 18.2 13.2998 18.2H24.4998C24.6855 18.2 24.8635 18.1262 24.9948 17.995C25.1261 17.8637 25.1998 17.6856 25.1998 17.5C25.1998 17.3143 25.1261 17.1363 24.9948 17.005C24.8635 16.8737 24.6855 16.8 24.4998 16.8H13.2998ZM13.2998 19.6C13.1142 19.6 12.9361 19.6737 12.8048 19.805C12.6736 19.9363 12.5998 20.1143 12.5998 20.3C12.5998 20.4857 12.6736 20.6637 12.8048 20.795C12.9361 20.9262 13.1142 21 13.2998 21H21.6998C21.8855 21 22.0635 20.9262 22.1948 20.795C22.3261 20.6637 22.3998 20.4857 22.3998 20.3C22.3998 20.1143 22.3261 19.9363 22.1948 19.805C22.0635 19.6737 21.8855 19.6 21.6998 19.6H13.2998Z" fill="#808080"/>
</svg>
