<svg width="26" height="26" viewBox="0 0 26 26" fill="none" xmlns="http://www.w3.org/2000/svg">
<g clip-path="url(#clip0_291_4650)">
<path d="M21.8143 5.35261C20.2115 4.62978 18.4935 4.09552 16.6969 3.79173C16.6809 3.78865 16.6643 3.79063 16.6495 3.79739C16.6347 3.80415 16.6223 3.81535 16.6141 3.82944C16.3942 4.21599 16.149 4.71987 15.9772 5.11795C14.0718 4.83326 12.1346 4.83326 10.2292 5.11795C10.0378 4.67678 9.82205 4.24661 9.58284 3.82944C9.57473 3.81517 9.56247 3.80372 9.54768 3.79661C9.5329 3.78949 9.51629 3.78706 9.50009 3.78963C7.70455 4.09343 5.98653 4.62769 4.3827 5.35156C4.3689 5.35735 4.3572 5.36722 4.34918 5.37984C1.08913 10.1725 0.195554 14.8467 0.634487 19.4623C0.635708 19.4737 0.639217 19.4846 0.6448 19.4945C0.650383 19.5044 0.657923 19.5131 0.666961 19.52C2.56976 20.9053 4.69208 21.9606 6.94506 22.6417C6.96076 22.6466 6.97756 22.6466 6.99326 22.6417C7.00896 22.6368 7.02283 22.6274 7.03305 22.6145C7.51787 21.9661 7.94748 21.2783 8.31738 20.5581C8.32251 20.5483 8.32547 20.5374 8.32605 20.5263C8.32664 20.5153 8.32483 20.5042 8.32076 20.4938C8.31669 20.4835 8.31044 20.4742 8.30245 20.4665C8.29445 20.4588 8.2849 20.4529 8.27443 20.4492C7.5977 20.1943 6.942 19.8868 6.31337 19.5294C6.30208 19.5229 6.29256 19.5138 6.28567 19.5028C6.27878 19.4917 6.27474 19.4792 6.27391 19.4662C6.27308 19.4532 6.27549 19.4402 6.28091 19.4284C6.28634 19.4166 6.29461 19.4063 6.30499 19.3984C6.43699 19.301 6.56898 19.1994 6.69469 19.0978C6.706 19.0887 6.71963 19.0828 6.73406 19.081C6.74849 19.0791 6.76314 19.0813 6.7764 19.0873C10.8902 20.9352 15.3455 20.9352 19.4112 19.0873C19.4245 19.081 19.4393 19.0785 19.4539 19.0802C19.4685 19.0818 19.4824 19.0876 19.4939 19.0967C19.6196 19.1994 19.7506 19.301 19.8836 19.3984C19.8941 19.4061 19.9025 19.4163 19.9081 19.428C19.9137 19.4397 19.9163 19.4526 19.9157 19.4656C19.9151 19.4786 19.9112 19.4912 19.9045 19.5023C19.8978 19.5135 19.8885 19.5228 19.8773 19.5294C19.2509 19.8898 18.5993 20.1946 17.9152 20.4481C17.9047 20.4519 17.8952 20.4579 17.8872 20.4657C17.8792 20.4736 17.8729 20.483 17.8689 20.4934C17.8648 20.5038 17.863 20.515 17.8636 20.5261C17.8642 20.5373 17.8671 20.5482 17.8723 20.5581C18.2494 21.2778 18.681 21.9629 19.1556 22.6134C19.1654 22.6268 19.1792 22.6368 19.1949 22.642C19.2107 22.6473 19.2276 22.6475 19.2436 22.6428C21.5004 21.9636 23.6262 20.9078 25.5311 19.52C25.5404 19.5135 25.5482 19.5051 25.5539 19.4953C25.5597 19.4855 25.5634 19.4747 25.5646 19.4634C26.0884 14.1271 24.6867 9.49052 21.8468 5.38194C21.8398 5.36859 21.8283 5.35818 21.8143 5.35261ZM8.9323 16.6517C7.69407 16.6517 6.67269 15.5319 6.67269 14.1585C6.67269 12.7841 7.67417 11.6653 8.9323 11.6653C10.1999 11.6653 11.2118 12.7935 11.1919 14.1585C11.1919 15.5329 10.1904 16.6517 8.9323 16.6517ZM17.2867 16.6517C16.0474 16.6517 15.0271 15.5319 15.0271 14.1585C15.0271 12.7841 16.0275 11.6653 17.2867 11.6653C18.5542 11.6653 19.5662 12.7935 19.5463 14.1585C19.5463 15.5329 18.5553 16.6517 17.2867 16.6517Z" fill="#2B2B2B"/>
</g>
<defs>
<clipPath id="clip0_291_4650">
<rect width="25.1417" height="25.1417" fill="white" transform="translate(0.529785 0.647064)"/>
</clipPath>
</defs>
</svg>
