<svg width="20" height="20" viewBox="0 0 20 20" fill="none" xmlns="http://www.w3.org/2000/svg">
<path d="M0 20V18.75H2.5V2.02C2.5 1.44417 2.69292 0.96375 3.07875 0.57875C3.46458 0.19375 3.945 0.000833333 4.52 0H15.4813C16.0562 0 16.5367 0.192916 16.9225 0.57875C17.3083 0.964583 17.5008 1.445 17.5 2.02V18.75H20V20H0ZM3.75 18.75H16.25V2.02C16.25 1.8275 16.17 1.65083 16.01 1.49C15.85 1.32917 15.6733 1.24917 15.48 1.25H4.52C4.3275 1.25 4.15083 1.33 3.99 1.49C3.82917 1.65 3.74917 1.82667 3.75 2.02V18.75ZM7.2125 10.9625C7.47 10.9625 7.69458 10.8667 7.88625 10.675C8.07792 10.4833 8.17375 10.2583 8.17375 10C8.17375 9.74167 8.07792 9.51667 7.88625 9.325C7.69458 9.13333 7.46958 9.0375 7.21125 9.0375C6.95292 9.0375 6.72792 9.13333 6.53625 9.325C6.34458 9.51667 6.24917 9.74167 6.25 10C6.25083 10.2583 6.34667 10.4833 6.5375 10.675C6.72833 10.8667 6.95333 10.9625 7.2125 10.9625Z" fill="black"/>
</svg>
