<svg width="16" height="16" viewBox="0 0 16 16" fill="none" xmlns="http://www.w3.org/2000/svg">
<path d="M14 2H6C5.71667 2 5.47934 1.904 5.288 1.712C5.09667 1.52 5.00067 1.28267 5 1C4.99934 0.717333 5.09534 0.48 5.288 0.288C5.48067 0.0960001 5.718 0 6 0H15C15.2833 0 15.521 0.0960001 15.713 0.288C15.905 0.48 16.0007 0.717333 16 1V10C16 10.2833 15.904 10.521 15.712 10.713C15.52 10.905 15.2827 11.0007 15 11C14.7173 10.9993 14.48 10.9033 14.288 10.712C14.096 10.5207 14 10.2833 14 10V2ZM9 7H1C0.71667 7 0.479337 6.904 0.288004 6.712C0.0966702 6.52 0.000670115 6.28267 3.44827e-06 6C-0.000663218 5.71733 0.0953369 5.48 0.288004 5.288C0.48067 5.096 0.718003 5 1 5H10C10.2833 5 10.521 5.096 10.713 5.288C10.905 5.48 11.0007 5.71733 11 6V15C11 15.2833 10.904 15.521 10.712 15.713C10.52 15.905 10.2827 16.0007 10 16C9.71734 15.9993 9.48 15.9033 9.288 15.712C9.096 15.5207 9 15.2833 9 15V7Z" fill="white"/>
</svg>
