<svg width="40" height="38" viewBox="0 0 40 38" fill="none" xmlns="http://www.w3.org/2000/svg">
<path d="M4.1265 4.33333L16.9786 19.1852C17.5412 19.8357 17.8475 20.6439 17.847 21.4768V33.6667L21.8125 30.9167V21.475C21.8126 20.6427 22.1188 19.8352 22.681 19.1852L35.5331 4.33333H4.1265ZM4.1265 0.666664H35.5331C36.2801 0.66675 37.012 0.861957 37.6443 1.2298C38.2766 1.59764 38.7837 2.12316 39.1071 2.74582C39.4306 3.36849 39.5572 4.06296 39.4725 4.74926C39.3877 5.43556 39.095 6.08577 38.6281 6.625L25.778 21.475V30.9167C25.778 31.4859 25.6347 32.0473 25.3594 32.5564C25.084 33.0656 24.6843 33.5085 24.1918 33.85L20.2263 36.6C19.6372 37.0086 18.9366 37.2574 18.2032 37.3185C17.4697 37.3797 16.7323 37.2508 16.0736 36.9462C15.4149 36.6417 14.861 36.1736 14.4738 35.5943C14.0866 35.0151 13.8816 34.3476 13.8816 33.6667V21.475L1.03144 6.625C0.564536 6.08577 0.271855 5.43556 0.187112 4.74926C0.10237 4.06296 0.229013 3.36849 0.552454 2.74582C0.875895 2.12316 1.38298 1.59764 2.0153 1.2298C2.64761 0.861957 3.37945 0.66675 4.1265 0.666664Z" fill="#2B2B2B"/>
</svg>
