<svg width="20" height="12" viewBox="0 0 20 12" fill="none" xmlns="http://www.w3.org/2000/svg">
<path fill-rule="evenodd" clip-rule="evenodd" d="M11.4504 11.4133C11.0754 11.7879 10.567 11.9982 10.037 11.9982C9.50704 11.9982 8.9987 11.7879 8.6237 11.4133L1.0797 3.872C0.704688 3.49681 0.494077 2.98801 0.494202 2.45753C0.494327 1.92705 0.705178 1.41835 1.08037 1.04333C1.45556 0.668318 1.96436 0.457705 2.49484 0.45783C3.02532 0.457956 3.53402 0.668807 3.90904 1.044L10.037 7.172L16.165 1.044C16.5421 0.679502 17.0472 0.477672 17.5716 0.48198C18.096 0.486288 18.5977 0.696389 18.9687 1.06703C19.3397 1.43767 19.5503 1.9392 19.5551 2.4636C19.5599 2.98799 19.3585 3.49329 18.9944 3.87067L11.4517 11.4147L11.4504 11.4133Z" fill="#2B2B2B"/>
</svg>
