<svg width="20" height="12" viewBox="0 0 20 12" fill="none" xmlns="http://www.w3.org/2000/svg">
<path fill-rule="evenodd" clip-rule="evenodd" d="M11.4133 0.586612C11.0383 0.212077 10.53 0.00170422 9.99999 0.00170422C9.46999 0.00170422 8.96166 0.212077 8.58666 0.586612L1.04266 8.12794C0.66764 8.50314 0.457028 9.01194 0.457153 9.54242C0.457278 10.0729 0.668129 10.5816 1.04332 10.9566C1.41852 11.3316 1.92732 11.5422 2.45779 11.5421C2.98827 11.542 3.49697 11.3311 3.87199 10.9559L9.99999 4.82795L16.128 10.9559C16.505 11.3204 17.0101 11.5223 17.5345 11.518C18.0589 11.5137 18.5607 11.3036 18.9316 10.9329C19.3026 10.5623 19.5132 10.0607 19.518 9.53635C19.5228 9.01195 19.3215 8.50665 18.9573 8.12928L11.4147 0.585277L11.4133 0.586612Z" fill="#2B2B2B"/>
</svg>
