<svg width="26" height="25" viewBox="0 0 26 25" fill="none" xmlns="http://www.w3.org/2000/svg">
<path fill-rule="evenodd" clip-rule="evenodd" d="M2.39893 12.2181C2.39893 15.0342 3.51761 17.7349 5.50889 19.7262C7.50017 21.7175 10.2009 22.8362 13.017 22.8362C15.8331 22.8362 18.5339 21.7175 20.5252 19.7262C22.5164 17.7349 23.6351 15.0342 23.6351 12.2181C23.6351 9.40198 22.5164 6.70122 20.5252 4.70994C18.5339 2.71866 15.8331 1.59998 13.017 1.59998C10.2009 1.59998 7.50017 2.71866 5.50889 4.70994C3.51761 6.70122 2.39893 9.40198 2.39893 12.2181ZM21.8149 12.2181C21.8149 14.5514 20.888 16.7892 19.238 18.4391C17.5881 20.089 15.3504 21.0159 13.017 21.0159C10.6837 21.0159 8.44592 20.089 6.796 18.4391C5.14608 16.7892 4.21917 14.5514 4.21917 12.2181C4.21917 9.88474 5.14608 7.64697 6.796 5.99705C8.44592 4.34713 10.6837 3.42022 13.017 3.42022C15.3504 3.42022 17.5881 4.34713 19.238 5.99705C20.888 7.64697 21.8149 9.88474 21.8149 12.2181Z" fill="#2B2B2B"/>
<path fill-rule="evenodd" clip-rule="evenodd" d="M8.46582 12.218C8.46582 17.7054 10.2751 22.2293 13.0164 22.2293C15.7577 22.2293 17.567 17.7054 17.567 12.218C17.567 6.73052 15.7577 2.2066 13.0164 2.2066C10.2751 2.2066 8.46582 6.73052 8.46582 12.218ZM15.7468 12.218C15.7468 16.7831 14.2967 20.4091 13.0164 20.4091C11.7362 20.4091 10.2861 16.7831 10.2861 12.218C10.2861 7.65278 11.7362 4.02685 13.0164 4.02685C14.2967 4.02685 15.7468 7.65278 15.7468 12.218Z" fill="#2B2B2B"/>
<path d="M5.25179 6.71724L6.47257 5.36783C6.59392 5.47704 6.72619 5.58626 6.86695 5.69183C8.40931 6.84708 10.8715 7.56062 13.5594 7.56062C15.8541 7.56062 17.9911 7.04245 19.5431 6.15539C19.9169 5.94181 20.2494 5.71003 20.537 5.46369L21.7189 6.84829C21.3241 7.18323 20.8982 7.47985 20.4472 7.73415C18.6075 8.78746 16.1587 9.37965 13.5594 9.37965C10.499 9.37965 7.65573 8.5569 5.77481 7.14803C5.59395 7.01254 5.41942 6.86879 5.25179 6.71724ZM5.25179 17.7382L6.47257 19.0876C6.59392 18.9772 6.72619 18.8692 6.86695 18.7636C8.40931 17.6084 10.8715 16.8948 13.5594 16.8948C15.8541 16.8948 17.9911 17.413 19.5431 18.3001C19.9169 18.5136 20.2494 18.7454 20.537 18.9918L21.7189 17.6072C21.3236 17.2729 20.8978 16.9763 20.4472 16.7213C18.6075 15.668 16.1587 15.0758 13.5594 15.0758C10.499 15.0758 7.65573 15.8986 5.77481 17.3074C5.59394 17.4429 5.41942 17.5867 5.25179 17.7382ZM3.00439 13.1281V11.3079H23.0271V13.1281H3.00439Z" fill="#2B2B2B"/>
</svg>
