<svg width="28" height="28" viewBox="0 0 28 28" fill="none" xmlns="http://www.w3.org/2000/svg">
<path d="M23.8029 2.625H17.0818C16.8729 2.62485 16.6723 2.70742 16.524 2.85469L3.08731 16.2914C2.7931 16.5871 2.62793 16.9872 2.62793 17.4043C2.62793 17.8214 2.7931 18.2215 3.08731 18.5172L9.48575 24.9156C9.7814 25.2098 10.1815 25.375 10.5986 25.375C11.0157 25.375 11.4159 25.2098 11.7115 24.9156L25.1428 11.4844C25.29 11.3361 25.3726 11.1355 25.3725 10.9266V4.2C25.3735 3.99335 25.3336 3.78853 25.2552 3.59735C25.1767 3.40616 25.0612 3.23237 24.9153 3.08599C24.7695 2.93961 24.5961 2.82352 24.4052 2.7444C24.2143 2.66529 24.0096 2.62471 23.8029 2.625Z" stroke="#808080" stroke-width="1.5" stroke-linecap="round" stroke-linejoin="round"/>
<path d="M21 8.75C20.6539 8.75 20.3155 8.64737 20.0278 8.45507C19.74 8.26278 19.5157 7.98947 19.3832 7.6697C19.2508 7.34993 19.2161 6.99806 19.2836 6.65859C19.3512 6.31913 19.5178 6.00731 19.7626 5.76256C20.0073 5.51782 20.3191 5.35115 20.6586 5.28363C20.9981 5.2161 21.3499 5.25076 21.6697 5.38321C21.9895 5.51566 22.2628 5.73997 22.4551 6.02775C22.6474 6.31554 22.75 6.65388 22.75 7C22.75 7.46413 22.5656 7.90925 22.2374 8.23744C21.9092 8.56563 21.4641 8.75 21 8.75Z" fill="#808080"/>
</svg>
