<svg width="686" height="631" viewBox="0 0 686 631" fill="none" xmlns="http://www.w3.org/2000/svg">
<g opacity="0.5">
<path d="M121.529 85.6536C123.562 87.1768 125.981 83.9479 123.948 82.4247C123.52 82.1039 122.982 81.9664 122.452 82.0423C121.923 82.1182 121.445 82.4014 121.124 82.8296C120.803 83.2577 120.666 83.7958 120.742 84.3254C120.817 84.855 121.101 85.3328 121.529 85.6536Z" fill="#FF8383"/>
<path d="M160.376 107.945C162.424 109.572 164.843 106.343 162.81 104.82C160.777 103.297 158.343 106.421 160.376 107.945Z" fill="#FF8383"/>
<path d="M206.263 132.427C208.311 134.055 210.73 130.826 208.697 129.303C206.664 127.779 204.23 130.904 206.263 132.427Z" fill="#FF8383"/>
<path d="M186.423 142.957C188.456 144.48 190.875 141.251 188.842 139.728C188.414 139.407 187.876 139.27 187.347 139.346C186.817 139.422 186.339 139.705 186.018 140.133C185.698 140.561 185.56 141.099 185.636 141.629C185.712 142.158 185.995 142.636 186.423 142.957Z" fill="#FF8383"/>
<path d="M233.757 128.38C234.185 128.701 234.723 128.839 235.253 128.763C235.782 128.687 236.26 128.404 236.581 127.975C236.902 127.547 237.039 127.009 236.963 126.48C236.887 125.95 236.604 125.472 236.176 125.151C234.143 123.628 231.724 126.857 233.757 128.38Z" fill="#FF8383"/>
<path d="M264.779 131.831C266.812 133.354 269.231 130.125 267.198 128.602C266.77 128.281 266.232 128.144 265.702 128.219C265.172 128.295 264.695 128.579 264.374 129.007C264.053 129.435 263.916 129.973 263.991 130.503C264.067 131.032 264.351 131.51 264.779 131.831Z" fill="#FF8383"/>
<path d="M295.731 144.474C296.16 144.795 296.698 144.933 297.227 144.857C297.757 144.781 298.235 144.498 298.555 144.069C298.876 143.641 299.014 143.103 298.938 142.574C298.862 142.044 298.579 141.566 298.151 141.246C296.118 139.722 293.698 142.951 295.731 144.474Z" fill="#FF8383"/>
<path d="M326.851 162.001C328.899 163.629 331.318 160.4 329.285 158.877C327.252 157.354 324.818 160.478 326.851 162.001Z" fill="#FF8383"/>
<path d="M350.14 180.757C352.173 182.28 354.488 179.067 352.455 177.543C352.029 177.333 351.542 177.28 351.081 177.395C350.62 177.51 350.214 177.784 349.936 178.17C349.659 178.556 349.527 179.027 349.564 179.501C349.601 179.975 349.806 180.42 350.14 180.757Z" fill="#FF8383"/>
<path d="M365.749 195.813C366.177 196.134 366.715 196.272 367.245 196.196C367.774 196.12 368.252 195.837 368.573 195.408C368.894 194.98 369.031 194.442 368.955 193.912C368.879 193.383 368.596 192.905 368.168 192.584C366.135 191.061 363.716 194.29 365.749 195.813Z" fill="#FF8383"/>
<path d="M389.65 208.397C391.683 209.92 394.102 206.691 392.069 205.168C391.641 204.847 391.103 204.709 390.573 204.785C390.044 204.861 389.566 205.145 389.245 205.573C388.924 206.001 388.787 206.539 388.863 207.068C388.938 207.598 389.222 208.076 389.65 208.397Z" fill="#FF8383"/>
<path d="M424.128 217.331C426.265 218.839 428.595 215.73 426.562 214.206C424.529 212.683 422.095 215.807 424.128 217.331Z" fill="#FF8383"/>
<path d="M460.009 229.371C462.042 230.894 464.461 227.665 462.428 226.142C462 225.821 461.462 225.684 460.933 225.76C460.403 225.836 459.925 226.119 459.604 226.547C459.284 226.975 459.146 227.513 459.222 228.043C459.298 228.572 459.581 229.05 460.009 229.371Z" fill="#FF8383"/>
<path d="M493.294 242.639C493.722 242.96 494.26 243.097 494.79 243.021C495.319 242.946 495.797 242.662 496.118 242.234C496.439 241.806 496.576 241.268 496.5 240.738C496.424 240.209 496.141 239.731 495.713 239.41C493.68 237.887 491.261 241.116 493.294 242.639Z" fill="#FF8383"/>
<path d="M521.663 258.105C523.696 259.628 526.13 256.504 524.098 254.981C522.065 253.458 519.63 256.582 521.663 258.105Z" fill="#FF8383"/>
<path d="M534.611 271.729C536.644 273.252 539.078 270.128 537.045 268.604C535.012 267.081 532.578 270.206 534.611 271.729Z" fill="#FF8383"/>
<path d="M538.445 290.283C540.493 291.911 542.912 288.682 540.879 287.159C538.846 285.636 536.412 288.76 538.445 290.283Z" fill="#FF8383"/>
<path d="M532.565 308.099C532.994 308.42 533.532 308.557 534.061 308.481C534.591 308.405 535.069 308.122 535.389 307.694C535.71 307.266 535.848 306.728 535.772 306.198C535.696 305.668 535.413 305.191 534.984 304.87C532.952 303.347 530.532 306.576 532.565 308.099Z" fill="#FF8383"/>
<path d="M517.675 323.363C519.723 324.991 522.142 321.762 520.109 320.239C518.076 318.715 515.642 321.84 517.675 323.363Z" fill="#FF8383"/>
<path d="M496.519 328.424C498.567 330.052 500.986 326.823 498.953 325.3C496.92 323.776 494.486 326.901 496.519 328.424Z" fill="#FF8383"/>
<path d="M468.724 323.658C470.757 325.181 473.191 322.056 471.158 320.533C469.125 319.01 466.691 322.134 468.724 323.658Z" fill="#FF8383"/>
<path d="M433.378 313.14C435.411 314.664 437.845 311.539 435.812 310.016C433.779 308.493 431.345 311.617 433.378 313.14Z" fill="#FF8383"/>
<path d="M392.441 295.631C394.489 297.259 396.908 294.03 394.875 292.507C392.842 290.984 390.408 294.108 392.441 295.631Z" fill="#FF8383"/>
<path d="M366.913 282.852C369.05 284.36 371.38 281.251 369.347 279.728C367.314 278.205 364.88 281.329 366.913 282.852Z" fill="#FF8383"/>
<path d="M343.867 273.989C345.915 275.617 348.334 272.388 346.301 270.865C344.268 269.341 341.834 272.466 343.867 273.989Z" fill="#FF8383"/>
<path d="M318.716 269.801C319.144 270.122 319.682 270.26 320.212 270.184C320.741 270.108 321.219 269.825 321.54 269.396C321.86 268.968 321.998 268.43 321.922 267.9C321.846 267.371 321.563 266.893 321.135 266.572C319.102 265.049 316.683 268.278 318.716 269.801Z" fill="#FF8383"/>
<path d="M365.695 299.678C367.728 301.201 370.162 298.077 368.129 296.554C367.712 296.327 367.227 296.256 366.762 296.354C366.297 296.451 365.881 296.71 365.589 297.085C365.297 297.46 365.147 297.926 365.167 298.401C365.186 298.876 365.373 299.328 365.695 299.678Z" fill="#FF8383"/>
<path d="M367.855 314.739C369.903 316.367 372.322 313.138 370.289 311.615C368.256 310.092 365.822 313.216 367.855 314.739Z" fill="#FF8383"/>
<path d="M388.509 318.077C388.713 318.23 388.945 318.341 389.193 318.404C389.44 318.467 389.697 318.481 389.949 318.445C390.202 318.409 390.445 318.323 390.664 318.193C390.884 318.063 391.075 317.891 391.228 317.687C391.381 317.483 391.492 317.25 391.556 317.003C391.619 316.756 391.633 316.499 391.597 316.246C391.56 315.994 391.475 315.751 391.345 315.531C391.215 315.312 391.043 315.12 390.838 314.967C388.791 313.34 386.476 316.553 388.509 318.077Z" fill="#FF8383"/>
<path d="M413.187 333.114C413.613 333.325 414.1 333.377 414.561 333.263C415.022 333.148 415.428 332.873 415.705 332.488C415.983 332.102 416.115 331.63 416.078 331.157C416.04 330.683 415.836 330.238 415.501 329.9C413.468 328.377 411.154 331.591 413.187 333.114Z" fill="#FF8383"/>
<path d="M433.015 332.94C433.443 333.26 433.981 333.398 434.51 333.322C435.04 333.246 435.518 332.963 435.839 332.535C436.159 332.107 436.297 331.569 436.221 331.039C436.145 330.509 435.862 330.032 435.434 329.711C433.401 328.188 430.982 331.416 433.015 332.94Z" fill="#FF8383"/>
<path d="M456.716 338.934C458.749 340.457 461.169 337.228 459.031 335.72C456.893 334.212 454.668 337.306 456.716 338.934Z" fill="#FF8383"/>
<path d="M481.058 338.966C483.091 340.49 485.51 337.261 483.477 335.738C483.049 335.417 482.511 335.279 481.981 335.355C481.452 335.431 480.974 335.714 480.653 336.143C480.332 336.571 480.195 337.109 480.271 337.638C480.347 338.168 480.63 338.646 481.058 338.966Z" fill="#FF8383"/>
<path d="M503.861 339.434C505.909 341.062 508.328 337.833 506.295 336.31C504.262 334.787 501.828 337.911 503.861 339.434Z" fill="#FF8383"/>
<path d="M529.935 335.911C531.968 337.434 534.387 334.205 532.354 332.682C531.926 332.361 531.388 332.223 530.858 332.299C530.329 332.375 529.851 332.658 529.53 333.087C529.209 333.515 529.072 334.053 529.148 334.582C529.224 335.112 529.507 335.59 529.935 335.911Z" fill="#FF8383"/>
<path d="M554.98 336.375C557.028 338.002 559.447 334.774 557.414 333.25C555.381 331.727 552.947 334.852 554.98 336.375Z" fill="#FF8383"/>
<path d="M570.538 344.391C572.586 346.019 575.005 342.79 572.973 341.267C570.94 339.743 568.505 342.868 570.538 344.391Z" fill="#FF8383"/>
<path d="M576.105 357.898C578.138 359.421 580.557 356.192 578.524 354.669C578.096 354.348 577.558 354.211 577.028 354.287C576.499 354.363 576.021 354.646 575.7 355.074C575.379 355.502 575.242 356.04 575.318 356.57C575.394 357.1 575.677 357.577 576.105 357.898Z" fill="#FF8383"/>
<path d="M573.194 368.136C573.622 368.457 574.16 368.594 574.69 368.518C575.22 368.442 575.697 368.159 576.018 367.731C576.339 367.303 576.477 366.765 576.401 366.235C576.325 365.705 576.042 365.228 575.613 364.907C573.58 363.384 571.161 366.613 573.194 368.136Z" fill="#FF8383"/>
<path d="M561.628 362.64C562.056 362.961 562.594 363.099 563.124 363.023C563.653 362.947 564.131 362.663 564.452 362.235C564.773 361.807 564.91 361.269 564.834 360.739C564.758 360.21 564.475 359.732 564.047 359.411C562.014 357.888 559.595 361.117 561.628 362.64Z" fill="#FF8383"/>
<path d="M543.492 371.647C545.525 373.171 547.944 369.942 545.911 368.419C545.483 368.098 544.945 367.96 544.415 368.036C543.885 368.112 543.408 368.395 543.087 368.823C542.766 369.252 542.628 369.79 542.704 370.319C542.78 370.849 543.064 371.327 543.492 371.647Z" fill="#FF8383"/>
<path d="M554.445 372.852C556.478 374.375 558.912 371.251 556.879 369.728C554.846 368.204 552.412 371.329 554.445 372.852Z" fill="#FF8383"/>
<path d="M521.056 266.519C523.089 268.042 525.523 264.918 523.49 263.395C521.457 261.871 519.023 264.996 521.056 266.519Z" fill="#FF8383"/>
<path d="M505.511 261.596C505.94 261.917 506.478 262.055 507.007 261.979C507.537 261.903 508.015 261.62 508.335 261.191C508.656 260.763 508.794 260.225 508.718 259.696C508.642 259.166 508.359 258.688 507.931 258.367C507.502 258.047 506.964 257.909 506.435 257.985C505.905 258.061 505.427 258.344 505.107 258.772C504.786 259.2 504.648 259.739 504.724 260.268C504.8 260.798 505.083 261.275 505.511 261.596Z" fill="#FF8383"/>
<path d="M491.331 261.708C491.543 261.867 491.784 261.982 492.041 262.048C492.298 262.113 492.565 262.128 492.827 262.09C493.089 262.053 493.341 261.964 493.569 261.829C493.797 261.694 493.996 261.515 494.155 261.303C494.314 261.091 494.429 260.85 494.495 260.593C494.561 260.336 494.575 260.069 494.537 259.807C494.5 259.545 494.411 259.293 494.276 259.065C494.141 258.837 493.962 258.638 493.75 258.479C491.717 256.956 489.298 260.185 491.331 261.708Z" fill="#FF8383"/>
<path d="M484.058 273.53C486.091 275.053 488.51 271.825 486.373 270.316C484.235 268.808 482.01 271.903 484.058 273.53Z" fill="#FF8383"/>
<path d="M480.019 291.509C482.052 293.032 484.486 289.908 482.453 288.385C480.42 286.862 477.986 289.986 480.019 291.509Z" fill="#FF8383"/>
<path d="M476.663 305.334C476.875 305.493 477.116 305.609 477.373 305.674C477.63 305.74 477.897 305.754 478.159 305.717C478.421 305.679 478.673 305.59 478.901 305.455C479.129 305.32 479.328 305.141 479.487 304.929C479.646 304.717 479.761 304.476 479.827 304.219C479.893 303.963 479.907 303.696 479.869 303.433C479.832 303.171 479.743 302.919 479.608 302.691C479.473 302.463 479.294 302.264 479.082 302.105C477.049 300.582 474.63 303.811 476.663 305.334Z" fill="#FF8383"/>
<path d="M485.216 314.354C487.249 315.877 489.668 312.648 487.635 311.125C487.207 310.804 486.669 310.666 486.14 310.742C485.61 310.818 485.132 311.101 484.811 311.53C484.491 311.958 484.353 312.496 484.429 313.025C484.505 313.555 484.788 314.033 485.216 314.354Z" fill="#FF8383"/>
<path d="M498.8 318.277C500.833 319.8 503.267 316.676 501.234 315.153C499.201 313.63 496.767 316.754 498.8 318.277Z" fill="#FF8383"/>
<path d="M517.477 316.026C517.906 316.347 518.444 316.484 518.973 316.409C519.503 316.333 519.981 316.049 520.301 315.621C520.622 315.193 520.76 314.655 520.684 314.125C520.608 313.596 520.325 313.118 519.897 312.797C517.864 311.274 515.444 314.503 517.477 316.026Z" fill="#FF8383"/>
<path d="M528.229 299.435C528.658 299.756 529.196 299.894 529.725 299.818C530.255 299.742 530.733 299.459 531.053 299.03C531.374 298.602 531.512 298.064 531.436 297.535C531.36 297.005 531.077 296.527 530.649 296.206C528.616 294.683 526.196 297.912 528.229 299.435Z" fill="#FF8383"/>
<path d="M529.925 282.22C531.973 283.848 534.392 280.619 532.359 279.096C530.326 277.572 527.892 280.697 529.925 282.22Z" fill="#FF8383"/>
<path d="M493.552 280.176C495.585 281.7 498.019 278.575 495.986 277.052C493.953 275.529 491.519 278.653 493.552 280.176Z" fill="#FF8383"/>
<path d="M489.568 293.342C489.772 293.495 490.004 293.606 490.251 293.669C490.498 293.733 490.755 293.747 491.008 293.71C491.26 293.674 491.503 293.589 491.723 293.458C491.942 293.328 492.134 293.156 492.287 292.952C492.44 292.748 492.551 292.516 492.614 292.269C492.678 292.021 492.691 291.764 492.655 291.512C492.619 291.259 492.533 291.016 492.403 290.797C492.273 290.577 492.101 290.386 491.897 290.233C489.849 288.605 487.535 291.819 489.568 293.342Z" fill="#FF8383"/>
<path d="M524.636 377.87C526.684 379.498 529.103 376.269 527.07 374.746C525.037 373.223 522.603 376.347 524.636 377.87Z" fill="#FF8383"/>
<path d="M506.794 378.507C508.827 380.031 511.261 376.906 509.228 375.383C507.195 373.86 504.761 376.984 506.794 378.507Z" fill="#FF8383"/>
<path d="M481.826 382.3C483.859 383.823 486.174 380.609 484.141 379.086C483.715 378.875 483.228 378.823 482.766 378.937C482.305 379.052 481.9 379.327 481.622 379.712C481.344 380.098 481.212 380.57 481.25 381.044C481.287 381.517 481.491 381.962 481.826 382.3Z" fill="#FF8383"/>
<path d="M453.452 384.661C453.88 384.981 454.418 385.119 454.948 385.043C455.478 384.967 455.955 384.684 456.276 384.256C456.597 383.828 456.734 383.289 456.659 382.76C456.583 382.23 456.299 381.752 455.871 381.432C453.838 379.909 451.419 383.137 453.452 384.661Z" fill="#FF8383"/>
<path d="M454.648 355.775C456.696 357.402 459.115 354.173 457.082 352.65C455.049 351.127 452.615 354.251 454.648 355.775Z" fill="#FF8383"/>
<path d="M503.615 353.346C504.033 353.573 504.517 353.644 504.983 353.547C505.448 353.449 505.863 353.19 506.155 352.815C506.447 352.44 506.597 351.974 506.578 351.499C506.558 351.024 506.371 350.572 506.049 350.222C504.001 348.594 501.582 351.823 503.615 353.346Z" fill="#FF8383"/>
<path d="M422.207 355.089C424.24 356.612 426.659 353.383 424.626 351.86C424.197 351.539 423.659 351.401 423.13 351.477C422.6 351.553 422.123 351.836 421.802 352.265C421.481 352.693 421.343 353.231 421.419 353.76C421.495 354.29 421.778 354.768 422.207 355.089Z" fill="#FF8383"/>
<path d="M429.034 381.863C429.462 382.183 430 382.321 430.53 382.245C431.059 382.169 431.537 381.886 431.858 381.458C432.179 381.03 432.316 380.492 432.241 379.962C432.165 379.432 431.881 378.955 431.453 378.634C429.42 377.111 427.001 380.339 429.034 381.863Z" fill="#FF8383"/>
<path d="M479.607 395.855C480.035 396.176 480.573 396.314 481.103 396.238C481.633 396.162 482.11 395.878 482.431 395.45C482.752 395.022 482.89 394.484 482.814 393.954C482.738 393.425 482.455 392.947 482.026 392.626C481.598 392.306 481.06 392.168 480.53 392.244C480.001 392.32 479.523 392.603 479.202 393.031C478.882 393.459 478.744 393.997 478.82 394.527C478.896 395.057 479.179 395.534 479.607 395.855Z" fill="#FF8383"/>
<path d="M504.949 391.688C506.997 393.315 509.416 390.086 507.383 388.563C505.35 387.04 502.916 390.164 504.949 391.688Z" fill="#FF8383"/>
<path d="M530.394 388.254C532.427 389.777 534.846 386.548 532.813 385.025C532.385 384.704 531.847 384.566 531.317 384.642C530.788 384.718 530.31 385.002 529.989 385.43C529.668 385.858 529.531 386.396 529.607 386.926C529.683 387.455 529.966 387.933 530.394 388.254Z" fill="#FF8383"/>
<path d="M551.165 387.198C551.593 387.519 552.131 387.657 552.661 387.581C553.19 387.505 553.668 387.222 553.989 386.793C554.31 386.365 554.447 385.827 554.371 385.298C554.295 384.768 554.012 384.29 553.584 383.969C551.551 382.446 549.132 385.675 551.165 387.198Z" fill="#FF8383"/>
<path d="M576.623 379.386C578.656 380.909 581.075 377.68 579.042 376.157C578.614 375.836 578.075 375.699 577.546 375.774C577.016 375.85 576.538 376.134 576.218 376.562C575.897 376.99 575.759 377.528 575.835 378.058C575.911 378.587 576.194 379.065 576.623 379.386Z" fill="#FF8383"/>
<path d="M602.141 372.738C604.279 374.246 606.608 371.136 604.575 369.613C602.542 368.09 600.108 371.214 602.141 372.738Z" fill="#FF8383"/>
<path d="M620.957 376.659C622.99 378.182 625.304 374.968 623.271 373.445C622.845 373.234 622.358 373.182 621.897 373.296C621.436 373.411 621.031 373.686 620.753 374.071C620.475 374.457 620.343 374.929 620.381 375.402C620.418 375.876 620.622 376.321 620.957 376.659Z" fill="#FF8383"/>
<path d="M632.931 387.966C634.964 389.489 637.383 386.26 635.35 384.737C634.922 384.416 634.384 384.279 633.854 384.354C633.325 384.43 632.847 384.714 632.526 385.142C632.205 385.57 632.068 386.108 632.144 386.638C632.22 387.167 632.503 387.645 632.931 387.966Z" fill="#FF8383"/>
<path d="M632.849 403.028C633.277 403.349 633.815 403.487 634.344 403.411C634.874 403.335 635.352 403.052 635.673 402.624C635.993 402.195 636.131 401.657 636.055 401.128C635.979 400.598 635.696 400.12 635.268 399.8C633.235 398.276 630.816 401.505 632.849 403.028Z" fill="#FF8383"/>
<path d="M620.538 405.005C622.586 406.633 625.005 403.404 622.973 401.881C620.94 400.358 618.505 403.482 620.538 405.005Z" fill="#FF8383"/>
<path d="M613.713 413.988C614.147 414.351 614.707 414.526 615.27 414.475C615.834 414.424 616.354 414.152 616.716 413.718C617.078 413.284 617.253 412.723 617.203 412.16C617.152 411.597 616.88 411.077 616.446 410.714C614.413 409.191 611.993 412.42 614.026 413.943L613.713 413.988Z" fill="#FF8383"/>
<path d="M600.505 416.417C602.538 417.94 604.972 414.816 602.939 413.293C600.906 411.77 598.472 414.894 600.505 416.417Z" fill="#FF8383"/>
<path d="M581.234 426.437C583.282 428.065 585.701 424.836 583.668 423.313C581.635 421.79 579.201 424.914 581.234 426.437Z" fill="#FF8383"/>
<path d="M555.864 434.877C557.912 436.505 560.226 433.291 558.193 431.768C556.16 430.245 553.726 433.369 555.864 434.877Z" fill="#FF8383"/>
<path d="M553.847 404.426C555.88 405.949 558.299 402.721 556.266 401.197C555.838 400.877 555.3 400.739 554.77 400.815C554.241 400.891 553.763 401.174 553.442 401.602C553.122 402.03 552.984 402.568 553.06 403.098C553.136 403.628 553.419 404.105 553.847 404.426Z" fill="#FF8383"/>
<path d="M483.097 412.006C483.525 412.327 484.063 412.464 484.592 412.388C485.122 412.312 485.6 412.029 485.921 411.601C486.241 411.173 486.379 410.635 486.303 410.105C486.227 409.576 485.944 409.098 485.516 408.777C483.483 407.254 481.064 410.483 483.097 412.006Z" fill="#FF8383"/>
<path d="M527.787 434.1C529.82 435.623 532.239 432.394 530.206 430.871C529.778 430.55 529.239 430.412 528.71 430.488C528.18 430.564 527.703 430.848 527.382 431.276C527.061 431.704 526.923 432.242 526.999 432.771C527.075 433.301 527.358 433.779 527.787 434.1Z" fill="#FF8383"/>
<path d="M505.103 432.976C507.136 434.499 509.57 431.375 507.537 429.852C505.504 428.329 503.07 431.453 505.103 432.976Z" fill="#FF8383"/>
<path d="M485.628 423.705C487.661 425.228 490.081 422 488.048 420.476C487.619 420.156 487.081 420.018 486.552 420.094C486.022 420.17 485.544 420.453 485.224 420.881C484.903 421.309 484.765 421.847 484.841 422.377C484.917 422.907 485.2 423.384 485.628 423.705Z" fill="#FF8383"/>
<path d="M452.522 409.452C452.951 409.773 453.489 409.91 454.018 409.834C454.548 409.758 455.026 409.475 455.346 409.047C455.667 408.619 455.805 408.081 455.729 407.551C455.653 407.022 455.37 406.544 454.942 406.223C452.909 404.7 450.489 407.929 452.522 409.452Z" fill="#FF8383"/>
<path d="M583.333 444.068C585.366 445.591 587.8 442.467 585.767 440.944C583.734 439.421 581.3 442.545 583.333 444.068Z" fill="#FF8383"/>
<path d="M611.607 445.459C613.64 446.983 616.059 443.754 614.026 442.231C613.598 441.91 613.06 441.772 612.53 441.848C612.001 441.924 611.523 442.207 611.202 442.635C610.881 443.064 610.744 443.602 610.82 444.131C610.896 444.661 611.179 445.139 611.607 445.459Z" fill="#FF8383"/>
<path d="M641.104 447.21C641.533 447.53 642.071 447.668 642.6 447.592C643.13 447.516 643.608 447.233 643.928 446.805C644.249 446.377 644.387 445.838 644.311 445.309C644.235 444.779 643.952 444.302 643.524 443.981C641.491 442.458 639.071 445.686 641.104 447.21Z" fill="#FF8383"/>
<path d="M657.187 456.645C659.235 458.273 661.654 455.044 659.621 453.521C657.588 451.998 655.154 455.122 657.187 456.645Z" fill="#FF8383"/>
<path d="M666.49 472.39C668.523 473.913 670.942 470.684 668.909 469.161C668.481 468.84 667.943 468.702 667.413 468.778C666.883 468.854 666.406 469.137 666.085 469.566C665.764 469.994 665.626 470.532 665.702 471.062C665.778 471.591 666.062 472.069 666.49 472.39Z" fill="#FF8383"/>
<path d="M662.209 490.188C662.622 490.497 663.14 490.63 663.65 490.557C664.16 490.484 664.62 490.211 664.929 489.798C665.238 489.386 665.37 488.868 665.297 488.358C665.224 487.848 664.951 487.388 664.539 487.079C664.335 486.926 664.103 486.815 663.855 486.752C663.608 486.689 663.351 486.675 663.099 486.711C662.846 486.747 662.603 486.833 662.384 486.963C662.164 487.093 661.973 487.265 661.82 487.469C661.667 487.673 661.555 487.905 661.492 488.153C661.429 488.4 661.415 488.657 661.451 488.909C661.488 489.162 661.573 489.405 661.703 489.624C661.833 489.844 662.005 490.035 662.209 490.188Z" fill="#FF8383"/>
<path d="M651.598 487.653C653.736 489.161 656.065 486.052 654.032 484.529C651.999 483.006 649.565 486.13 651.598 487.653Z" fill="#FF8383"/>
<path d="M640.949 495.265C642.997 496.893 645.416 493.664 643.383 492.141C641.35 490.617 638.916 493.742 640.949 495.265Z" fill="#FF8383"/>
<path d="M625.9 493.047C627.933 494.57 630.367 491.446 628.334 489.922C626.301 488.399 623.867 491.523 625.9 493.047Z" fill="#FF8383"/>
<path d="M611.271 494.503C613.304 496.026 615.723 492.797 613.69 491.274C613.262 490.953 612.724 490.815 612.194 490.891C611.665 490.967 611.187 491.25 610.866 491.679C610.545 492.107 610.408 492.645 610.484 493.174C610.56 493.704 610.843 494.182 611.271 494.503Z" fill="#FF8383"/>
<path d="M589.663 462.909C591.696 464.432 594.13 461.308 592.098 459.785C590.065 458.262 587.63 461.386 589.663 462.909Z" fill="#FF8383"/>
<path d="M585.895 485.012C588.033 486.52 590.362 483.411 588.329 481.887C586.296 480.364 583.862 483.488 585.895 485.012Z" fill="#FF8383"/>
<path d="M561.4 479.449C563.433 480.972 565.867 477.848 563.834 476.325C561.801 474.802 559.367 477.926 561.4 479.449Z" fill="#FF8383"/>
<path d="M536.962 463.099C538.995 464.623 541.429 461.498 539.396 459.975C537.363 458.452 534.929 461.576 536.962 463.099Z" fill="#FF8383"/>
<path d="M512.496 453.265C514.529 454.788 516.948 451.559 514.915 450.036C514.487 449.715 513.949 449.578 513.419 449.654C512.889 449.73 512.412 450.013 512.091 450.441C511.77 450.869 511.632 451.407 511.708 451.937C511.784 452.466 512.067 452.944 512.496 453.265Z" fill="#FF8383"/>
<path d="M491.136 443.518C493.184 445.146 495.603 441.917 493.57 440.394C491.537 438.871 489.103 441.995 491.136 443.518Z" fill="#FF8383"/>
<path d="M484.911 456.684C486.959 458.312 489.379 455.083 487.346 453.56C485.313 452.037 482.878 455.161 484.911 456.684Z" fill="#FF8383"/>
<path d="M557.06 494.589C559.093 496.112 561.512 492.884 559.479 491.36C559.051 491.04 558.513 490.902 557.983 490.978C557.454 491.054 556.976 491.337 556.655 491.765C556.334 492.193 556.197 492.732 556.273 493.261C556.349 493.791 556.632 494.268 557.06 494.589Z" fill="#FF8383"/>
<path d="M472.059 425.865C472.488 426.186 473.026 426.323 473.555 426.247C474.085 426.172 474.563 425.888 474.883 425.46C475.204 425.032 475.342 424.494 475.266 423.964C475.19 423.435 474.907 422.957 474.479 422.636C472.446 421.113 470.027 424.342 472.059 425.865Z" fill="#FF8383"/>
<path d="M422.079 395.137C422.491 395.446 423.009 395.578 423.519 395.505C424.029 395.432 424.489 395.159 424.798 394.747C425.107 394.335 425.239 393.817 425.166 393.307C425.093 392.797 424.82 392.337 424.408 392.028C424.204 391.875 423.972 391.764 423.725 391.7C423.477 391.637 423.22 391.623 422.968 391.659C422.715 391.696 422.472 391.781 422.253 391.911C422.033 392.041 421.842 392.213 421.689 392.418C421.536 392.622 421.424 392.854 421.361 393.101C421.298 393.348 421.284 393.606 421.32 393.858C421.357 394.111 421.442 394.353 421.572 394.573C421.702 394.792 421.874 394.984 422.079 395.137Z" fill="#FF8383"/>
<path d="M394.853 369.046C396.886 370.569 399.305 367.34 397.272 365.817C396.844 365.496 396.306 365.359 395.776 365.435C395.247 365.511 394.769 365.794 394.448 366.222C394.127 366.65 393.99 367.188 394.066 367.718C394.142 368.247 394.425 368.725 394.853 369.046Z" fill="#FF8383"/>
<path d="M368.751 344.82C370.799 346.448 373.218 343.219 371.185 341.696C369.152 340.172 366.718 343.297 368.751 344.82Z" fill="#FF8383"/>
<path d="M409.392 366.961C411.44 368.589 413.859 365.36 411.826 363.837C409.793 362.313 407.359 365.438 409.392 366.961Z" fill="#FF8383"/>
<path d="M389.138 352.253C389.566 352.574 390.104 352.711 390.633 352.635C391.163 352.559 391.641 352.276 391.962 351.848C392.282 351.42 392.42 350.882 392.344 350.352C392.268 349.823 391.985 349.345 391.557 349.024C389.524 347.501 387.105 350.73 389.138 352.253Z" fill="#FF8383"/>
<path d="M286.906 276.497C288.954 278.125 291.373 274.896 289.34 273.373C287.307 271.85 284.873 274.974 286.906 276.497Z" fill="#FF8383"/>
<path d="M322.834 291.094C324.867 292.617 327.302 289.493 325.164 287.985C323.026 286.477 320.801 289.571 322.834 291.094Z" fill="#FF8383"/>
<path d="M644.128 517.439C646.161 518.962 648.595 515.838 646.562 514.315C644.529 512.792 642.095 515.916 644.128 517.439Z" fill="#FF8383"/>
<path d="M643.912 533.8C645.945 535.323 648.364 532.094 646.331 530.571C646.119 530.412 645.878 530.297 645.621 530.231C645.364 530.165 645.097 530.151 644.835 530.189C644.573 530.226 644.32 530.315 644.093 530.45C643.865 530.585 643.666 530.764 643.507 530.976C643.348 531.188 643.232 531.429 643.167 531.686C643.101 531.943 643.087 532.21 643.124 532.472C643.162 532.734 643.251 532.986 643.386 533.214C643.521 533.442 643.7 533.641 643.912 533.8Z" fill="#FF8383"/>
<path d="M629.47 550.707C631.503 552.23 633.922 549.002 631.785 547.493C629.647 545.985 627.422 549.08 629.47 550.707Z" fill="#FF8383"/>
<path d="M625.135 545.778C627.168 547.302 629.602 544.177 627.569 542.654C627.151 542.428 626.666 542.357 626.201 542.454C625.736 542.551 625.32 542.81 625.028 543.185C624.736 543.56 624.587 544.026 624.606 544.501C624.626 544.976 624.813 545.429 625.135 545.778Z" fill="#FF8383"/>
<path d="M602.03 540.233C602.458 540.554 602.996 540.691 603.526 540.615C604.056 540.539 604.533 540.256 604.854 539.828C605.175 539.4 605.313 538.862 605.237 538.332C605.161 537.803 604.878 537.325 604.449 537.004C602.416 535.481 599.997 538.71 602.03 540.233Z" fill="#FF8383"/>
<path d="M612.508 546.307C612.936 546.628 613.474 546.765 614.003 546.69C614.533 546.614 615.011 546.33 615.332 545.902C615.652 545.474 615.79 544.936 615.714 544.406C615.638 543.877 615.355 543.399 614.927 543.078C614.499 542.757 613.96 542.62 613.431 542.696C612.901 542.772 612.424 543.055 612.103 543.483C611.782 543.911 611.644 544.449 611.72 544.979C611.796 545.509 612.079 545.986 612.508 546.307Z" fill="#FF8383"/>
<path d="M560.605 533.468C562.653 535.096 565.072 531.867 563.039 530.344C561.006 528.82 558.572 531.945 560.605 533.468Z" fill="#FF8383"/>
<path d="M527.308 524.578C529.341 526.102 531.76 522.873 529.727 521.35C529.299 521.029 528.761 520.891 528.231 520.967C527.702 521.043 527.224 521.326 526.903 521.754C526.582 522.183 526.445 522.721 526.521 523.25C526.597 523.78 526.88 524.258 527.308 524.578Z" fill="#FF8383"/>
<path d="M490.184 512.074C490.596 512.383 491.115 512.516 491.625 512.443C492.134 512.37 492.595 512.097 492.903 511.685C493.212 511.272 493.345 510.754 493.272 510.244C493.199 509.734 492.926 509.274 492.514 508.965C492.309 508.812 492.077 508.701 491.83 508.638C491.583 508.574 491.326 508.561 491.073 508.597C490.821 508.633 490.578 508.719 490.358 508.849C490.139 508.979 489.947 509.151 489.794 509.355C489.641 509.559 489.53 509.791 489.467 510.039C489.404 510.286 489.39 510.543 489.426 510.795C489.462 511.048 489.548 511.291 489.678 511.51C489.808 511.73 489.98 511.921 490.184 512.074Z" fill="#FF8383"/>
<path d="M457.665 504.889C458.093 505.21 458.631 505.348 459.161 505.272C459.69 505.196 460.168 504.913 460.489 504.484C460.81 504.056 460.947 503.518 460.871 502.989C460.795 502.459 460.512 501.981 460.084 501.66C458.051 500.137 455.632 503.366 457.665 504.889Z" fill="#FF8383"/>
<path d="M429.476 489.929C431.524 491.556 433.943 488.328 431.91 486.804C429.877 485.281 427.443 488.406 429.476 489.929Z" fill="#FF8383"/>
<path d="M464.773 493.408C466.806 494.932 469.24 491.807 467.207 490.284C465.174 488.761 462.74 491.885 464.773 493.408Z" fill="#FF8383"/>
<path d="M398.624 472.043C399.052 472.363 399.59 472.501 400.12 472.425C400.649 472.349 401.127 472.066 401.448 471.638C401.769 471.21 401.906 470.672 401.83 470.142C401.754 469.612 401.471 469.135 401.043 468.814C399.01 467.291 396.591 470.52 398.624 472.043Z" fill="#FF8383"/>
<path d="M368.657 455.845C369.085 456.166 369.623 456.303 370.153 456.228C370.683 456.152 371.16 455.868 371.481 455.44C371.802 455.012 371.94 454.474 371.864 453.944C371.788 453.415 371.504 452.937 371.076 452.616C369.043 451.093 366.624 454.322 368.657 455.845Z" fill="#FF8383"/>
<path d="M341.542 440.199C343.575 441.722 345.995 438.493 343.962 436.97C343.533 436.649 342.995 436.512 342.466 436.588C341.936 436.664 341.458 436.947 341.138 437.375C340.817 437.803 340.679 438.341 340.755 438.871C340.831 439.4 341.114 439.878 341.542 440.199Z" fill="#FF8383"/>
<path d="M307.271 424.511C309.319 426.139 311.738 422.91 309.705 421.387C307.672 419.864 305.238 422.988 307.271 424.511Z" fill="#FF8383"/>
<path d="M275.415 396.629C277.448 398.152 279.868 394.924 277.835 393.4C277.406 393.08 276.868 392.942 276.339 393.018C275.809 393.094 275.331 393.377 275.011 393.805C274.69 394.233 274.552 394.771 274.628 395.301C274.704 395.831 274.987 396.308 275.415 396.629Z" fill="#FF8383"/>
<path d="M337.814 453.649C339.847 455.172 342.266 451.943 340.233 450.42C339.805 450.099 339.267 449.962 338.737 450.038C338.208 450.114 337.73 450.397 337.409 450.825C337.088 451.253 336.951 451.791 337.027 452.321C337.103 452.85 337.386 453.328 337.814 453.649Z" fill="#FF8383"/>
<path d="M314.843 447.549C315.269 447.759 315.756 447.812 316.217 447.697C316.678 447.582 317.084 447.308 317.362 446.922C317.639 446.537 317.771 446.065 317.734 445.591C317.697 445.117 317.492 444.672 317.158 444.335C315.125 442.812 312.81 446.026 314.843 447.549Z" fill="#FF8383"/>
<path d="M290.569 430.854C292.706 432.362 295.036 429.253 293.003 427.73C290.97 426.207 288.536 429.331 290.569 430.854Z" fill="#FF8383"/>
<path d="M262.103 400.564C264.136 402.087 266.57 398.963 264.537 397.44C262.504 395.917 260.07 399.041 262.103 400.564Z" fill="#FF8383"/>
<path d="M235.352 365.119C237.385 366.642 239.819 363.518 237.682 362.01C235.544 360.502 233.319 363.596 235.352 365.119Z" fill="#FF8383"/>
<path d="M207.14 335.111C209.173 336.634 211.607 333.51 209.574 331.987C207.541 330.464 205.107 333.588 207.14 335.111Z" fill="#FF8383"/>
<path d="M167.182 302.093C169.23 303.72 171.544 300.507 169.511 298.983C169.099 298.675 168.581 298.542 168.071 298.615C167.561 298.688 167.101 298.961 166.792 299.373C166.483 299.786 166.35 300.304 166.424 300.814C166.497 301.324 166.769 301.784 167.182 302.093Z" fill="#FF8383"/>
<path d="M132.503 281.34C132.931 281.66 133.469 281.798 133.999 281.722C134.528 281.646 135.006 281.363 135.327 280.935C135.648 280.507 135.785 279.969 135.709 279.439C135.633 278.909 135.35 278.432 134.922 278.111C132.889 276.588 130.47 279.816 132.503 281.34Z" fill="#FF8383"/>
<path d="M86.2454 258.725C88.2784 260.248 90.7125 257.124 88.6795 255.601C86.6466 254.078 84.2125 257.202 86.2454 258.725Z" fill="#FF8383"/>
<path d="M34.1126 233.856C36.1606 235.484 38.5797 232.255 36.5467 230.732C34.5138 229.208 32.0797 232.333 34.1126 233.856Z" fill="#FF8383"/>
<path d="M162.736 163.858C164.769 165.381 167.084 162.168 165.051 160.644C164.625 160.434 164.138 160.381 163.677 160.496C163.215 160.611 162.81 160.885 162.532 161.271C162.254 161.657 162.123 162.128 162.16 162.602C162.197 163.076 162.401 163.521 162.736 163.858Z" fill="#FF8383"/>
<path d="M139.868 213.57C140.296 213.891 140.834 214.029 141.364 213.953C141.894 213.877 142.371 213.594 142.692 213.166C143.013 212.737 143.15 212.199 143.075 211.67C142.999 211.14 142.715 210.662 142.287 210.342C140.254 208.818 137.835 212.047 139.868 213.57Z" fill="#FF8383"/>
<path d="M195.075 230.848C195.503 231.169 196.041 231.307 196.571 231.231C197.1 231.155 197.578 230.872 197.899 230.443C198.22 230.015 198.357 229.477 198.282 228.948C198.206 228.418 197.922 227.94 197.494 227.619C195.461 226.096 193.042 229.325 195.075 230.848Z" fill="#FF8383"/>
<path d="M223.503 307.789C225.551 309.417 227.97 306.188 225.937 304.665C223.904 303.141 221.47 306.266 223.503 307.789Z" fill="#FF8383"/>
<path d="M206.661 269.961C207.073 270.27 207.591 270.403 208.101 270.33C208.611 270.257 209.071 269.984 209.38 269.572C209.689 269.159 209.821 268.641 209.748 268.131C209.675 267.621 209.402 267.161 208.99 266.852C208.578 266.543 208.06 266.411 207.55 266.484C207.04 266.557 206.58 266.83 206.271 267.242C205.962 267.654 205.829 268.172 205.902 268.682C205.976 269.192 206.248 269.652 206.661 269.961Z" fill="#FF8383"/>
<path d="M446.96 250.776C448.993 252.3 451.413 249.071 449.38 247.548C448.951 247.227 448.413 247.089 447.884 247.165C447.354 247.241 446.876 247.524 446.556 247.952C446.235 248.381 446.097 248.919 446.173 249.448C446.249 249.978 446.532 250.456 446.96 250.776Z" fill="#FF8383"/>
<path d="M441.626 281.322C443.659 282.845 446.079 279.617 444.046 278.093C443.617 277.773 443.079 277.635 442.55 277.711C442.02 277.787 441.542 278.07 441.222 278.498C440.901 278.926 440.763 279.464 440.839 279.994C440.915 280.524 441.198 281.001 441.626 281.322Z" fill="#FF8383"/>
<path d="M422.468 248.95C424.501 250.474 426.92 247.245 424.887 245.722C424.459 245.401 423.921 245.263 423.392 245.339C422.862 245.415 422.384 245.698 422.063 246.126C421.743 246.555 421.605 247.093 421.681 247.622C421.757 248.152 422.04 248.63 422.468 248.95Z" fill="#FF8383"/>
<path d="M414.757 277.81C416.79 279.333 419.209 276.104 417.176 274.581C416.748 274.26 416.21 274.123 415.681 274.199C415.151 274.274 414.673 274.558 414.352 274.986C414.032 275.414 413.894 275.952 413.97 276.482C414.046 277.011 414.329 277.489 414.757 277.81Z" fill="#FF8383"/>
<path d="M628.893 504.999C629.322 505.32 629.86 505.458 630.389 505.382C630.919 505.306 631.397 505.023 631.717 504.595C632.038 504.166 632.176 503.628 632.1 503.099C632.024 502.569 631.741 502.091 631.313 501.771C629.28 500.248 626.861 503.476 628.893 504.999Z" fill="#FF8383"/>
<path d="M486.8 313.487L477.665 304.122L480.856 289.895L484.957 272.335L492.347 260.601L506.528 260.49L522.28 265.383L530.94 281.114L529.334 298.209L518.375 314.831L499.966 317.47L486.964 313.89L486.8 313.487ZM478.293 304.032L487.218 313.427L500.101 316.917L518.3 314.308L529.185 297.911L530.805 280.92L522.28 265.383L506.648 260.58L492.781 260.646L485.599 272.35L481.588 289.79L478.293 304.032Z" fill="#FF8383"/>
<path d="M418.045 278.404C433.23 286.047 473.376 305.483 477.336 304.062L490.046 292.206L494.418 278.77L491.824 260.676L447.588 249.939L442.298 280.051L415.743 276.493L442.283 279.946L447.558 249.729L491.839 260.78L494.478 279.188L490.494 292.355L477.679 304.226C472.958 306.29 423.291 281.495 417.641 278.569L418.045 278.404Z" fill="#FF8383"/>
<path d="M601.491 415.1L621.21 403.734L633.656 401.949L621.314 403.719L601.595 415.085C601.595 415.085 601.61 415.19 601.491 415.1Z" fill="#FF8383"/>
<path d="M492.122 442.202L473.046 424.549L492.794 441.679L514.032 451.337L538.289 461.202L562.834 477.537L587.223 483.114L612.586 492.5L627.005 491.074L642.173 493.382L663.793 489.322L667.744 470.716L658.591 455.27L642.628 445.924L613.234 444.16L584.693 443.128L557.089 433.743L584.588 443.143L613.025 444.19L642.523 445.939L658.621 455.479L667.729 470.612L664.181 489.053L642.307 493.576L627.154 491.372L612.631 492.814L587.268 483.427L562.087 478.285L538.364 461.725L513.898 451.889L492.555 442.247L492.122 442.202Z" fill="#FF8383"/>
<path d="M602.807 538.947L625.882 545.033L629.695 550.037L629.172 550.112L625.494 545.302L603.256 539.097L602.807 538.947Z" fill="#FF8383"/>
<path d="M291.658 429.525L262.564 399.325L236.113 363.73L208.021 333.813L168.062 300.794L133.071 280.086L87.1406 257.53L35.0528 232.974L161.287 106.108L149.02 169.456L162.988 161.903L148.632 169.725L141.346 211.972L36.7409 232.092L87.8874 256.782L133.833 279.443L168.824 300.151L208.902 333.26L237.114 363.266L263.55 398.757L292.121 429.032L315.858 445.696L338.813 451.692L369.552 453.904L369.657 454.636L338.814 452.439L315.739 446.354L291.658 429.525ZM148.633 171.22L37.5177 231.554L140.718 212.062L148.633 171.22ZM160.839 107.453L37.099 230.867L148.707 170.248L160.839 107.453Z" fill="#FF8383"/>
<path d="M87.2298 257.409C86.7949 254.376 121.023 91.064 122.484 84.1298L147.717 132.816L160.704 106.51L162.689 162.799L147.897 134.071L87.3193 257.289L87.2298 257.409ZM122.828 85.0412C111.499 140.036 90.8966 239.057 88.1699 255.033L148.001 133.309L122.828 85.0412ZM148.748 133.309L163.406 161.095L161.556 107.989L148.748 133.309Z" fill="#FF8383"/>
<path d="M518.348 322.094L538.923 289.15L522.276 257.166L539.057 289.344L518.288 322.423L518.348 322.094Z" fill="#FF8383"/>
<path d="M423.35 247.65L425.217 216L423.394 247.216L447.453 248.998L460.413 227.713L491.749 260.153L460.787 228.086L447.887 249.042L423.275 247.127L423.35 247.65Z" fill="#FF8383"/>
<path d="M207.646 268.645L235.883 228.839L163.348 162.917L253.578 203.352L296.285 143.112L291.138 220.384L415.654 275.865L292.169 220.876L288.46 275.419L236.825 228.704L208.572 268.406L207.646 268.645ZM236.66 228.3L287.772 274.344L291.466 220.443L254.161 203.696L236.66 228.3ZM165.501 163.782L236.152 227.733L253.996 203.292L165.501 163.782ZM296.509 143.934L254.639 203.307L291.421 219.382L296.509 143.934Z" fill="#FF8383"/>
<path d="M195.538 229.608L162.945 163.083L234.234 127.245L259.075 138.948L265.705 130.099C265.705 130.099 265.705 130.099 265.78 130.622L260.091 138.589C301.626 158.039 348.333 179.31 351.262 178.89L196.195 228.98L195.538 229.608ZM163.557 162.889L195.687 228.412L234.264 127.454L163.557 162.889ZM259.628 139.082L196.583 228.71L349.603 179.234C340.666 176.459 291.403 153.741 260.151 139.007L259.628 139.082ZM234.668 127.29L197.061 226.827L259.149 138.724C247.686 133.216 238.524 128.872 235.19 127.215L234.668 127.29Z" fill="#FF8383"/>
<path d="M87.2304 257.409L163.332 162.814L182.751 149.356L187.365 141.329L196.673 138.5L207.114 130.919L221.713 130.748L234.487 126.781L248.356 130.451L265.406 130.248L277.199 138.057L295.835 142.964L314.131 155.178L328.195 160.207L329.02 165.96L366.839 193.735L366.929 194.362L349.811 207.491C389.793 228.764 422.601 246.157 423.423 246.679L415.817 275.523L344.926 271.702L337.189 217.733L224.953 306.727L207.525 268.557L195.97 229.652L87.5592 257.469L87.2304 257.409ZM163.87 162.843L88.3955 256.602L196.179 228.875L207.675 268.109L224.444 305.413L336.457 217.838L333.893 199.952C291.235 177.141 244.646 152.224 221.673 139.4L141.137 212.001L181.825 150.342L163.87 162.843ZM183.289 149.385L143.018 210.237L221.15 139.474C217.562 137.534 214.648 135.817 212.435 134.533L197.51 139.128L183.289 149.385ZM337.414 218.554L345.151 272.524L415.652 275.866L423.005 247.486C418.626 245.232 387.088 228.512 349.408 208.402L337.414 218.554ZM187.783 141.269L184.02 147.039L195.044 139.054L187.783 141.269ZM207.652 130.949L199.138 137.08L211.508 133.278C210.134 132.688 208.792 132.025 207.488 131.293L207.652 130.949ZM219.905 130.793L209.236 130.828L212.958 132.963L219.905 130.793ZM222.311 130.448L213.212 133.247L221.567 137.92L229.976 130.31L222.311 130.448ZM230.933 130.28L222.15 138.264C245.318 150.954 291.563 175.706 333.668 198.383L329.605 170.039L294.418 147.971L245.412 130.766L230.933 130.28ZM334.61 199.743L337.039 216.687L348.839 207.416C344.191 205.521 339.334 202.908 334.491 200.4L334.61 199.743ZM233.65 126.901L224.656 129.685L230.723 129.563L233.65 126.901ZM235.219 126.677L231.829 129.831L243.335 129.676L235.219 126.677ZM330.247 170.801L334.296 199.041C339.393 201.832 344.475 204.52 349.497 207.536L366.406 194.437L330.247 170.801ZM246.398 129.45L242.184 128.347L245.322 129.391L246.398 129.45ZM249.043 130.032L247.16 130.302L292.161 146.373L278.634 137.638L249.043 130.032ZM265.809 130.083L251.539 130.315L276.153 136.713L265.809 130.083ZM296.762 142.725L280.278 138.683L294.537 147.313L311.755 153.491L296.762 142.725ZM313.818 155.223L297.393 149.359L329.096 169.471L328.616 166.124L313.818 155.223ZM329.334 166.662L329.799 169.904L358.333 188.016L329.334 166.662ZM327.672 160.282L316.388 156.029L328.347 164.989L327.672 160.282Z" fill="#FF8383"/>
<path d="M133.49 280.025L155.881 261.978L140.614 212.076L196.449 229.263L156.657 261.439L160.848 275.035L207.81 268.303L168.332 300.434L160.639 275.812L134.073 279.621L133.49 280.025ZM156.12 262.157L134.969 279.172L160.176 275.558L156.12 262.157ZM161.073 275.857L168.481 299.986L206.72 268.886L161.073 275.857ZM141.317 212.509L156.269 260.961L195.508 229.398L141.317 212.509Z" fill="#FF8383"/>
<path d="M208.126 333.797L224.49 306.473L264.074 336.877L369.468 343.116L422.316 425.096L452.866 408.121L461.023 465.019L561.31 477.328L609.023 507.847L612.064 492.574L608.963 508.176L644.389 531.918L602.657 537.9L609.053 508.056L562.088 478.284L462.129 466.035L465.863 492.078L458.786 503.767L465.654 492.108L426.07 461.704L370.001 454.798L397.056 440.246L264.313 337.056L208.455 333.856C208.455 333.856 208.141 333.901 208.126 333.797ZM224.849 306.742L208.903 333.258L262.698 336.22L224.849 306.742ZM397.369 439.454L370.942 453.916L425.248 460.435L397.369 439.454ZM427.236 461.644L464.547 490.346L447.664 464.159L427.236 461.644ZM397.952 439.05L426.159 460.838L447.23 463.367L422.78 425.35L397.952 439.05ZM448.575 463.815L465.339 489.912L461.83 465.437L448.575 463.815ZM265.493 337.101L397.458 438.587L422.421 424.334L369.707 342.548L265.493 337.101ZM423.377 425.051L448.097 463.457L461.681 465.139L453.539 408.345L423.377 425.051ZM609.218 509.207L603.344 538.229L644.554 532.321L609.218 509.207Z" fill="#FF8383"/>
<path d="M430.46 488.615L323.715 289.793L287.547 275.765L318.549 268.652L344.014 272.793L366.642 281.718L392.17 294.497L433.107 312.004L468.452 322.522L496.144 327.305L516.777 322.319L531.563 307.07L537.367 289.479L533.563 271.131L520.944 257.569L492.68 242.088L461.099 228.042L425.23 216.105L390.678 206.649L366.733 194.497L351.006 179.353L327.836 160.686L296.821 143.143L265.808 130.083L234.904 126.721L207.501 130.65L187.647 141.075L163.69 162.335L141.24 211.986L122.887 83.9655L161.63 106.271L207.83 130.71L235.129 126.796L266.017 130.053L296.985 142.799L328.119 160.431L351.394 179.083L367.107 194.123L390.842 206.305L425.379 215.657L461.248 227.594L494.547 240.966L522.916 256.433L535.55 270.099L539.28 288.671L533.386 306.381L518.615 321.735L497.458 326.796L469.767 322.013L434.318 311.511L393.381 294.003L367.852 281.224L345.224 272.3L319.76 268.158L289.578 275.047L324.417 288.732L430.967 486.941L466.054 490.45L491.377 509.236L466.084 490.659L430.788 487.18L430.46 488.615ZM123.156 84.3539L141.284 210.806L163.391 162.485L187.468 141.314L206.814 131.069L161.406 106.943L123.156 84.3539Z" fill="#FF8383"/>
<path d="M423.193 353.774L457.777 337.394L455.828 354.326L423.701 353.594C423.701 353.594 423.297 353.759 423.193 353.774ZM457.464 338.187L424.971 353.519L455.589 354.146L457.464 338.187Z" fill="#FF8383"/>
<path d="M422.645 393.882L395.824 367.625L369.647 342.878L368.631 313.456L369.617 342.669L396.766 367.49L423.466 393.657L454.33 407.912L487.42 422.062L506.911 431.436L529.535 432.89L557.254 433.399L582.877 425.242L601.998 414.922L615.192 412.391L634.134 401.563L634.156 386.829L621.898 375.778L603.307 371.931L577.893 378.564L552.434 386.376L531.246 387.492L505.83 391.136L480.518 394.765L454.363 383.57L504.877 338.329L513.936 345.676L530.502 334.655L571.226 343.227C571.078 351.152 571.961 359.063 573.852 366.761L562.404 361.357L544.357 370.242L514.265 345.736L504.496 352.046L504.654 339.001L455.17 383.241L480.862 394.182L506.069 390.568L531.589 386.909L552.777 385.793L578.132 377.996L603.666 371.453L622.361 375.284L634.649 386.545L634.567 401.607L615.431 412.57L602.148 414.474L583.026 424.794L557.298 432.966L529.594 432.561L506.851 431.018L487.361 421.643L454.255 407.389L423.302 393.254L422.645 393.882ZM505.445 338.567L505.212 351.09L513.787 345.377L505.445 338.567ZM514.967 345.421L544.7 369.659L562.732 360.67L573.493 365.745C571.898 358.276 571.127 350.655 571.196 343.018L530.831 334.715L514.967 345.421Z" fill="#FF8383"/>
<path d="M544.478 370.33L530.787 334.4L544.448 370.121C544.448 370.121 544.582 370.315 544.478 370.33Z" fill="#FF8383"/>
<path d="M430.02 380.549L423.193 353.775L414.052 331.709L389.509 316.868L368.856 313.531L367.429 298.364L368.213 281.494L487.098 313.338L470.128 322.282L486.307 313.772L368.467 281.777L367.698 298.006L369.199 312.948L389.419 316.24L413.842 330.992L433.806 331.012L457.284 336.932L481.626 336.965L504.444 337.537L530.697 333.773L555.861 334.329L571.48 342.764L577.03 356.165L574.122 366.402L555.371 371.118L544.522 369.898L525.771 376.109L507.93 376.745L482.932 380.329L454.662 382.674L430.244 379.876L430.02 380.549ZM414.994 332.321L423.776 353.371L430.468 379.951L454.124 382.644L442.005 351.718L414.994 332.321ZM443.066 352.42L454.781 382.763L463.844 367.801L443.066 352.42ZM464.263 367.741L455.723 382.628L482.409 380.404L464.263 367.741ZM434.314 331.579L415.636 331.588L441.825 350.463L434.314 331.579ZM435.151 331.459L442.856 350.956L464.381 366.336L469.219 358.384L456.023 354.192L481.447 337.952L457.882 337.38L435.151 331.459ZM469.877 358.504L464.964 366.68L483.291 379.85L501.396 368.395L469.877 358.504ZM502.293 368.694L484.86 379.625L507.452 376.387L502.666 369.067L502.293 368.694ZM481.447 337.952L457.008 353.624L469.532 357.592L481.447 337.952ZM482.493 337.802L470.16 358.25L502.143 368.395L482.493 337.802ZM503.817 369.649L508.318 376.476L517.238 373.916L503.817 369.649ZM518.463 374.274L510.874 376.43L523.844 376.065L518.463 374.274ZM503.129 368.574L518.329 373.333L529.818 370.085L544.542 349.935L535.306 348.056L503.129 368.574ZM483.031 337.831L502.726 367.991L534.305 347.773L483.031 337.831ZM529.221 371.131L519.584 373.9L525.741 375.899L529.221 371.131ZM530.371 370.966L526.892 375.734L544.716 369.764L555.565 370.984L574.002 366.312L576.777 356.628L561.175 353.528L563.106 361.043L530.371 370.966ZM555.159 335.39L530.832 334.715L504.893 338.433L485.945 338.054L535.246 347.638L555.159 335.39ZM545.468 350.442L530.923 369.606L562.389 360.505L560.457 352.99L545.468 350.442ZM554.965 336.272L536.352 347.906L545.139 349.635L554.965 336.272ZM556.22 336.092L545.961 350.158L560.472 353.095L556.22 336.092ZM556.952 335.987L561.159 352.676L576.328 355.732L556.952 335.987ZM557.998 335.837L576.372 354.551L571.495 342.868L557.998 335.837Z" fill="#FF8383"/>
<path d="M430.02 380.548L389.554 349.951L423.088 353.789L482.484 380.926L569.806 343.75L505.042 338.731L571.748 342.404L483.037 380.313L423.536 353.191L390.989 349.531L430.572 379.935L430.02 380.548Z" fill="#FF8383"/>
<path d="M422.644 393.882L430.124 380.534L455.857 354.536L430.647 380.459L423.272 393.792L422.749 393.867L422.644 393.882Z" fill="#FF8383"/>
<path d="M195.538 229.605C198.482 230.784 345.465 241.949 422.289 247.694C414.474 247.534 199.379 231.083 195.538 229.605Z" fill="#FF8383"/>
<path d="M486.614 422.389L584.094 408.414L617.596 378.527L616.221 377.87L555.162 403.169L603.471 371.586L616.116 377.885L621.957 374.7L618.462 377.869L633.857 385.483L621.463 402.524L584.437 407.832L556.82 432.605L486.882 421.283L486.614 422.389ZM583.437 409.042L489.304 422.537L556.731 433.472L583.437 409.042ZM603.471 371.586L558.374 401.001L615.414 377.453L603.471 371.586ZM618.298 378.96L585.648 408.085L621.523 402.942L633.634 386.902L618.298 378.96ZM620.344 376.105L617.027 377.541L618.178 378.124L620.344 376.105Z" fill="#FF8383"/>
<path d="M552.149 385.882L552.672 385.807C554.555 386.285 585.305 381.129 608.943 377.74L603.351 372.244L609.317 378.114C613.919 377.454 618.102 376.854 621.868 376.315L633.865 402.668L609.063 378.577C589.399 381.396 554.302 387.495 551.955 386.764L552.149 385.882ZM610.198 377.561L632.967 400.128L621.987 375.657C620.702 375.628 616.219 376.377 610.168 377.351L610.198 377.561Z" fill="#FF8383"/>
<path d="M528.832 433.202L580.627 410.299L577.489 378.727L634.245 385.961L581.359 409.447L582.876 424.494L529.115 432.201L528.832 433.202ZM580.642 410.404L531.461 432.185L582.084 424.928L580.642 410.404ZM578.236 378.726L581.374 410.299L633.005 386.993L578.236 378.726Z" fill="#FF8383"/>
<path d="M506.089 431.659L531.679 386.788L555.326 402.825L601.999 414.92C597.143 416.79 589.061 419.977 581.098 423.254L582.907 424.702L582.982 425.225L580.934 423.597C569.52 428.116 558.644 432.664 557.792 433.426C558.748 432.649 569.833 428.071 580.829 423.612L556.597 403.496L508.032 431.807C508.032 431.807 506.209 431.748 506.089 431.659ZM531.724 387.101L507.194 430.433L554.295 402.332L531.724 387.101ZM556.492 403.511L580.62 422.895L600.818 414.876L556.492 403.511Z" fill="#FF8383"/>
<path d="M308.63 422.822L276.833 395.358C277.774 395.223 287.483 386.252 300.358 374.8L236.143 363.938L368.542 313.576C366.182 315.728 327.587 350.295 301.06 373.739L396.522 388.874L395.719 367.64C397.988 367.682 400.248 367.358 402.413 366.681C406.806 366.051 409.526 365.661 410.258 365.556C414.773 374.692 418.822 384.052 422.39 393.598L436.255 389.048L429.317 380.863C431.708 381.161 481.588 381.375 482.006 381.315C480.123 381.585 436.938 381.158 430.064 380.863L436.613 388.57L453.63 382.928L452.731 407.181L479.307 393.764L482.752 409.602L492.479 408.207L503.946 389.164L522.438 404.98L552.606 401.722L554.309 432.22L564.359 448.712C570.305 446.258 576.236 443.7 581.345 441.366L587.78 459.444L612.577 443.293L640.015 450.034L641.671 445.207L643.139 450.974L657.515 454.464L660.214 473.29L666.279 470.179L660.425 476.249C660.962 480.273 661.747 484.26 662.777 488.187L651.658 485.084L626.063 490.461L611.881 487.584L612.406 491.245L629.894 501.547L645.157 514.196L645.3 530.827L630.5 547.466L613.552 543.171L603.089 537.199L561.769 530.42L528.457 521.426L491.244 509.042L458.979 503.633L430.7 488.794L399.835 470.803L369.866 454.605L343.006 439.242L308.63 422.822ZM277.251 395.298L308.63 422.822L342.887 438.405L370.001 454.052L399.505 469.997L396.552 389.83L300.94 374.396C288.797 384.997 279.328 393.399 277.251 395.298ZM367.287 314.503L237.921 363.683L300.761 373.888C325.047 351.94 359.863 320.797 367.242 314.189L367.287 314.503ZM423.526 394.075L486.406 455.19L401.045 470.31L430.924 487.375L458.889 503.006L491.304 510.207L528.518 522.592L561.83 531.586L602.731 538.424L613.209 544.501L629.828 548.736L644.568 532.426L644.471 516.109L629.761 503.594L612.258 493.188L612.315 489.123L587.254 484.07L567.274 451.176C565.496 451.431 563.853 452.627 562.15 453.405C538.904 463.248 538.604 462.651 538.35 462.367L550.445 443.982L529.52 434.279L514.467 452.875L513.944 452.95L529.296 434.204L550.55 443.967L556.522 434.998L524.725 407.534L494.871 410.746L487.182 423.377L484.681 411.887L454.435 409.391L438.258 390.362L423.526 394.075ZM397.24 390.158L400.193 470.325L485.449 455.221L422.704 394.3L397.24 390.158ZM396.765 367.49L397.568 388.724L422.599 392.821C419.179 383.419 415.223 374.221 410.751 365.272C408.267 365.189 405.789 365.544 403.429 366.321C401.27 367.006 399.029 367.399 396.765 367.49ZM438.406 388.42L453.806 406.493L454.617 383.107L438.406 388.42ZM480.981 394.271L455.39 407.12L484.231 409.496L480.981 394.271ZM551.012 442.726C547.055 448.63 542.232 455.94 539.186 460.753C541.906 460.363 553.872 455.232 566.437 449.801L551.012 442.726ZM485.083 410.228L487.315 420.582L494.183 408.924L485.083 410.228ZM568.38 450.697L587.686 482.62L612.524 487.599L612.719 459.178L591.651 461.131L568.38 450.697ZM506.337 390.209L495.288 408.445L523.992 405.397L506.337 390.209ZM556.85 433.563L551.146 442.173L566.347 449.174L556.85 433.563ZM612.794 459.701L612.524 488.346L626.587 491.133L634.405 467.49L625.793 458.05L612.794 459.701ZM583.767 443.367L567.483 450.399L590.306 460.683L583.767 443.367ZM634.913 468.058L627.453 490.476L647.367 480.469L634.913 468.058ZM647.86 480.932L629.665 490.265L652.256 485.532L647.86 480.932ZM612.503 444.265L591.621 460.921L611.957 459.073L612.503 444.265ZM525.681 406.009L556.446 432.234L554.788 402.797L525.681 406.009ZM613.16 444.384L613.167 458.58L625.599 457.438L613.16 444.384ZM661.442 477.384L653.541 485.561L663.539 488.291C663.015 486.872 662.191 482.613 661.382 477.713L661.442 477.384ZM648.562 480.618L652.21 484.471L650.953 479.421L648.562 480.618ZM654.732 477.492L653.421 484.725L661.322 476.547L660.992 474.246L654.732 477.492ZM651.55 479.122L652.27 484.142L653.403 477.896L651.55 479.122ZM635.227 467.266L647.785 480.409L650.474 479.063L644.606 456.741L638.644 457.596L635.227 467.266ZM626.615 457.826L634.539 466.19L637.687 456.879L626.615 457.826ZM645.158 456.128L650.892 478.256L653.671 476.79L657.575 454.882L645.158 456.128ZM613.533 444.01L626.107 457.258L637.821 455.579L639.686 449.974L613.533 444.01ZM658.069 456.839L654.582 476.446L660.543 473.35L658.069 456.839ZM661.246 473.783L661.53 475.77L665.623 471.554L661.246 473.783ZM640.628 450.587L638.748 456.087L644.396 455.277L643.781 450.989L640.628 450.587ZM644.065 451.482L644.65 455.561L655.184 454.584L644.065 451.482ZM642.045 446.327L640.852 449.914L643.079 450.556L642.045 446.327Z" fill="#FF8383"/>
<path d="M491.171 510.759L485.898 455.369C488.156 456.966 516.691 476.572 545.152 496.402L557.807 493.094L550.907 500.06C576.498 517.74 600.624 535.63 602.927 538.288C600.729 535.615 576.692 518.353 550.922 500.165L528.638 522.68L550.832 500.285L545.72 496.641L491.813 510.774C491.813 510.774 491.186 510.864 491.171 510.759ZM486.601 455.802L491.604 510.056L544.524 495.745C517.767 477.379 490.996 458.908 486.601 455.802ZM557.135 493.617L546.228 496.461L550.981 499.836L557.135 493.617Z" fill="#FF8383"/>
<path d="M308.63 422.822L207.324 131.636L141.241 211.986L140.718 212.061L207.234 131.009L308.54 422.194L369.482 342.474L308.63 422.822Z" fill="#FF8383"/>
<path d="M308.63 422.822L323.537 290.032L208.454 333.857L208.004 268.915L141.72 213.092L134.566 280.084L140.614 212.076L207.511 268.452L208.036 333.169L323.642 289.27L319.178 268.562L366.995 298.319L323.941 289.868L308.63 422.822L472.987 424.13L486.479 422.196L513.346 451.755L557.896 492.975L584.014 519.545L644.755 515.854L602.657 538.648L583.969 519.979L528.204 523.383L513.54 452.367L486.346 456.266L492.481 443.218L487.137 423.81L473.854 425.714L308.63 422.822ZM514.706 452.307L529.1 522.187L584.028 518.903L558.927 492.72L514.706 452.307ZM487.989 423.047L493.093 441.529L487.212 454.114L513.36 450.365L487.989 423.047ZM585.613 519.53L603.777 538.274L644.187 516.363L585.613 519.53ZM319.986 268.98L324.344 289.703L365.351 297.274L319.986 268.98Z" fill="#FF8383"/>
<path d="M315.828 446.232L236.127 363.832L276.279 395.222L275.756 395.297L239.67 366.953L315.513 445.53L341.69 438.255L344.716 272.478L425.14 215.476L505.255 259.07L493.845 241.278L505.958 260.25L424.916 216.149L344.836 272.567L342.915 438.613L316.111 445.978C316.111 445.978 315.843 446.336 315.828 446.232Z" fill="#FF8383"/>
<path d="M422.644 393.881L389.674 350.04L369.886 343.057L383.625 324.969L368.946 314.158L324.135 290.48L369.065 314.247L383.744 325.059L389.404 317.629L423.611 352.967L384.327 323.908L370.872 341.741L390.316 348.56L423.182 392.416L481.011 392.986L554.817 401.511L552.418 384.777L621.343 402.435L621.658 374.85L577.758 377.622L621.957 374.701L621.553 403.152L552.732 385.479L555.116 402.109L480.876 393.539L422.823 392.895L422.644 393.881ZM389.538 317.076L384.162 324.251L420.666 351.041L389.538 317.076Z" fill="#FF8383"/>
<path d="M291.658 429.524L285.046 414.674L262.564 399.324L275.862 395.283L284.388 414.555L334.344 449.556L308.63 422.821L338.783 451.482L342.274 438.599L338.649 452.035L291.419 429.345L291.658 429.524ZM286.212 415.361L292.345 429.105L335.57 449.914L286.212 415.361ZM276.624 395.387L264.342 399.069L284.522 413.255L276.624 395.387Z" fill="#FF8383"/>
<path d="M291.658 429.525L369.956 454.486C372.153 455.665 461.887 490.408 465.952 491.96L538.29 461.202L465.997 491.527C462.156 490.049 372.078 455.142 369.762 453.873L291.479 429.017L291.658 429.525Z" fill="#FF8383"/>
<path d="M390.586 351.191L389.478 316.659L367.339 298.484C367.339 298.484 367.339 298.484 367.264 297.961L389.403 316.136L390.495 349.816L413.378 330.738L456.94 336.768L501.611 350.539L481.162 337.459L505.123 351.956L458.195 337.336L414.649 331.41L391.303 350.981L390.586 351.191Z" fill="#FF8383"/>
<path d="M473.046 424.549L472.971 424.026L513.405 451.427L472.867 424.041L473.046 424.549Z" fill="#FF8383"/>
<path d="M485.914 455.474C484.09 453.921 467.267 428.9 458.877 415.799L422.974 393.941L458.01 414.963L453.808 408.734L395.825 367.625L389.645 349.831L396.766 367.49L454.316 407.807L459.355 415.41L473.72 424.025L486.571 454.846L485.914 455.474ZM459.939 416.501C469.046 430.139 480.71 447.467 484.926 453.054L473.018 424.339L459.939 416.501Z" fill="#FF8383"/>
<path d="M561.591 532.153L596.962 504.88C583.784 501.919 570.782 498.224 558.016 493.812C571.073 497.871 584.344 501.207 597.769 503.804L612.273 492.545L598.247 503.415C615.523 507.77 634.218 512.348 645.053 514.958C636.581 516.172 562.741 531.241 561.322 531.018L561.591 532.153ZM597.874 504.536L562.906 530.897C570.959 529.743 617.247 520.545 643.604 515.272C637.821 514.393 617.377 509.532 597.874 504.536Z" fill="#FF8383"/>
<path d="M236.128 363.832C238.639 364.22 383.153 460.171 399.61 470.727L490.781 511.028C493.143 511.864 596.858 537.664 602.403 539.11L619.307 517.047L613.289 494.426L619.128 516.539L629.686 503.07L626.374 544L619.397 517.674L603.404 538.647C598.965 537.468 493.964 511.639 491.454 510.505L400.283 470.204C344.976 433.621 239.7 364.174 237.025 363.384L236.128 363.832ZM620.04 516.942L626.612 541.938L629.941 504.848L620.04 516.942Z" fill="#FF8383"/>
<path d="M343.007 439.241L311.985 346.447L207.646 268.646L287.952 275.6L311.461 345.775L395.695 408.418L422.226 393.941L425.278 430.863L507.732 492.267L538.29 461.201L574.131 477.411C578.21 476.826 583.126 476.869 588.625 476.507L589.102 473.13L558.073 457.724L513.615 452.143L506.223 431.854L558.177 457.709L590.785 461.788L589.355 472.667L595.902 475.891L605.611 469.162L582.781 443.188L634.158 450.873L642.15 445.564C642.972 446.087 646.68 449.612 650.91 453.808L658.128 455.015L651.897 453.987C658.879 460.992 667.146 469.52 667.654 470.088C665.563 470.388 639.16 472.358 613.28 474.254L627.304 490.176L596.948 474.994L589.06 480.288L589.566 475.625C584.859 476.3 580.362 476.198 576.551 476.424L587.985 481.723L604.92 491.143L613.138 491.139L620.465 499.802L645.979 513.971L646.054 514.494L640.186 523.447L646.137 530.706L627.434 542.461L638.902 524.912L619.554 501.641L604.039 493.191L590.486 493.212L604.046 537.915L590.352 493.018L583 493.111L562.727 531.883L509.81 492.61L492.022 510.744C489.645 509.804 433.047 489.524 431.313 488.599L426.488 431.116L397.085 409.18L343.007 439.241ZM312.882 347.492L343.53 439.166L396.084 409.643L312.882 347.492ZM426.877 432.341L431.582 488.987C435.229 490.599 487.912 509.625 491.843 510.983L508.734 493.298L426.877 432.341ZM287.548 275.764L208.751 268.914L310.684 344.819L287.548 275.764ZM421.957 394.299L396.263 408.657L424.949 430.056L421.957 394.299ZM537.768 462.023L508.719 492.446L561.172 531.466L581.117 493.381L558.33 493.766L562.013 477.761C565.346 477.93 568.689 477.844 572.009 477.502L537.768 462.023ZM562.416 478.343L558.18 492.72L581.446 492.694L586.133 483.696L573.578 478.024C568.274 478.251 564.239 478.402 562.939 478.268L562.416 478.343ZM638.812 525.779L627.524 543.088L644.569 532.426L638.812 525.779ZM506.896 432.078L514.033 451.335L556.204 456.604L506.896 432.078ZM587.12 484.622L582.761 492.932L589.59 492.914L587.12 484.622ZM587.747 484.532L590.352 493.018L602.829 492.937L587.747 484.532ZM621.273 503.209L639.32 524.852L644.934 516.362L621.273 503.209ZM589.403 477.463L588.896 481.379L595.529 477.012C593.362 476.789 591.345 476.865 589.343 477.045L589.403 477.463ZM612.422 493.59L605.489 493.623L618.373 500.849L612.422 493.59ZM590.501 462.042L560.285 458.261L589.251 472.682L590.501 462.042ZM589.834 473.772L589.507 476.701C591.285 476.446 593.168 476.176 595.05 475.906L589.834 473.772ZM612.548 475.853C607.632 476.558 602.507 476.545 597.755 476.906L625.69 490.834L612.548 475.853ZM607.315 469.878L597.546 476.189C601.939 475.559 606.75 475.617 611.502 475.256L607.315 469.878ZM607.943 469.788L612.907 475.375C637.307 473.584 662.425 471.585 667.072 471.239L651.075 454.959L634.338 452.128L607.943 469.788ZM585.352 443.993L607.554 469.311L632.903 451.053L585.352 443.993ZM642.389 446.491L635.174 451.261L650.163 453.809C646.56 450.269 643.585 447.387 642.494 446.476L642.389 446.491Z" fill="#FF8383"/>
<path d="M626.886 491.731L612.593 444.146L626.782 491.746L626.886 491.731Z" fill="#FF8383"/>
<path d="M276.415 395.417L276.938 395.342L343.007 439.241L466.236 492.452C468.15 493.885 519.356 518.994 527.621 523.039C521.012 512.672 486.288 458.088 486.003 456.101C486.303 458.193 516.615 505.084 528.264 523.801C525.738 522.562 467.657 494.17 465.624 492.646L343.007 439.241L276.729 395.372L276.415 395.417Z" fill="#FF8383"/>
<path d="M187.364 141.329L122.469 84.0254L184.912 139.119L161.257 106.645C161.257 106.645 161.257 106.645 161.182 106.122L187.543 141.09L187.364 141.329Z" fill="#FF8383"/>
<path d="M140.718 212.061C144.469 212.911 252.108 164.07 295.073 143.607L187.573 141.299L296.881 142.814C281.269 150.069 144.843 213.284 140.598 211.972L140.718 212.061Z" fill="#FF8383"/>
<path d="M87.2305 257.409L140.823 212.047C142.034 213.047 155.838 237.86 170.705 264.87L207.271 268.274L317.919 168.939C276.476 155.347 210.149 133.473 206.875 131.487L327.463 161.06L318.86 168.804C337.108 174.727 350.2 178.935 350.544 179.099L318.805 268.189L276.938 395.343L248.522 346.046L237.981 364.102L224.534 306.788L246.878 345L287.473 275.242L246.893 345.105L275.308 394.402L319.223 268.129L350.798 179.383C348.213 178.473 335.674 174.399 319.099 168.983L208.079 268.692L171.841 265.347C189.145 296.704 207.571 330.675 208.917 333.364L171.571 264.959L87.4547 257.484C87.4547 257.484 87.3501 257.499 87.2305 257.409ZM140.928 212.032L88.276 256.512L170.271 264.078C155.614 237.786 142.961 215.049 140.928 212.032ZM225.431 307.833L236.635 362.16L246.922 344.567L225.431 307.833ZM327.299 160.656L212.121 132.336C228.247 138.35 283.036 156.434 318.979 168.147L327.299 160.656Z" fill="#FF8383"/>
<path d="M319.283 268.547L187.365 141.329C191.67 144.554 282.784 190.414 362.359 230.242L373.083 220.912L365.987 194.497C371.912 200.528 378.278 206.109 385.033 211.194L391.022 206.065L490.381 243.912L494.429 240.876L493.982 245.21L522.543 256.059L522.219 264.218L535.341 269.382L530.729 279.65L539.116 287.521L529.183 296.416L533.281 304.902L518.283 312.709L518.66 319.807L500.113 314.78L497.996 324.584L484.841 313.234L466.387 314.812C470.949 322.057 470.68 322.416 470.396 322.67C466.571 319.866 462.926 316.823 459.483 313.56L435.081 311.615L415.772 276.703L393.755 294.376L378.292 238.632C373.33 236.035 368.158 233.467 362.987 230.899L319.596 268.502L319.283 268.547ZM190.085 143.18L319.491 267.77L362.404 230.556C289.151 193.877 205.794 152.243 190.085 143.18ZM379.308 239.02L393.845 293.509L415.682 276.075L407.348 252.933L379.308 239.02ZM416.879 277.718L434.199 310.674L437.867 296.058L416.879 277.718ZM445.895 302.913L435.245 311.271L457.705 313.068L445.895 302.913ZM438.48 296.61L434.841 310.688L445.297 302.465L438.48 296.61ZM459.857 313.934C462.874 316.658 466.054 319.196 469.379 321.535C469.229 320.489 467.375 317.979 465.147 314.349L459.857 313.934ZM446.478 302.509L458.691 313.247L464.519 313.692C461.618 309.091 457.655 303.041 453.468 296.917L446.478 302.509ZM438.689 295.833L445.88 302.061L453.273 296.304C449.714 290.837 445.946 285.4 442.582 280.545L438.689 295.833ZM415.996 276.03L438.091 295.385L442.133 279.649L449.721 274.505C438.212 268.682 423.864 261.666 408.215 253.769L415.996 276.03ZM454.245 296.379L456.817 300.173C460.78 306.223 463.636 310.51 465.595 313.751L483.079 315.088L457.994 293.493L454.245 296.379ZM373.89 221.331L363.629 230.167L378.157 237.691L373.89 221.331ZM444.54 281.545L454.125 295.542L457.68 292.791L444.54 281.545ZM374.518 221.241L379.099 238.303C388.65 243.125 398.066 247.752 406.914 252.141L396.5 223.426L384.256 212.479L374.518 221.241ZM485.44 315.923L497.594 326.243L499.681 316.977L485.44 315.923ZM458.786 293.059L484.573 315.087L500.024 316.394L518.451 321.331L518.104 314.443L532.998 306.65L528.915 298.269L538.325 289.449L530.162 281.652L534.789 271.489L521.786 266.415L522.231 258.346L494.014 247.66L492.601 261.633L479.089 254.497L465.391 264.679L485.613 272.455L485.703 273.082L470.826 284.715L481.512 290.014L467.883 286.525L458.786 293.059ZM444.165 280.425L458.292 292.596L466.538 286.077L444.165 280.425ZM397.576 224.233L407.811 252.44L450.348 273.667L463.643 263.649L423.514 248.054C420.778 245.35 409.805 235.075 397.576 224.233ZM450.349 274.415L443.597 279.439L467.195 285.449L469.301 283.759L450.349 274.415ZM367.661 195.751L374.248 220.105L383.718 211.703C376.527 204.728 370.203 198.589 367.676 195.856L367.661 195.751ZM464.42 263.858L451.081 274.31C458.659 278.027 464.996 281.281 469.943 283.774L484.522 272.291L464.42 263.858ZM470.033 284.402L468.107 285.852L478.075 288.372L470.033 284.402ZM397.172 222.903C406.037 231.132 415.605 239.794 423.812 247.157L464.345 263.335L478.117 252.928L391.381 207.081L397.172 222.903ZM384.913 211.851L395.752 221.932L390.425 207.112L384.913 211.851ZM489.38 244.375L395.79 208.798L478.49 252.554L489.38 244.375ZM490.112 244.27L479.118 252.464L491.942 259.272L493.385 245.509L490.112 244.27ZM493.876 241.489L490.784 243.747L493.504 244.851L493.876 241.489Z" fill="#FF8383"/>
<path d="M393.443 294.422C395.371 295.213 492.947 325.843 497.416 327.231L518.061 314.878L497.311 327.246C493.171 325.918 395.161 295.243 393.233 294.452L393.443 294.422Z" fill="#FF8383"/>
<path d="M469.708 322.34L477.754 304.001L469.648 321.922L518.078 321.704L469.126 321.997L469.708 322.34Z" fill="#FF8383"/>
<path d="M434.244 311.735C426.695 305.986 242.635 134.473 234.712 126.856C236.685 128.708 426.681 305.881 434.14 311.75L434.215 312.273L434.244 311.735Z" fill="#FF8383"/>
<path d="M390.124 350.937C381.581 330.813 368.461 299.604 367.235 298.499L367.16 297.976C368.745 299.35 388.059 345.469 390.198 350.713C390.198 350.713 390.243 351.027 390.124 350.937Z" fill="#FF8383"/>
<path d="M368.003 281.522L423.334 247.544L367.898 281.537C367.898 281.537 368.018 281.626 368.003 281.522Z" fill="#FF8383"/>
<path d="M480.931 289.669L366.736 194.495L481.603 289.146L480.931 289.669Z" fill="#FF8383"/>
<path d="M522.25 265.174L494.28 241.325L494.803 241.25L522.788 265.204L522.25 265.174Z" fill="#FF8383"/>
<path d="M533.552 306.784L530.924 281.009L533.567 306.888L533.552 306.784Z" fill="#FF8383"/>
<path d="M630.455 549.393L645.217 516.109C645.217 516.109 645.217 516.108 645.292 516.631L630.619 549.797L630.455 549.393Z" fill="#FF8383"/>
<path d="M562.612 361.326L576.611 356.223L530.815 334.609L576.671 356.642L562.194 361.386L562.612 361.326Z" fill="#FF8383"/>
<path d="M140.719 212.061L263.628 131.25L165.32 161.781L265.914 130.068L140.928 212.031C140.86 212.053 140.79 212.063 140.719 212.061Z" fill="#FF8383"/>
<path d="M163.347 162.919C164.99 161.723 283.419 144.958 296.911 143.024C251.727 149.502 165.752 161.827 163.646 162.769C163.561 162.845 163.458 162.897 163.347 162.919Z" fill="#FF8383"/>
<path d="M410.362 365.541C410.362 365.541 439.61 377.465 454.302 383.151C452.329 382.794 412.17 366.989 410.362 365.541Z" fill="#FF8383"/>
</g>
</svg>
