<svg width="195" height="131" viewBox="0 0 195 131" fill="none" xmlns="http://www.w3.org/2000/svg">
<g clip-path="url(#clip0_346_5649)">
<path d="M155.256 34.121C154.476 34.1056 153.706 34.2929 153.021 34.6646C152.336 35.0364 151.759 35.5797 151.347 36.2415C150.935 36.9033 150.702 37.6608 150.671 38.4397C150.639 39.2187 150.811 39.9923 151.169 40.6849L131.464 60.1914C133.314 55.7837 134.264 51.0505 134.257 46.2703C134.257 45.9094 134.257 45.5518 134.237 45.1942L131.458 47.9446C131.062 55.9255 127.806 63.4973 122.286 69.275L120.836 70.7087C118.619 72.7683 116.133 74.5181 113.447 75.9104L108.651 80.8391C109.685 80.5226 110.697 80.1628 111.688 79.7597L111.759 79.7304C115.866 78.0477 119.627 75.6231 122.855 72.5781L122.881 72.5553C123.315 72.1522 123.733 71.7382 124.136 71.3134L124.159 71.2906L153.11 42.6356C153.72 42.95 154.394 43.1191 155.08 43.1298C156.259 43.1284 157.39 42.6647 158.231 41.8383C159.072 41.0119 159.555 39.8887 159.577 38.7099C159.599 37.5312 159.157 36.3909 158.347 35.5341C157.538 34.6773 156.424 34.1723 155.246 34.1275L155.256 34.121ZM155.139 40.3696C154.793 40.3631 154.457 40.2542 154.173 40.0567C153.889 39.8591 153.67 39.5819 153.543 39.2599C153.417 38.9379 153.389 38.5856 153.463 38.2477C153.536 37.9097 153.709 37.6013 153.958 37.3612C154.207 37.1212 154.522 36.9605 154.862 36.8993C155.203 36.8381 155.553 36.8793 155.871 37.0175C156.188 37.1558 156.457 37.385 156.643 37.6761C156.83 37.9672 156.927 38.3072 156.92 38.653C156.911 39.1166 156.718 39.5576 156.384 39.8794C156.05 40.2012 155.602 40.3774 155.139 40.3696Z" fill="white"/>
<path d="M130.147 36.8677L132.348 34.6895C130.802 30.1557 128.375 25.9726 125.205 22.3815C122.035 18.7903 118.186 15.8621 113.879 13.7655L118.967 8.56381C119.927 9.03256 121.024 9.14287 122.059 8.87488C123.094 8.6069 123.999 7.97823 124.611 7.1021C125.224 6.22596 125.503 5.15994 125.399 4.09603C125.296 3.03211 124.815 2.04021 124.045 1.29897C123.275 0.557732 122.265 0.115866 121.198 0.0529484C120.131 -0.00996897 119.076 0.310194 118.224 0.955787C117.372 1.60138 116.779 2.52996 116.551 3.57431C116.323 4.61866 116.475 5.71014 116.98 6.65218L111.18 12.5854C108.009 11.3493 104.678 10.5721 101.287 10.2771L98.7319 12.9008C102.254 12.9617 105.744 13.5828 109.07 14.7409L102.181 21.7697H106.034L111.84 15.83C116.222 17.8182 120.125 20.7261 123.284 24.356C126.443 27.986 128.783 32.2531 130.147 36.8677ZM120.95 2.75413C121.296 2.75413 121.634 2.85671 121.922 3.0489C122.209 3.24109 122.433 3.51427 122.566 3.83387C122.698 4.15347 122.733 4.50515 122.665 4.84444C122.598 5.18372 122.431 5.49539 122.187 5.74C121.942 5.98461 121.63 6.1512 121.291 6.21868C120.952 6.28617 120.6 6.25154 120.28 6.11915C119.961 5.98677 119.688 5.76258 119.496 5.47495C119.303 5.18731 119.201 4.84915 119.201 4.50322C119.201 4.03933 119.385 3.59444 119.713 3.26642C120.041 2.9384 120.486 2.75413 120.95 2.75413Z" fill="white"/>
<path d="M74.1638 23.0214L74.2776 22.9076L75.0481 22.1468C77.4063 19.894 80.0795 17.9961 82.984 16.5127L87.7468 11.6426C82.2378 13.296 77.2054 16.2459 73.0714 20.2449L72.4212 20.8789L41.6302 51.3513C40.674 50.8601 39.5738 50.7267 38.528 50.9751C37.4821 51.2234 36.5594 51.8372 35.9261 52.7058C35.2928 53.5744 34.9907 54.6407 35.0742 55.7124C35.1576 56.7841 35.6212 57.7907 36.3813 58.5508C37.1414 59.3109 38.148 59.7745 39.2197 59.8579C40.2914 59.9414 41.3577 59.6393 42.2263 59.006C43.0949 58.3727 43.7087 57.45 43.9571 56.4041C44.2054 55.3583 44.072 54.2581 43.5808 53.3019L64.7746 32.3162C62.92 36.7331 61.9671 41.4762 61.9722 46.2666C61.9722 46.5917 61.9722 46.9168 61.9722 47.2419L64.7584 44.4818C65.1894 36.4249 68.5317 28.7987 74.1638 23.0214ZM39.5365 57.1057C39.1905 57.0992 38.8542 56.9902 38.5702 56.7925C38.2862 56.5949 38.0671 56.3174 37.9409 55.9952C37.8146 55.673 37.7867 55.3206 37.8608 54.9826C37.9349 54.6446 38.1075 54.3361 38.3569 54.0962C38.6064 53.8564 38.9213 53.6959 39.262 53.6351C39.6027 53.5743 39.9537 53.6159 40.2707 53.7546C40.5877 53.8934 40.8564 54.1231 41.0429 54.4146C41.2293 54.7061 41.3251 55.0464 41.3181 55.3924C41.3138 55.6219 41.2644 55.8484 41.1725 56.0588C41.0806 56.2692 40.9482 56.4595 40.7827 56.6186C40.6172 56.7778 40.4219 56.9027 40.2081 56.9863C39.9942 57.0699 39.766 57.1105 39.5365 57.1057Z" fill="white"/>
<path d="M86.9018 77.714L92.5749 71.8913L90.6015 69.9699L84.1514 76.5891C79.8332 74.5908 75.9894 71.697 72.8752 68.0996C69.7609 64.5022 67.4475 60.2835 66.0884 55.7236L63.8906 57.8986C66.9915 66.9597 73.5453 74.4295 82.126 78.6828L75.8416 85.1329C74.8769 84.66 73.775 84.5473 72.7346 84.8151C71.6941 85.083 70.7837 85.7138 70.1673 86.5938C69.5509 87.4738 69.2693 88.545 69.3731 89.6143C69.477 90.6837 69.9595 91.6807 70.7336 92.4257C71.5078 93.1706 72.5226 93.6145 73.5951 93.6772C74.6677 93.7398 75.7273 93.4172 76.583 92.7675C77.4386 92.1178 78.034 91.1838 78.2617 90.1338C78.4894 89.0839 78.3344 87.9871 77.8248 87.0413L84.8049 79.8889C88.0617 81.1812 91.4899 81.9906 94.9807 82.2915L97.5361 79.6679C93.9083 79.6027 90.3158 78.9427 86.9018 77.714ZM73.8617 90.9133C73.5158 90.9133 73.1776 90.8108 72.89 90.6186C72.6023 90.4264 72.3781 90.1532 72.2458 89.8336C72.1134 89.514 72.0787 89.1623 72.1462 88.823C72.2137 88.4837 72.3803 88.1721 72.6249 87.9275C72.8695 87.6829 73.1812 87.5163 73.5205 87.4488C73.8598 87.3813 74.2114 87.4159 74.531 87.5483C74.8507 87.6807 75.1238 87.9049 75.316 88.1925C75.5082 88.4802 75.6108 88.8183 75.6108 89.1643C75.6099 89.6279 75.4254 90.0723 75.0975 90.4001C74.7697 90.7279 74.3253 90.9125 73.8617 90.9133Z" fill="white"/>
<path d="M66.7446 51.0555L81.6606 62.1677L95.5492 72.5094L95.741 72.6525H95.9524L96.1409 72.2298L107.77 46.1724L107.829 46.0456L107.955 45.7595L122.208 13.8079L66.7446 51.0555ZM107.63 45.4441L95.7248 72.103L81.9337 61.8296L67.4761 51.062L121.233 14.9848L107.63 45.4441Z" fill="white"/>
<path d="M121.226 14.9844L121.223 14.9941L81.9336 61.839L67.4761 51.0714L121.226 14.9844Z" fill="url(#paint0_linear_346_5649)"/>
<path d="M121.223 14.9941L107.63 45.4438L95.7247 72.1124L81.9336 61.839L121.223 14.9941Z" fill="url(#paint1_linear_346_5649)"/>
<path style="mix-blend-mode:screen" d="M117.162 19.8057C115.726 21.597 114.269 23.3819 112.822 25.1472L108.446 30.4595C105.52 33.9999 102.594 37.5143 99.6457 41.0417C96.6969 44.5692 93.7384 48.0673 90.767 51.5623L86.3032 56.7997C84.8012 58.5358 83.3122 60.2817 81.8037 62.0015C83.2407 60.2134 84.6972 58.4415 86.1439 56.66L90.5166 51.3477C93.4426 47.8073 96.3848 44.2928 99.3206 40.7654C102.256 37.238 105.225 33.7398 108.199 30.2449L112.663 25.0074C114.162 23.2778 115.651 21.5352 117.162 19.8057Z" fill="url(#paint2_linear_346_5649)"/>
<path d="M107.952 45.7594L107.627 45.4343L95.7218 72.0932L95.543 72.4898L95.7348 72.6329H122.241L128.33 65.7081L107.952 45.7594ZM122.049 72.2297H96.1347L107.767 46.1723L108.04 46.4389L127.735 65.7471L122.049 72.2297Z" fill="#FFAFAF"/>
<path d="M127.748 65.7467L122.046 72.2293H122.029L108.04 46.4385L127.748 65.7467Z" fill="url(#paint3_linear_346_5649)"/>
<path d="M122.029 72.2293H96.1377L107.767 46.1719L108.04 46.4385L122.029 72.2293Z" fill="url(#paint4_linear_346_5649)"/>
<path style="mix-blend-mode:screen" d="M108.931 48.0283C109.993 49.8229 111.032 51.6316 112.048 53.4544C113.065 55.2772 114.067 57.1043 115.056 58.9357C116.031 60.7726 117.026 62.6094 117.982 64.4625C118.938 66.3157 121.119 70.3568 122.039 72.2294C120.976 70.4348 118.707 66.4392 117.689 64.6186C116.671 62.798 115.67 60.9709 114.679 59.1373C113.687 57.3037 112.708 55.4603 111.753 53.6104C110.797 51.7606 109.854 49.9009 108.931 48.0283Z" fill="url(#paint5_linear_346_5649)"/>
<path d="M107.767 46.1719L96.7814 72.2293H96.1377L107.767 46.1719Z" fill="url(#paint6_linear_346_5649)"/>
<path d="M0 129.731V125.622H1.5085C1.75789 125.614 2.0058 125.663 2.23349 125.765C2.41233 125.848 2.56194 125.983 2.66263 126.152C2.75835 126.319 2.80773 126.509 2.80568 126.701C2.81017 126.851 2.77779 126.999 2.7114 127.134C2.65103 127.247 2.56401 127.344 2.45782 127.417C2.35264 127.487 2.23604 127.539 2.1132 127.569V127.612C2.25554 127.619 2.39338 127.664 2.51309 127.742C2.64813 127.828 2.7598 127.946 2.8382 128.086C2.92713 128.253 2.97085 128.44 2.96499 128.629C2.96833 128.828 2.91776 129.023 2.81869 129.195C2.71056 129.369 2.55176 129.507 2.36353 129.588C2.11522 129.694 1.84659 129.744 1.57677 129.735L0 129.731ZM0.620953 127.397H1.45324C1.58313 127.399 1.71184 127.372 1.83036 127.319C1.93768 127.268 2.02963 127.189 2.09695 127.091C2.16466 126.989 2.1998 126.869 2.19773 126.747C2.19896 126.667 2.18371 126.588 2.15294 126.515C2.12216 126.442 2.07653 126.376 2.01892 126.321C1.86609 126.192 1.66862 126.129 1.46949 126.145H0.617704L0.620953 127.397ZM0.620953 129.201H1.51826C1.74929 129.226 1.98115 129.163 2.16847 129.026C2.23056 128.973 2.28003 128.907 2.31323 128.833C2.34643 128.759 2.36251 128.678 2.36029 128.597C2.36155 128.471 2.32778 128.347 2.26275 128.239C2.1955 128.128 2.09869 128.038 1.98316 127.979C1.8495 127.911 1.7008 127.877 1.55076 127.881H0.617704L0.620953 129.201Z" fill="white"/>
<path d="M6.17377 128.453V126.646H6.77522V129.731H6.18352V129.198H6.14451C6.07235 129.364 5.95385 129.506 5.80314 129.607C5.63164 129.723 5.42785 129.781 5.2212 129.773C5.03693 129.776 4.85517 129.73 4.69452 129.64C4.53992 129.547 4.41565 129.412 4.3369 129.25C4.24392 129.046 4.1994 128.824 4.20686 128.6V126.649H4.80831V128.548C4.79911 128.731 4.86213 128.911 4.98387 129.048C5.042 129.11 5.11265 129.159 5.19113 129.192C5.26961 129.224 5.35412 129.24 5.43902 129.237C5.56175 129.236 5.68221 129.204 5.7895 129.144C5.89679 129.084 5.98752 128.999 6.05348 128.895C6.13748 128.764 6.17943 128.61 6.17377 128.453Z" fill="white"/>
<path d="M8.44972 126.171C8.40033 126.172 8.35122 126.163 8.30539 126.145C8.25956 126.126 8.21796 126.098 8.18313 126.063C8.14574 126.033 8.1156 125.995 8.09491 125.951C8.07421 125.907 8.06348 125.86 8.06348 125.812C8.06348 125.763 8.07421 125.716 8.09491 125.672C8.1156 125.628 8.14574 125.59 8.18313 125.56C8.21796 125.525 8.25956 125.497 8.30539 125.478C8.35122 125.46 8.40033 125.451 8.44972 125.452C8.49955 125.451 8.54906 125.46 8.59538 125.479C8.6417 125.497 8.6839 125.525 8.71956 125.56C8.75455 125.592 8.78249 125.63 8.80161 125.674C8.82073 125.717 8.8306 125.764 8.8306 125.812C8.8306 125.859 8.82073 125.906 8.80161 125.949C8.78249 125.993 8.75455 126.031 8.71956 126.063C8.6839 126.098 8.6417 126.126 8.59538 126.144C8.54906 126.163 8.49955 126.172 8.44972 126.171ZM8.14737 129.731V126.645H8.74557V129.731H8.14737Z" fill="white"/>
<path d="M10.7221 125.622V129.735H10.1206V125.622H10.7221Z" fill="white"/>
<path d="M13.2481 129.793C13.0174 129.794 12.7914 129.727 12.5979 129.601C12.3967 129.465 12.2379 129.274 12.1395 129.052C11.9183 128.502 11.9183 127.888 12.1395 127.339C12.2398 127.118 12.3997 126.93 12.6011 126.796C12.7998 126.668 13.0317 126.603 13.2676 126.607C13.4269 126.6 13.5854 126.633 13.7293 126.701C13.8347 126.757 13.9276 126.833 14.0024 126.926C14.0593 126.995 14.1104 127.069 14.1552 127.147H14.1909V125.622H14.7924V129.735H14.2039V129.257H14.1552C14.1097 129.336 14.0575 129.411 13.9991 129.481C13.9225 129.574 13.8273 129.649 13.7195 129.702C13.5724 129.771 13.4104 129.803 13.2481 129.793ZM13.3814 129.28C13.5388 129.284 13.6933 129.236 13.8203 129.143C13.9465 129.044 14.0414 128.911 14.0934 128.759C14.1592 128.577 14.1911 128.384 14.1877 128.19C14.1922 127.999 14.1613 127.808 14.0966 127.628C14.0437 127.479 13.9489 127.348 13.8235 127.251C13.6945 127.16 13.5393 127.113 13.3814 127.118C13.2192 127.111 13.0598 127.161 12.9295 127.257C12.8046 127.357 12.7101 127.49 12.6564 127.641C12.5947 127.818 12.5639 128.003 12.5654 128.19C12.5633 128.38 12.5952 128.568 12.6597 128.746C12.7124 128.899 12.807 129.035 12.9328 129.136C13.0607 129.236 13.2197 129.286 13.3814 129.28Z" fill="white"/>
<path d="M16.5025 126.171C16.4531 126.172 16.404 126.163 16.3581 126.145C16.3123 126.126 16.2707 126.098 16.2359 126.063C16.1985 126.033 16.1683 125.995 16.1476 125.951C16.1269 125.907 16.1162 125.86 16.1162 125.812C16.1162 125.763 16.1269 125.716 16.1476 125.672C16.1683 125.628 16.1985 125.59 16.2359 125.56C16.2707 125.525 16.3123 125.497 16.3581 125.478C16.404 125.46 16.4531 125.451 16.5025 125.452C16.5523 125.451 16.6018 125.46 16.6481 125.479C16.6944 125.497 16.7366 125.525 16.7723 125.56C16.8073 125.592 16.8352 125.63 16.8543 125.674C16.8735 125.717 16.8833 125.764 16.8833 125.812C16.8833 125.859 16.8735 125.906 16.8543 125.949C16.8352 125.993 16.8073 126.031 16.7723 126.063C16.7366 126.098 16.6944 126.126 16.6481 126.144C16.6018 126.163 16.5523 126.172 16.5025 126.171ZM16.2001 129.731V126.645H16.8015V129.731H16.2001Z" fill="white"/>
<path d="M18.7748 127.897V129.728H18.1733V126.642H18.7488V127.146H18.7878C18.8538 126.985 18.9672 126.848 19.1129 126.753C19.2857 126.647 19.486 126.595 19.6883 126.603C19.8807 126.599 20.071 126.643 20.241 126.733C20.3999 126.824 20.5279 126.96 20.6084 127.124C20.7024 127.327 20.747 127.55 20.7385 127.774V129.724H20.137V127.836C20.1478 127.645 20.0863 127.457 19.9647 127.309C19.9027 127.245 19.8277 127.195 19.7447 127.162C19.6616 127.13 19.5726 127.115 19.4835 127.12C19.3541 127.117 19.2262 127.149 19.1129 127.211C19.0037 127.273 18.9145 127.364 18.8561 127.475C18.7947 127.607 18.7668 127.752 18.7748 127.897Z" fill="white"/>
<path d="M23.4112 130.953C23.1968 130.958 22.9833 130.925 22.7805 130.855C22.6207 130.801 22.4736 130.715 22.3481 130.602C22.2435 130.503 22.1595 130.385 22.101 130.254L22.6179 130.039C22.659 130.107 22.7069 130.17 22.7609 130.228C22.8315 130.301 22.9168 130.359 23.0113 130.397C23.1401 130.449 23.2787 130.474 23.4177 130.468C23.6192 130.476 23.8179 130.418 23.9834 130.303C24.0599 130.239 24.1199 130.158 24.1584 130.066C24.1969 129.975 24.2127 129.875 24.2044 129.776V129.168H24.1687C24.1216 129.245 24.0694 129.319 24.0126 129.389C23.9337 129.476 23.8387 129.546 23.733 129.597C23.589 129.661 23.4321 129.691 23.2746 129.685C23.0463 129.688 22.8215 129.628 22.6244 129.513C22.4241 129.393 22.2635 129.216 22.1627 129.005C22.0421 128.746 21.9842 128.462 21.9937 128.176C21.9858 127.887 22.0424 127.599 22.1595 127.334C22.2585 127.114 22.4187 126.927 22.6211 126.795C22.8199 126.668 23.0518 126.602 23.2876 126.606C23.4479 126.6 23.6073 126.632 23.7525 126.7C23.8579 126.756 23.9509 126.832 24.0256 126.925C24.0846 126.993 24.1369 127.067 24.1817 127.146H24.2239V126.645H24.8124V129.799C24.8275 130.022 24.7688 130.243 24.6455 130.43C24.5221 130.616 24.3408 130.756 24.1297 130.829C23.9 130.915 23.6563 130.957 23.4112 130.953ZM23.4112 129.188C23.5661 129.191 23.7187 129.15 23.8501 129.067C23.9746 128.981 24.0698 128.858 24.1231 128.716C24.1909 128.542 24.2229 128.356 24.2174 128.17C24.2214 127.983 24.1906 127.796 24.1264 127.621C24.0733 127.473 23.9784 127.344 23.8533 127.25C23.7245 127.158 23.5692 127.111 23.4112 127.117C23.249 127.11 23.0896 127.16 22.9593 127.256C22.8346 127.353 22.7408 127.484 22.6894 127.634C22.6249 127.805 22.5929 127.987 22.5951 128.17C22.592 128.351 22.624 128.531 22.6894 128.7C22.7435 128.843 22.8385 128.968 22.9625 129.057C23.0916 129.149 23.2463 129.198 23.4047 129.197L23.4112 129.188Z" fill="white"/>
<path d="M29.1363 129.799C28.954 129.802 28.7733 129.765 28.6064 129.692C28.4536 129.621 28.324 129.508 28.2325 129.367C28.1376 129.213 28.0901 129.034 28.096 128.853C28.0896 128.704 28.1244 128.555 28.1967 128.424C28.2608 128.312 28.3541 128.22 28.4666 128.157C28.5854 128.089 28.7136 128.039 28.847 128.008C28.9896 127.975 29.1339 127.95 29.2794 127.933L29.728 127.878C29.8153 127.873 29.9005 127.849 29.9783 127.81C30.0043 127.793 30.0253 127.77 30.039 127.742C30.0528 127.715 30.0588 127.684 30.0564 127.654C30.0609 127.579 30.0502 127.505 30.0251 127.435C29.9999 127.365 29.9608 127.301 29.9101 127.247C29.8504 127.195 29.7808 127.155 29.7054 127.13C29.63 127.105 29.5504 127.095 29.4712 127.101C29.3011 127.092 29.1328 127.14 28.9933 127.237C28.8883 127.313 28.8053 127.415 28.7527 127.533L28.1902 127.403C28.2469 127.229 28.3477 127.072 28.4828 126.948C28.6127 126.833 28.7657 126.746 28.9315 126.694C29.1032 126.642 29.2819 126.616 29.4614 126.616C29.5937 126.617 29.7255 126.631 29.8548 126.659C29.9936 126.687 30.1259 126.741 30.2449 126.818C30.3707 126.899 30.4737 127.011 30.544 127.143C30.6283 127.314 30.6686 127.503 30.6611 127.693V129.741H30.0726V129.321H30.0499C30.0048 129.407 29.9454 129.484 29.8743 129.549C29.7872 129.629 29.6857 129.692 29.5752 129.734C29.4348 129.785 29.2855 129.807 29.1363 129.799ZM29.2664 129.318C29.4154 129.322 29.563 129.289 29.6955 129.221C29.8076 129.16 29.901 129.07 29.9653 128.961C30.0242 128.862 30.0567 128.75 30.0596 128.635V128.223C30.0225 128.25 29.9806 128.27 29.9361 128.281C29.8743 128.297 29.806 128.314 29.728 128.327L29.5004 128.362L29.3151 128.385C29.2043 128.398 29.0953 128.423 28.99 128.46C28.9027 128.49 28.8245 128.541 28.7624 128.609C28.7024 128.682 28.6722 128.775 28.6779 128.869C28.676 128.933 28.6899 128.996 28.7182 129.053C28.7466 129.109 28.7886 129.158 28.8405 129.195C28.9662 129.279 29.115 129.322 29.2664 129.318Z" fill="white"/>
<path d="M35.4692 129.731H34.1362V125.622H35.5114C35.8729 125.611 36.2307 125.697 36.5485 125.869C36.8369 126.03 37.0693 126.275 37.215 126.571C37.3694 126.919 37.4492 127.295 37.4492 127.675C37.4492 128.055 37.3694 128.431 37.215 128.779C37.0653 129.077 36.8298 129.324 36.5388 129.488C36.2093 129.66 35.8408 129.744 35.4692 129.731ZM34.7539 129.198H35.4334C35.7046 129.207 35.9733 129.145 36.2137 129.019C36.4202 128.902 36.5832 128.72 36.6786 128.502C36.79 128.242 36.8432 127.96 36.8346 127.677C36.8424 127.395 36.7903 127.114 36.6818 126.854C36.5867 126.639 36.4263 126.459 36.2234 126.34C35.9912 126.219 35.7313 126.159 35.4692 126.168H34.7539V129.198Z" fill="white"/>
<path d="M40.0665 129.792C39.7925 129.8 39.5215 129.732 39.283 129.597C39.0643 129.466 38.8882 129.274 38.7758 129.045C38.6526 128.784 38.5914 128.498 38.597 128.209C38.5921 127.921 38.6533 127.635 38.7758 127.374C38.8852 127.137 39.062 126.938 39.2841 126.801C39.5062 126.665 39.7637 126.597 40.0243 126.606C40.1968 126.606 40.3682 126.635 40.5314 126.691C40.6952 126.75 40.8447 126.843 40.9703 126.964C41.1078 127.098 41.2134 127.261 41.2792 127.442C41.3586 127.672 41.396 127.914 41.3897 128.157V128.368H38.9384V127.92H40.8013C40.8035 127.773 40.7712 127.629 40.707 127.497C40.6435 127.373 40.5456 127.27 40.4251 127.2C40.3046 127.131 40.1666 127.097 40.0275 127.104C39.872 127.099 39.7187 127.142 39.5886 127.227C39.4648 127.308 39.3649 127.42 39.2993 127.552C39.2316 127.685 39.1971 127.832 39.1985 127.982V128.333C39.1929 128.514 39.2296 128.694 39.3058 128.859C39.3737 128.995 39.4799 129.108 39.6114 129.184C39.7527 129.262 39.9119 129.301 40.073 129.298C40.1834 129.301 40.2934 129.284 40.3981 129.249C40.4893 129.218 40.5725 129.167 40.642 129.1C40.7112 129.032 40.7645 128.95 40.798 128.859L41.3669 128.96C41.324 129.125 41.2401 129.276 41.1231 129.399C40.9986 129.527 40.8477 129.627 40.681 129.692C40.4844 129.764 40.2759 129.798 40.0665 129.792Z" fill="white"/>
<path d="M43.9255 129.793C43.6545 129.801 43.387 129.731 43.1549 129.591C42.9393 129.454 42.7677 129.258 42.6608 129.026C42.5397 128.769 42.4796 128.487 42.4852 128.203C42.4806 127.917 42.5418 127.633 42.664 127.374C42.7732 127.142 42.9457 126.946 43.1614 126.808C43.3898 126.671 43.6525 126.601 43.919 126.607C44.1352 126.603 44.3496 126.647 44.5464 126.737C44.7234 126.817 44.8768 126.941 44.9918 127.098C45.105 127.259 45.1744 127.447 45.1934 127.644H44.6082C44.5769 127.499 44.4994 127.367 44.3871 127.27C44.2601 127.161 44.0959 127.105 43.9287 127.114C43.7724 127.111 43.619 127.156 43.4898 127.244C43.3598 127.339 43.2586 127.469 43.1972 127.618C43.1246 127.8 43.0892 127.994 43.0932 128.19C43.089 128.389 43.1243 128.587 43.1972 128.772C43.2559 128.924 43.3562 129.055 43.4866 129.152C43.5968 129.225 43.7232 129.27 43.8548 129.282C43.9863 129.295 44.1189 129.275 44.2408 129.224C44.3314 129.181 44.4114 129.119 44.4749 129.042C44.5397 128.957 44.5852 128.86 44.6082 128.756H45.1934C45.1735 128.947 45.1065 129.13 44.9983 129.289C44.8884 129.449 44.7381 129.577 44.5627 129.66C44.3636 129.753 44.1454 129.799 43.9255 129.793Z" fill="white"/>
<path d="M47.7325 129.792C47.4585 129.8 47.1876 129.732 46.949 129.597C46.7303 129.466 46.5542 129.274 46.4419 129.045C46.3187 128.784 46.2575 128.498 46.263 128.209C46.2582 127.921 46.3193 127.635 46.4419 127.374C46.5512 127.137 46.7281 126.938 46.9502 126.801C47.1723 126.665 47.4297 126.597 47.6903 126.606C47.8628 126.606 48.0342 126.635 48.1974 126.691C48.3612 126.75 48.5108 126.843 48.6363 126.964C48.7738 127.098 48.8794 127.261 48.9452 127.442C49.0246 127.672 49.062 127.914 49.0557 128.157V128.368H46.6044V127.92H48.4673C48.4696 127.773 48.4373 127.629 48.373 127.497C48.3183 127.405 48.2456 127.325 48.1594 127.261C48.0731 127.197 47.975 127.151 47.8707 127.126C47.7665 127.101 47.6583 127.097 47.5525 127.114C47.4466 127.132 47.3454 127.17 47.2546 127.227C47.1308 127.308 47.0309 127.42 46.9653 127.552C46.8977 127.685 46.8631 127.832 46.8645 127.982V128.333C46.8589 128.514 46.8956 128.694 46.9718 128.859C47.0399 128.996 47.1475 129.109 47.2806 129.184C47.4207 129.262 47.5789 129.302 47.739 129.298C47.8494 129.301 47.9594 129.284 48.0641 129.249C48.1553 129.218 48.2385 129.167 48.308 129.1C48.3773 129.032 48.4306 128.95 48.464 128.859L49.033 128.96C48.99 129.125 48.9061 129.276 48.7891 129.399C48.6652 129.528 48.5142 129.628 48.347 129.692C48.1504 129.764 47.9419 129.798 47.7325 129.792Z" fill="white"/>
<path d="M50.8925 127.897V129.728H50.291V126.642H50.8665V127.146H50.9055C50.9714 126.985 51.0848 126.848 51.2306 126.753C51.4034 126.647 51.6036 126.595 51.806 126.603C51.9984 126.599 52.1887 126.643 52.3587 126.733C52.5183 126.823 52.6466 126.959 52.7261 127.124C52.8201 127.327 52.8647 127.55 52.8561 127.774V129.724H52.2579V127.836C52.2692 127.644 52.2063 127.455 52.0824 127.309C52.0204 127.245 51.9454 127.195 51.8623 127.162C51.7793 127.13 51.6902 127.115 51.6012 127.12C51.4718 127.117 51.3438 127.149 51.2306 127.211C51.1215 127.272 51.0332 127.363 50.977 127.475C50.913 127.606 50.8839 127.751 50.8925 127.897Z" fill="white"/>
<path d="M55.6748 126.645V127.126H53.9907V126.645H55.6748ZM54.4426 125.907H55.0441V128.833C55.0379 128.923 55.0558 129.013 55.0961 129.093C55.1263 129.148 55.1746 129.19 55.2326 129.214C55.2901 129.234 55.3506 129.243 55.4114 129.243C55.4536 129.247 55.4961 129.247 55.5382 129.243L55.6228 129.227L55.7333 129.724L55.5838 129.766C55.5043 129.78 55.4238 129.788 55.3432 129.789C55.1915 129.791 55.041 129.763 54.901 129.704C54.7687 129.646 54.6559 129.552 54.5759 129.431C54.4872 129.293 54.443 129.131 54.4491 128.966L54.4426 125.907Z" fill="white"/>
<path d="M56.9038 129.731V126.645H57.4858V127.136H57.5183C57.571 126.975 57.6763 126.837 57.8174 126.743C57.9606 126.647 58.1295 126.597 58.3018 126.6H58.4351H58.5554V127.175L58.4286 127.152C58.3669 127.148 58.3049 127.148 58.2433 127.152C58.1112 127.15 57.9805 127.18 57.8629 127.24C57.7562 127.299 57.6666 127.384 57.6028 127.487C57.5373 127.596 57.5036 127.721 57.5053 127.848V129.731H56.9038Z" fill="white"/>
<path d="M60.5416 129.799C60.3593 129.802 60.1786 129.765 60.0117 129.692C59.8583 129.622 59.7285 129.509 59.6378 129.367C59.542 129.213 59.4934 129.034 59.498 128.853C59.4931 128.704 59.5279 128.556 59.5988 128.424C59.665 128.313 59.7592 128.221 59.8719 128.157C59.9907 128.089 60.1189 128.039 60.2523 128.008C60.3937 127.975 60.537 127.95 60.6814 127.933L61.1333 127.878C61.2206 127.873 61.3058 127.849 61.3837 127.81C61.4096 127.793 61.4306 127.77 61.4444 127.742C61.4581 127.715 61.4641 127.684 61.4617 127.654C61.4662 127.579 61.4556 127.505 61.4304 127.435C61.4053 127.365 61.3661 127.301 61.3154 127.247C61.1941 127.142 61.0364 127.09 60.8765 127.101C60.7063 127.091 60.5379 127.139 60.3986 127.237C60.2927 127.312 60.2095 127.414 60.158 127.533L59.5923 127.403C59.6513 127.229 59.753 127.073 59.8882 126.948C60.0173 126.833 60.169 126.747 60.3336 126.694C60.5064 126.642 60.6861 126.616 60.8667 126.616C60.999 126.617 61.1308 126.631 61.2601 126.659C61.3989 126.687 61.5313 126.741 61.6502 126.818C61.776 126.899 61.879 127.011 61.9493 127.143C62.0325 127.314 62.0717 127.503 62.0631 127.693V129.741H61.4779V129.321H61.4552C61.4101 129.407 61.3507 129.484 61.2796 129.549C61.1925 129.629 61.091 129.692 60.9805 129.734C60.84 129.785 60.6908 129.807 60.5416 129.799ZM60.6717 129.318C60.8206 129.322 60.9682 129.288 61.1008 129.221C61.213 129.16 61.3063 129.07 61.3706 128.961C61.4295 128.862 61.462 128.75 61.4649 128.635V128.223C61.4275 128.249 61.3856 128.269 61.3414 128.281C61.2796 128.297 61.2114 128.314 61.1333 128.327L60.9057 128.362L60.7204 128.385C60.6097 128.398 60.5006 128.423 60.3953 128.46C60.3081 128.49 60.2298 128.541 60.1678 128.609C60.1069 128.682 60.0755 128.775 60.08 128.869C60.0781 128.933 60.0924 128.996 60.1213 129.053C60.1503 129.11 60.1931 129.159 60.2458 129.195C60.3715 129.279 60.5203 129.322 60.6717 129.318Z" fill="white"/>
<path d="M64.0302 125.622V129.735H63.4287V125.622H64.0302Z" fill="white"/>
<path d="M65.7075 126.171C65.6577 126.172 65.6082 126.162 65.5619 126.144C65.5156 126.126 65.4734 126.098 65.4377 126.063C65.4027 126.031 65.3748 125.993 65.3557 125.949C65.3365 125.906 65.3267 125.859 65.3267 125.811C65.3267 125.764 65.3365 125.717 65.3557 125.674C65.3748 125.63 65.4027 125.591 65.4377 125.559C65.4734 125.525 65.5156 125.497 65.5619 125.479C65.6082 125.46 65.6577 125.451 65.7075 125.452C65.7569 125.451 65.8059 125.461 65.8517 125.479C65.8974 125.497 65.9391 125.525 65.9741 125.559C66.0115 125.59 66.0417 125.628 66.0624 125.672C66.0831 125.716 66.0938 125.763 66.0938 125.811C66.0938 125.86 66.0831 125.907 66.0624 125.951C66.0417 125.994 66.0115 126.033 65.9741 126.063C65.9391 126.098 65.8974 126.126 65.8517 126.144C65.8059 126.162 65.7569 126.171 65.7075 126.171ZM65.4052 129.731V126.645H66.0034V129.731H65.4052Z" fill="white"/>
<path d="M67.3135 129.731V129.321L68.9845 127.198V127.169H67.359V126.646H69.7225V127.085L68.1262 129.198H69.7908V129.718L67.3135 129.731Z" fill="white"/>
<path d="M72.3042 129.793C72.0301 129.801 71.7592 129.733 71.5207 129.598C71.301 129.468 71.1246 129.275 71.0135 129.045C70.8945 128.788 70.8356 128.506 70.8412 128.223C70.8363 127.934 70.8975 127.648 71.02 127.387C71.1294 127.151 71.3062 126.952 71.5283 126.815C71.7504 126.679 72.0079 126.611 72.2684 126.62C72.441 126.62 72.6123 126.649 72.7756 126.705C72.9394 126.764 73.0889 126.857 73.2145 126.978C73.3578 127.11 73.469 127.274 73.5396 127.456C73.619 127.685 73.6565 127.928 73.6501 128.171V128.382H71.1663V127.933H73.0292C73.0314 127.787 72.9991 127.642 72.9349 127.511C72.8714 127.387 72.7735 127.284 72.653 127.214C72.5325 127.144 72.3945 127.111 72.2554 127.117C72.0999 127.113 71.9467 127.156 71.8165 127.241C71.6927 127.321 71.5928 127.434 71.5272 127.566C71.4595 127.699 71.425 127.846 71.4264 127.995V128.346C71.4208 128.528 71.4575 128.708 71.5337 128.873C71.6016 129.009 71.7078 129.122 71.8393 129.198C71.9806 129.276 72.1398 129.315 72.3009 129.312C72.4113 129.315 72.5213 129.298 72.626 129.263C72.7162 129.232 72.7984 129.18 72.8666 129.114C72.9382 129.047 72.9928 128.965 73.0259 128.873L73.5949 128.974C73.5519 129.138 73.468 129.289 73.351 129.413C73.2265 129.541 73.0756 129.641 72.9089 129.705C72.7145 129.772 72.5094 129.802 72.3042 129.793Z" fill="white"/>
<path d="M76.0167 129.793C75.7859 129.794 75.56 129.727 75.3664 129.601C75.1653 129.465 75.0065 129.274 74.908 129.052C74.6869 128.502 74.6869 127.888 74.908 127.339C75.0084 127.118 75.1683 126.93 75.3697 126.796C75.5683 126.668 75.8003 126.603 76.0362 126.607C76.1954 126.6 76.354 126.633 76.4978 126.701C76.6032 126.757 76.6962 126.833 76.7709 126.926C76.8279 126.995 76.879 127.069 76.9237 127.147H76.9595V125.622H77.5609V129.735H76.9725V129.257H76.9237C76.8782 129.336 76.826 129.411 76.7677 129.481C76.6904 129.573 76.5953 129.648 76.4881 129.702C76.341 129.771 76.1789 129.803 76.0167 129.793ZM76.15 129.28C76.3074 129.284 76.4619 129.236 76.5888 129.143C76.715 129.044 76.8099 128.911 76.8619 128.759C76.9277 128.577 76.9597 128.384 76.9562 128.19C76.9592 127.999 76.9284 127.809 76.8652 127.628C76.8122 127.479 76.7174 127.348 76.5921 127.251C76.4631 127.16 76.3079 127.113 76.15 127.118C75.9878 127.111 75.8284 127.161 75.6981 127.257C75.5732 127.357 75.4786 127.49 75.425 127.641C75.3632 127.818 75.3324 128.003 75.3339 128.19C75.3318 128.38 75.3638 128.568 75.4282 128.746C75.4809 128.899 75.5756 129.035 75.7013 129.136C75.8293 129.236 75.9882 129.286 76.15 129.28Z" fill="white"/>
<path d="M84.4014 125.622V129.735H83.8455L81.7518 126.718H81.716V129.735H81.082V125.622H81.6542L83.7479 128.642H83.7869V125.622H84.4014Z" fill="white"/>
<path d="M87.1518 129.793C86.8777 129.8 86.6068 129.733 86.3683 129.598C86.1496 129.466 85.9735 129.274 85.8611 129.045C85.739 128.784 85.679 128.498 85.6855 128.21C85.6796 127.921 85.7397 127.636 85.8611 127.374C85.9682 127.138 86.1423 126.938 86.362 126.8C86.5817 126.662 86.8371 126.591 87.0965 126.597C87.2691 126.597 87.4404 126.626 87.6037 126.682C87.7675 126.741 87.917 126.834 88.0426 126.955C88.1801 127.089 88.2856 127.252 88.3514 127.433C88.4308 127.662 88.4683 127.905 88.462 128.148V128.359H86.0237V127.91H87.8865C87.8903 127.764 87.858 127.619 87.7923 127.488C87.7375 127.396 87.6649 127.315 87.5786 127.252C87.4924 127.188 87.3942 127.142 87.29 127.117C87.1857 127.092 87.0775 127.088 86.9717 127.105C86.8659 127.122 86.7646 127.161 86.6739 127.218C86.5501 127.299 86.4502 127.411 86.3845 127.543C86.3169 127.676 86.2823 127.823 86.2837 127.972V128.323C86.2782 128.505 86.3149 128.685 86.391 128.85C86.4591 128.987 86.5667 129.1 86.6999 129.175C86.8399 129.253 86.9981 129.292 87.1583 129.289C87.2687 129.292 87.3787 129.275 87.4834 129.24C87.5745 129.209 87.6577 129.158 87.7272 129.091C87.7965 129.023 87.8498 128.941 87.8833 128.85L88.4522 128.951C88.4093 129.115 88.3254 129.266 88.2084 129.39C88.0845 129.519 87.9335 129.619 87.7662 129.682C87.5703 129.758 87.3618 129.795 87.1518 129.793Z" fill="white"/>
<path d="M91.1509 126.645V127.126H89.4668V126.645H91.1509ZM89.9187 125.907H90.5201V128.833C90.5139 128.923 90.5319 129.013 90.5722 129.093C90.6011 129.148 90.6483 129.19 90.7055 129.214C90.7641 129.234 90.8256 129.243 90.8875 129.243C90.9297 129.247 90.9721 129.247 91.0143 129.243L91.0988 129.227L91.2094 129.724L91.0598 129.766C90.9803 129.78 90.8999 129.788 90.8192 129.789C90.6676 129.791 90.5171 129.763 90.3771 129.704C90.2448 129.646 90.132 129.552 90.052 129.431C89.9633 129.293 89.9191 129.131 89.9252 128.966L89.9187 125.907Z" fill="white"/>
<path d="M93.0491 129.731L92.1421 126.646H92.7598L93.3678 128.922H93.397L94.0017 126.646H94.6227L95.2274 128.902H95.2566L95.8581 126.646H96.479L95.572 129.731H94.9575L94.3333 127.504H94.2878L93.6604 129.731H93.0491Z" fill="white"/>
<path d="M98.8555 129.793C98.5893 129.8 98.3267 129.731 98.098 129.594C97.8817 129.46 97.708 129.268 97.5973 129.038C97.4726 128.778 97.4114 128.492 97.4185 128.203C97.4117 127.913 97.473 127.626 97.5973 127.364C97.7071 127.134 97.8809 126.939 98.098 126.805C98.3293 126.675 98.5901 126.606 98.8555 126.606C99.1209 126.606 99.3818 126.675 99.613 126.805C99.8301 126.939 100.004 127.134 100.114 127.364C100.238 127.626 100.299 127.913 100.292 128.203C100.3 128.492 100.238 128.778 100.114 129.038C100.003 129.268 99.8293 129.46 99.613 129.594C99.3843 129.731 99.1217 129.8 98.8555 129.793ZM98.8555 129.289C99.0227 129.295 99.1869 129.243 99.3204 129.143C99.4469 129.039 99.5415 128.901 99.5935 128.746C99.7149 128.393 99.7149 128.01 99.5935 127.657C99.5408 127.502 99.4463 127.365 99.3204 127.26C99.1845 127.161 99.0206 127.107 98.8523 127.107C98.6839 127.107 98.52 127.161 98.3841 127.26C98.2583 127.365 98.1638 127.502 98.111 127.657C97.9896 128.01 97.9896 128.393 98.111 128.746C98.163 128.901 98.2576 129.039 98.3841 129.143C98.5205 129.245 98.6884 129.297 98.8588 129.289H98.8555Z" fill="white"/>
<path d="M101.528 129.731V126.646H102.11V127.137H102.143C102.194 126.976 102.298 126.838 102.439 126.744C102.583 126.648 102.753 126.599 102.926 126.601H103.06H103.18V127.176L103.05 127.153C102.989 127.148 102.928 127.148 102.868 127.153C102.736 127.151 102.605 127.181 102.487 127.241C102.378 127.3 102.287 127.388 102.224 127.495C102.16 127.602 102.128 127.725 102.13 127.849V129.731H101.528Z" fill="white"/>
<path d="M104.269 129.731V125.622H104.867V129.735L104.269 129.731ZM104.821 128.685V127.953H104.929L106.157 126.653H106.876L105.475 128.138H105.38L104.821 128.685ZM106.216 129.731L105.111 128.265L105.527 127.846L106.954 129.731H106.216Z" fill="white"/>
<path d="M111.346 129.793C111.08 129.8 110.818 129.731 110.589 129.594C110.372 129.461 110.197 129.268 110.085 129.038C109.962 128.777 109.901 128.492 109.906 128.203C109.901 127.913 109.962 127.626 110.085 127.364C110.196 127.133 110.371 126.939 110.589 126.805C110.82 126.675 111.081 126.606 111.346 126.606C111.612 126.606 111.873 126.675 112.104 126.805C112.32 126.94 112.494 127.134 112.605 127.364C112.729 127.626 112.79 127.913 112.783 128.203C112.79 128.492 112.729 128.778 112.605 129.038C112.493 129.267 112.319 129.459 112.104 129.594C111.875 129.73 111.612 129.799 111.346 129.793ZM111.346 129.289C111.515 129.295 111.68 129.244 111.815 129.143C111.941 129.039 112.036 128.901 112.088 128.746C112.205 128.392 112.205 128.01 112.088 127.657C112.034 127.496 111.936 127.354 111.805 127.247C111.669 127.148 111.505 127.094 111.337 127.094C111.168 127.094 111.004 127.148 110.868 127.247C110.743 127.352 110.647 127.489 110.592 127.644C110.475 127.997 110.475 128.379 110.592 128.733C110.646 128.888 110.742 129.025 110.868 129.13C111.004 129.238 111.173 129.294 111.346 129.289Z" fill="white"/>
<path d="M115.485 126.645V127.127H113.755V126.645H115.485ZM114.22 129.731V126.288C114.214 126.118 114.258 125.951 114.347 125.807C114.428 125.684 114.54 125.585 114.672 125.521C114.815 125.456 114.971 125.424 115.127 125.426C115.236 125.423 115.346 125.433 115.452 125.456C115.518 125.467 115.582 125.485 115.644 125.508L115.504 125.992L115.394 125.963C115.341 125.957 115.288 125.957 115.235 125.963C115.176 125.955 115.115 125.96 115.059 125.98C115.003 125.999 114.951 126.031 114.91 126.073C114.838 126.166 114.805 126.282 114.815 126.398V129.76L114.22 129.731Z" fill="white"/>
<path d="M120.115 129.731H118.785V125.622H120.157C120.52 125.611 120.878 125.697 121.197 125.869C121.48 126.033 121.706 126.277 121.848 126.571C122.002 126.919 122.082 127.295 122.082 127.675C122.082 128.055 122.002 128.431 121.848 128.779C121.699 129.078 121.463 129.325 121.171 129.488C120.846 129.658 120.482 129.742 120.115 129.731ZM119.403 129.198H120.082C120.354 129.207 120.622 129.145 120.863 129.019C121.069 128.902 121.232 128.72 121.328 128.502C121.439 128.242 121.492 127.96 121.484 127.677C121.491 127.395 121.439 127.114 121.331 126.854C121.236 126.639 121.075 126.459 120.872 126.34C120.64 126.219 120.38 126.159 120.118 126.168H119.403V129.198Z" fill="white"/>
<path d="M124.712 129.793C124.438 129.801 124.167 129.733 123.928 129.598C123.71 129.467 123.534 129.275 123.421 129.045C123.299 128.784 123.239 128.498 123.246 128.21C123.24 127.922 123.3 127.636 123.421 127.374C123.531 127.138 123.708 126.94 123.93 126.803C124.152 126.667 124.409 126.599 124.67 126.607C124.842 126.607 125.014 126.636 125.177 126.692C125.341 126.751 125.49 126.844 125.616 126.965C125.753 127.099 125.859 127.262 125.924 127.443C126.004 127.673 126.041 127.915 126.035 128.158V128.369H123.584V127.921H125.46C125.463 127.774 125.431 127.629 125.365 127.498C125.311 127.406 125.238 127.325 125.152 127.262C125.065 127.198 124.967 127.152 124.863 127.127C124.759 127.102 124.651 127.098 124.545 127.115C124.439 127.133 124.338 127.171 124.247 127.228C124.123 127.309 124.023 127.421 123.958 127.553C123.89 127.686 123.855 127.833 123.857 127.982V128.333C123.851 128.515 123.888 128.695 123.964 128.86C124.032 128.997 124.14 129.11 124.273 129.185C124.413 129.263 124.571 129.302 124.731 129.299C124.842 129.302 124.952 129.285 125.056 129.25C125.148 129.219 125.231 129.168 125.3 129.101C125.37 129.033 125.423 128.951 125.456 128.86L126.025 128.961C125.982 129.125 125.898 129.276 125.781 129.4C125.658 129.53 125.507 129.63 125.339 129.692C125.139 129.766 124.926 129.8 124.712 129.793Z" fill="white"/>
<path d="M128.571 129.793C128.3 129.801 128.032 129.731 127.8 129.591C127.585 129.454 127.413 129.258 127.306 129.026C127.186 128.768 127.127 128.487 127.134 128.203C127.128 127.917 127.188 127.633 127.309 127.374C127.419 127.142 127.591 126.946 127.807 126.808C128.035 126.671 128.298 126.601 128.564 126.607C128.781 126.602 128.995 126.647 129.192 126.737C129.369 126.817 129.522 126.941 129.637 127.098C129.752 127.259 129.821 127.447 129.839 127.644H129.254C129.222 127.499 129.146 127.368 129.036 127.27C128.907 127.162 128.742 127.106 128.574 127.114C128.418 127.111 128.264 127.156 128.135 127.244C128.005 127.339 127.904 127.469 127.843 127.618C127.77 127.8 127.735 127.994 127.739 128.19C127.734 128.389 127.77 128.587 127.843 128.772C127.902 128.923 128.002 129.054 128.132 129.152C128.242 129.225 128.369 129.27 128.5 129.282C128.632 129.295 128.764 129.275 128.886 129.224C128.977 129.182 129.057 129.12 129.12 129.042C129.186 128.958 129.232 128.86 129.254 128.756H129.839C129.819 128.947 129.752 129.13 129.644 129.289C129.534 129.449 129.384 129.577 129.208 129.66C129.009 129.753 128.791 129.799 128.571 129.793Z" fill="white"/>
<path d="M132.378 129.793C132.104 129.801 131.833 129.733 131.594 129.598C131.376 129.467 131.2 129.275 131.087 129.045C130.965 128.784 130.905 128.498 130.912 128.21C130.906 127.922 130.966 127.636 131.087 127.374C131.197 127.138 131.374 126.94 131.596 126.803C131.818 126.667 132.075 126.599 132.336 126.607C132.508 126.607 132.68 126.636 132.843 126.692C133.007 126.751 133.156 126.844 133.282 126.965C133.425 127.097 133.536 127.261 133.607 127.443C133.687 127.672 133.726 127.915 133.721 128.158V128.369H131.266V127.921H133.132C133.135 127.774 133.101 127.629 133.035 127.498C132.98 127.406 132.907 127.325 132.821 127.262C132.735 127.198 132.637 127.152 132.532 127.127C132.428 127.102 132.32 127.098 132.214 127.115C132.108 127.133 132.007 127.171 131.916 127.228C131.793 127.31 131.694 127.422 131.627 127.553C131.559 127.686 131.525 127.833 131.526 127.982V128.333C131.52 128.515 131.558 128.696 131.637 128.86C131.702 128.997 131.809 129.111 131.942 129.185C132.082 129.263 132.24 129.302 132.401 129.299C132.511 129.302 132.621 129.285 132.726 129.25C132.817 129.219 132.9 129.168 132.97 129.101C133.039 129.033 133.092 128.951 133.126 128.86L133.695 128.961C133.652 129.125 133.568 129.276 133.451 129.4C133.327 129.53 133.176 129.63 133.009 129.692C132.807 129.767 132.593 129.801 132.378 129.793Z" fill="white"/>
<path d="M135.537 127.897V129.728H134.936V126.642H135.515V127.146H135.537C135.603 126.985 135.717 126.848 135.863 126.753C136.035 126.647 136.236 126.595 136.438 126.603C136.63 126.598 136.821 126.643 136.991 126.733C137.151 126.822 137.28 126.958 137.358 127.124C137.452 127.327 137.497 127.55 137.488 127.774V129.724H136.89V127.836C136.901 127.644 136.838 127.455 136.714 127.309C136.652 127.245 136.577 127.195 136.494 127.162C136.411 127.13 136.322 127.115 136.233 127.12C136.104 127.117 135.976 127.149 135.863 127.211C135.754 127.272 135.665 127.363 135.609 127.475C135.551 127.608 135.526 127.753 135.537 127.897Z" fill="white"/>
<path d="M140.323 126.645V127.126H138.636V126.645H140.323ZM139.088 125.907H139.689V128.833C139.683 128.923 139.701 129.013 139.741 129.093C139.772 129.147 139.82 129.189 139.878 129.214C139.936 129.234 139.998 129.244 140.06 129.243C140.102 129.246 140.144 129.246 140.186 129.243L140.271 129.227L140.378 129.724L140.229 129.766C140.149 129.78 140.069 129.788 139.988 129.789C139.837 129.791 139.686 129.763 139.546 129.704C139.414 129.646 139.301 129.552 139.221 129.431C139.132 129.293 139.088 129.131 139.094 128.966L139.088 125.907Z" fill="white"/>
<path d="M141.549 129.731V126.646H142.131V127.137H142.163C142.216 126.976 142.321 126.838 142.462 126.744C142.606 126.649 142.775 126.599 142.947 126.601H143.08H143.2V127.176L143.074 127.153C143.012 127.148 142.95 127.148 142.888 127.153C142.757 127.151 142.628 127.181 142.511 127.241C142.404 127.299 142.313 127.385 142.248 127.488C142.182 127.597 142.149 127.722 142.15 127.849V129.731H141.549Z" fill="white"/>
<path d="M145.187 129.799C145.005 129.802 144.824 129.765 144.657 129.692C144.504 129.621 144.375 129.508 144.283 129.367C144.188 129.213 144.141 129.034 144.147 128.853C144.141 128.704 144.174 128.556 144.244 128.424C144.31 128.313 144.405 128.221 144.517 128.157C144.636 128.089 144.764 128.039 144.898 128.008C145.04 127.975 145.185 127.95 145.33 127.933L145.779 127.878C145.866 127.873 145.951 127.849 146.029 127.81C146.055 127.793 146.076 127.77 146.09 127.742C146.103 127.715 146.109 127.684 146.107 127.654C146.112 127.579 146.101 127.505 146.076 127.435C146.051 127.365 146.011 127.301 145.961 127.247C145.901 127.195 145.831 127.155 145.756 127.13C145.681 127.105 145.601 127.095 145.522 127.101C145.352 127.092 145.183 127.14 145.044 127.237C144.938 127.312 144.855 127.414 144.803 127.533L144.241 127.403C144.298 127.229 144.398 127.072 144.534 126.948C144.663 126.833 144.816 126.746 144.982 126.694C145.154 126.642 145.333 126.616 145.512 126.616C145.644 126.617 145.776 126.631 145.905 126.659C146.044 126.687 146.177 126.741 146.296 126.818C146.421 126.899 146.524 127.011 146.595 127.143C146.679 127.314 146.719 127.503 146.712 127.693V129.741H146.123V129.321H146.101C146.055 129.407 145.996 129.484 145.925 129.549C145.838 129.63 145.737 129.693 145.626 129.734C145.485 129.785 145.336 129.807 145.187 129.799ZM145.317 129.318C145.466 129.322 145.614 129.289 145.746 129.221C145.858 129.16 145.952 129.07 146.016 128.961C146.075 128.862 146.107 128.75 146.11 128.635V128.223C146.073 128.25 146.031 128.27 145.987 128.281C145.925 128.297 145.857 128.314 145.779 128.327L145.551 128.362L145.366 128.385C145.255 128.398 145.146 128.423 145.041 128.46C144.953 128.49 144.875 128.541 144.813 128.609C144.753 128.682 144.723 128.775 144.729 128.869C144.727 128.933 144.741 128.996 144.769 129.053C144.797 129.109 144.839 129.158 144.891 129.195C145.017 129.279 145.166 129.322 145.317 129.318Z" fill="white"/>
<path d="M148.675 125.622V129.735H148.077V125.622H148.675Z" fill="white"/>
<path d="M150.353 126.171C150.304 126.172 150.255 126.163 150.209 126.145C150.163 126.126 150.121 126.099 150.086 126.064C150.049 126.033 150.019 125.995 149.998 125.951C149.978 125.908 149.967 125.86 149.967 125.812C149.967 125.764 149.978 125.716 149.998 125.672C150.019 125.629 150.049 125.59 150.086 125.56C150.158 125.491 150.254 125.452 150.353 125.452C150.453 125.452 150.548 125.491 150.62 125.56C150.657 125.59 150.687 125.629 150.708 125.672C150.729 125.716 150.739 125.764 150.739 125.812C150.739 125.86 150.729 125.908 150.708 125.951C150.687 125.995 150.657 126.033 150.62 126.064C150.585 126.099 150.543 126.126 150.497 126.145C150.452 126.163 150.402 126.172 150.353 126.171ZM150.051 129.731V126.646H150.649V129.731H150.051Z" fill="white"/>
<path d="M151.959 129.731V129.321L153.63 127.198V127.169H152.005V126.646H154.394V127.085L152.769 129.198H154.433V129.718L151.959 129.731Z" fill="white"/>
<path d="M156.949 129.793C156.675 129.801 156.404 129.733 156.166 129.598C155.947 129.467 155.771 129.275 155.658 129.045C155.536 128.784 155.476 128.498 155.483 128.21C155.477 127.922 155.537 127.636 155.658 127.374C155.769 127.138 155.946 126.94 156.167 126.803C156.389 126.667 156.647 126.599 156.907 126.607C157.079 126.607 157.251 126.636 157.414 126.692C157.578 126.751 157.727 126.844 157.853 126.965C157.996 127.097 158.108 127.261 158.178 127.443C158.259 127.672 158.297 127.915 158.292 128.158V128.369H155.837V127.921H157.703C157.706 127.774 157.673 127.629 157.606 127.498C157.551 127.406 157.479 127.325 157.392 127.262C157.306 127.198 157.208 127.152 157.104 127.127C156.999 127.102 156.891 127.098 156.785 127.115C156.68 127.133 156.578 127.171 156.488 127.228C156.365 127.31 156.265 127.422 156.198 127.553C156.131 127.686 156.096 127.833 156.097 127.982V128.333C156.092 128.515 156.129 128.695 156.205 128.86C156.277 128.999 156.391 129.113 156.53 129.185C156.67 129.263 156.828 129.302 156.988 129.299C157.099 129.302 157.209 129.285 157.313 129.25C157.404 129.219 157.488 129.168 157.557 129.101C157.626 129.033 157.68 128.951 157.713 128.86L158.282 128.961C158.239 129.125 158.155 129.276 158.038 129.4C157.915 129.53 157.764 129.63 157.596 129.692C157.389 129.769 157.169 129.803 156.949 129.793Z" fill="white"/>
<path d="M160.665 129.793C160.434 129.793 160.209 129.727 160.015 129.601C159.814 129.465 159.655 129.274 159.556 129.052C159.335 128.502 159.335 127.888 159.556 127.339C159.657 127.118 159.817 126.93 160.018 126.796C160.212 126.672 160.438 126.606 160.668 126.607C160.828 126.6 160.986 126.633 161.13 126.701C161.235 126.757 161.328 126.833 161.403 126.926C161.46 126.995 161.511 127.069 161.556 127.147H161.592V125.622H162.196V129.735H161.608V129.257H161.546C161.501 129.336 161.448 129.411 161.39 129.481C161.314 129.574 161.218 129.649 161.11 129.702C160.971 129.767 160.819 129.798 160.665 129.793ZM160.795 129.28C160.953 129.285 161.107 129.237 161.234 129.143C161.36 129.044 161.455 128.911 161.507 128.759C161.574 128.577 161.606 128.384 161.601 128.19C161.606 127.999 161.575 127.808 161.51 127.628C161.457 127.479 161.363 127.348 161.237 127.251C161.108 127.159 160.953 127.112 160.795 127.118C160.633 127.111 160.474 127.161 160.343 127.257C160.218 127.357 160.125 127.49 160.073 127.641C160.01 127.817 159.979 128.003 159.982 128.19C159.979 128.38 160.01 128.568 160.073 128.746C160.126 128.899 160.221 129.035 160.346 129.136C160.475 129.235 160.634 129.285 160.795 129.28Z" fill="white"/>
<path d="M169.047 125.622V129.735H168.478L166.384 126.718H166.349V129.735H165.728V125.622H166.3L168.393 128.642H168.432V125.622H169.047Z" fill="white"/>
<path d="M171.797 129.793C171.523 129.8 171.252 129.733 171.013 129.598C170.795 129.466 170.619 129.275 170.506 129.045C170.384 128.789 170.322 128.507 170.324 128.223C170.318 127.935 170.378 127.649 170.5 127.387C170.607 127.146 170.783 126.942 171.007 126.801C171.23 126.66 171.491 126.589 171.755 126.597C171.927 126.597 172.099 126.626 172.262 126.682C172.426 126.74 172.576 126.833 172.701 126.955C172.844 127.087 172.955 127.251 173.026 127.433C173.106 127.662 173.145 127.905 173.14 128.148V128.359H170.685V127.911H172.551C172.554 127.764 172.52 127.619 172.454 127.488C172.39 127.37 172.297 127.27 172.184 127.199C172.061 127.126 171.92 127.09 171.777 127.095C171.621 127.09 171.467 127.133 171.335 127.218C171.212 127.3 171.113 127.412 171.046 127.543C170.978 127.676 170.944 127.823 170.945 127.972V128.324C170.939 128.505 170.977 128.686 171.056 128.85C171.122 128.988 171.228 129.101 171.361 129.175C171.501 129.253 171.659 129.293 171.82 129.289C171.93 129.292 172.04 129.275 172.145 129.24C172.236 129.209 172.319 129.158 172.389 129.091C172.458 129.023 172.511 128.941 172.545 128.85L173.114 128.951C173.071 129.116 172.987 129.267 172.87 129.39C172.747 129.519 172.597 129.619 172.431 129.683C172.229 129.76 172.013 129.798 171.797 129.793Z" fill="white"/>
<path d="M175.796 126.645V127.126H174.112V126.645H175.796ZM174.551 125.907H175.152V128.833C175.146 128.923 175.164 129.013 175.204 129.093C175.234 129.148 175.283 129.19 175.341 129.214C175.398 129.234 175.459 129.243 175.52 129.243C175.562 129.247 175.604 129.247 175.646 129.243L175.731 129.227L175.841 129.724L175.692 129.766C175.612 129.78 175.532 129.788 175.451 129.789C175.3 129.791 175.149 129.763 175.009 129.704C174.877 129.646 174.764 129.552 174.684 129.431C174.595 129.293 174.551 129.131 174.557 128.966L174.551 125.907Z" fill="white"/>
<path d="M177.695 129.731L176.788 126.646H177.409L178.013 128.922H178.043L178.65 126.646H179.271L179.873 128.902H179.902L180.504 126.646H181.125L180.217 129.731H179.606L178.979 127.504H178.933L178.306 129.731H177.695Z" fill="white"/>
<path d="M183.501 129.793C183.235 129.8 182.972 129.731 182.744 129.594C182.527 129.46 182.354 129.268 182.243 129.038C182.118 128.778 182.057 128.492 182.064 128.203C182.057 127.913 182.118 127.626 182.243 127.364C182.353 127.134 182.526 126.939 182.744 126.805C182.975 126.675 183.236 126.606 183.501 126.606C183.766 126.606 184.027 126.675 184.259 126.805C184.476 126.94 184.65 127.134 184.762 127.364C184.885 127.626 184.947 127.913 184.941 128.203C184.947 128.492 184.886 128.777 184.762 129.038C184.65 129.267 184.475 129.46 184.259 129.594C184.03 129.731 183.767 129.8 183.501 129.793ZM183.501 129.289C183.668 129.295 183.832 129.243 183.966 129.143C184.092 129.039 184.187 128.901 184.239 128.746C184.36 128.393 184.36 128.01 184.239 127.657C184.192 127.499 184.102 127.357 183.979 127.247C183.847 127.143 183.682 127.089 183.514 127.094C183.344 127.089 183.177 127.143 183.043 127.247C182.917 127.352 182.822 127.489 182.77 127.644C182.648 127.997 182.648 128.38 182.77 128.733C182.821 128.888 182.916 129.026 183.043 129.13C183.174 129.233 183.337 129.289 183.504 129.289H183.501Z" fill="white"/>
<path d="M186.173 129.731V126.645H186.755V127.136H186.788C186.84 126.975 186.946 126.837 187.087 126.743C187.23 126.647 187.399 126.597 187.571 126.6H187.705H187.825V127.175L187.698 127.152C187.636 127.148 187.574 127.148 187.513 127.152C187.381 127.15 187.25 127.18 187.132 127.24C187.026 127.299 186.936 127.384 186.872 127.487C186.807 127.596 186.773 127.721 186.775 127.848V129.731H186.173Z" fill="white"/>
<path d="M188.914 129.731V125.622H189.506V129.735L188.914 129.731ZM189.467 128.685V127.953H189.571L190.8 126.653H191.518L190.117 128.138H190.023L189.467 128.685ZM190.861 129.731L189.756 128.265L190.172 127.846L191.599 129.731H190.861Z" fill="white"/>
<path d="M194.938 127.4L194.395 127.498C194.371 127.425 194.335 127.357 194.288 127.296C194.234 127.231 194.166 127.179 194.09 127.143C193.987 127.098 193.876 127.077 193.764 127.082C193.614 127.077 193.466 127.117 193.339 127.196C193.286 127.224 193.243 127.267 193.213 127.318C193.183 127.37 193.168 127.429 193.17 127.488C193.168 127.536 193.177 127.583 193.197 127.627C193.216 127.67 193.246 127.709 193.283 127.738C193.394 127.816 193.521 127.868 193.654 127.891L194.142 128.005C194.382 128.043 194.608 128.148 194.792 128.307C194.861 128.377 194.915 128.461 194.951 128.553C194.986 128.644 195.003 128.742 195 128.841C195.003 129.018 194.947 129.192 194.841 129.335C194.723 129.48 194.569 129.592 194.395 129.66C194.189 129.743 193.968 129.784 193.745 129.78C193.447 129.794 193.152 129.717 192.9 129.559C192.792 129.488 192.701 129.395 192.632 129.286C192.562 129.178 192.516 129.056 192.497 128.928L193.079 128.841C193.111 128.972 193.189 129.087 193.3 129.166C193.432 129.249 193.586 129.29 193.742 129.283C193.908 129.291 194.072 129.247 194.213 129.159C194.262 129.128 194.303 129.086 194.332 129.036C194.361 128.987 194.378 128.931 194.382 128.873C194.383 128.827 194.373 128.782 194.355 128.74C194.336 128.698 194.309 128.66 194.275 128.629C194.181 128.553 194.069 128.501 193.95 128.48L193.426 128.366C193.182 128.325 192.956 128.212 192.776 128.041C192.708 127.968 192.654 127.883 192.619 127.79C192.584 127.697 192.568 127.597 192.571 127.498C192.569 127.326 192.622 127.158 192.724 127.02C192.833 126.875 192.979 126.763 193.147 126.695C193.342 126.616 193.551 126.578 193.761 126.581C194.041 126.566 194.318 126.641 194.551 126.796C194.748 126.945 194.885 127.159 194.938 127.4Z" fill="white"/>
<path d="M4.27842 118.941H0V98.082H14.1715V101.619H4.27842V106.905H13.5798V110.384H4.27842V118.941Z" fill="white"/>
<path d="M23.0857 102.835H23.6807C25.3141 102.83 26.9452 102.959 28.5573 103.222V106.076H23.7392C23.4281 106.054 23.1157 106.096 22.8218 106.201C22.5279 106.305 22.2591 106.47 22.0324 106.684C21.6262 107.146 21.4182 107.748 21.4537 108.362V118.941H17.4126V108.212C17.4126 104.63 19.3036 102.837 23.0857 102.835Z" fill="white"/>
<path d="M34.1691 103.073L38.2687 114.243L42.3683 103.069H46.4582L38.5548 124.526H34.4292L36.6594 118.941H35.9149L30.063 103.073H34.1691Z" fill="white"/>
<path d="M67.8633 98.082H72.1417V118.941H67.5902L59.69 105.004V118.941H55.4116V98.082H59.9631L67.8665 112.016L67.8633 98.082Z" fill="white"/>
<path d="M90.2339 108.541V112.442H80.045V113.541C80.045 114.454 80.2531 115.111 80.6692 115.517C81.0854 115.924 81.7486 116.129 82.6589 116.129H89.5219V118.772C87.5261 119.073 85.5093 119.212 83.4912 119.188H82.2427C78.0814 119.188 76.0017 117.286 76.0039 113.482V108.541C76.0039 104.737 78.0835 102.835 82.2427 102.835H83.9951C88.1564 102.835 90.2361 104.737 90.2339 108.541ZM80.045 108.274V109.574H86.1928V108.534C86.1928 106.772 85.3714 105.891 83.7285 105.891H82.4801C80.8545 105.895 80.0428 106.69 80.045 108.274Z" fill="white"/>
<path d="M101.525 115.94H104.912V118.821C103.7 119.065 102.466 119.185 101.229 119.178H100.072C98.5544 119.178 97.3807 118.757 96.5506 117.913C95.7205 117.07 95.299 115.897 95.286 114.393V106.314H92.5811V103.063H95.286V98.9629H99.3271V103.063H104.734V106.314H99.3271V113.739C99.3271 115.206 100.06 115.94 101.525 115.94Z" fill="white"/>
<path d="M120.869 103.073L123.928 113.772L127.02 103.073H131.119L126.158 118.941H121.883L118.957 108.629L116.015 118.941H111.717L106.756 103.073H110.855L113.944 113.772L117.007 103.073H120.869Z" fill="white"/>
<path d="M133.051 113.473V108.541C133.051 104.737 135.121 102.835 139.26 102.835H141.816C145.975 102.835 148.055 104.737 148.055 108.541V113.473C148.055 117.276 145.975 119.178 141.816 119.178H139.26C135.123 119.178 133.053 117.276 133.051 113.473ZM144.013 113.355V108.69C144.013 107.799 143.805 107.14 143.389 106.714C142.973 106.287 142.31 106.07 141.4 106.063H139.706C138.795 106.063 138.132 106.28 137.716 106.714C137.3 107.147 137.092 107.806 137.092 108.69V113.355C137.092 114.246 137.295 114.896 137.7 115.306C138.105 115.716 138.774 115.924 139.706 115.93H141.39C142.3 115.93 142.963 115.722 143.379 115.306C143.796 114.89 144.007 114.24 144.013 113.355Z" fill="white"/>
<path d="M157.294 102.835H157.889C159.522 102.83 161.153 102.959 162.765 103.222V106.076H157.947C157.636 106.054 157.324 106.096 157.03 106.201C156.736 106.305 156.467 106.47 156.24 106.684C155.834 107.146 155.626 107.748 155.662 108.362V118.941H151.621V108.212C151.621 104.63 153.512 102.837 157.294 102.835Z" fill="white"/>
<path d="M169.625 114.634V118.942H165.584V97.4844H169.625V109.221L174.648 103.07H179.401L173.816 109.897L180.172 118.932H175.568L171.26 112.693L169.625 114.634Z" fill="white"/>
<path d="M187.555 109.107L191.238 109.731C192.539 109.947 193.495 110.412 194.106 111.125C194.717 111.838 195.019 112.848 195.013 114.155V114.663C195.013 116.167 194.606 117.296 193.794 118.05C192.981 118.804 191.644 119.181 189.782 119.178H187.851C186.109 119.192 184.369 119.062 182.649 118.791V115.999H189.275C190.404 115.999 190.969 115.565 190.969 114.698V114.103C190.969 113.33 190.442 112.855 189.395 112.676L185.708 112.052C184.382 111.835 183.422 111.376 182.828 110.674C182.234 109.971 181.937 108.966 181.937 107.657V107.299C181.937 105.855 182.342 104.751 183.153 103.986C183.964 103.221 185.301 102.839 187.165 102.842H188.771C190.502 102.829 192.23 102.958 193.94 103.229V106.021H187.63C187.19 105.993 186.754 106.119 186.398 106.379C186.26 106.489 186.15 106.629 186.075 106.789C186.001 106.948 185.964 107.123 185.968 107.299V107.686C185.968 108.455 186.497 108.929 187.555 109.107Z" fill="white"/>
</g>
<defs>
<linearGradient id="paint0_linear_346_5649" x1="67.4761" y1="38.4117" x2="121.226" y2="38.4117" gradientUnits="userSpaceOnUse">
<stop stop-color="#FFAFAF"/>
<stop offset="0.11" stop-color="#FFAFAF"/>
<stop offset="0.27" stop-color="#FFAFAF"/>
<stop offset="0.44" stop-color="#FFAFAF"/>
<stop offset="0.63" stop-color="#FFAFAF"/>
<stop offset="0.83" stop-color="#FFAFAF"/>
<stop offset="1" stop-color="#FFAFAF"/>
</linearGradient>
<linearGradient id="paint1_linear_346_5649" x1="88.7186" y1="67.1513" x2="121.467" y2="15.0657" gradientUnits="userSpaceOnUse">
<stop stop-color="white"/>
<stop offset="0.11" stop-color="white"/>
<stop offset="0.27" stop-color="white"/>
<stop offset="0.44" stop-color="white"/>
<stop offset="0.63" stop-color="white"/>
<stop offset="0.83" stop-color="white"/>
<stop offset="1" stop-color="#FFAFAF"/>
</linearGradient>
<linearGradient id="paint2_linear_346_5649" x1="81.8037" y1="40.9084" x2="117.162" y2="40.9084" gradientUnits="userSpaceOnUse">
<stop stop-color="#2B2B2B"/>
<stop offset="1" stop-color="#2B2B2B" stop-opacity="0.5"/>
</linearGradient>
<linearGradient id="paint3_linear_346_5649" x1="125.043" y1="69.1831" x2="107.744" y2="47.3683" gradientUnits="userSpaceOnUse">
<stop stop-color="white"/>
<stop offset="1" stop-color="white"/>
</linearGradient>
<linearGradient id="paint4_linear_346_5649" x1="109.08" y1="72.1545" x2="108.401" y2="46.5978" gradientUnits="userSpaceOnUse">
<stop stop-color="white"/>
<stop offset="1" stop-color="#FFAFAF"/>
</linearGradient>
<linearGradient id="paint5_linear_346_5649" x1="108.931" y1="60.1289" x2="122.049" y2="60.1289" gradientUnits="userSpaceOnUse">
<stop stop-color="white" stop-opacity="0.5"/>
<stop offset="1" stop-color="#FFAFAF"/>
</linearGradient>
<linearGradient id="paint6_linear_346_5649" x1="111.236" y1="67.2324" x2="98.8231" y2="56.494" gradientUnits="userSpaceOnUse">
<stop stop-color="white"/>
<stop offset="1" stop-color="#FFAFAF"/>
</linearGradient>
<clipPath id="clip0_346_5649">
<rect width="195" height="130.954" fill="white"/>
</clipPath>
</defs>
</svg>
