<svg width="28" height="28" viewBox="0 0 28 28" fill="none" xmlns="http://www.w3.org/2000/svg">
<path d="M5.39458 15.1667C6.00569 15.1667 6.50108 14.6443 6.50108 14C6.50108 13.3557 6.00569 12.8333 5.39458 12.8333C4.78348 12.8333 4.28809 13.3557 4.28809 14C4.28809 14.6443 4.78348 15.1667 5.39458 15.1667Z" fill="#808080"/>
<path d="M23.1647 12.8333H9.75398C9.17954 12.8333 8.71387 13.3243 8.71387 13.93V14.07C8.71387 14.6757 9.17954 15.1667 9.75398 15.1667H23.1647C23.7392 15.1667 24.2049 14.6757 24.2049 14.07V13.93C24.2049 13.3243 23.7392 12.8333 23.1647 12.8333Z" fill="#808080"/>
<path d="M23.165 18.6667H5.32819C4.75376 18.6667 4.28809 19.1577 4.28809 19.7633V19.9033C4.28809 20.509 4.75376 21 5.32819 21H23.165C23.7394 21 24.2051 20.509 24.2051 19.9033V19.7633C24.2051 19.1577 23.7394 18.6667 23.165 18.6667Z" fill="#808080"/>
<path d="M23.165 7H5.32819C4.75376 7 4.28809 7.49099 4.28809 8.09667V8.23667C4.28809 8.84234 4.75376 9.33333 5.32819 9.33333H23.165C23.7394 9.33333 24.2051 8.84234 24.2051 8.23667V8.09667C24.2051 7.49099 23.7394 7 23.165 7Z" fill="#808080"/>
</svg>
