<svg width="40" height="40" viewBox="0 0 40 40" fill="none" xmlns="http://www.w3.org/2000/svg">
<path fill-rule="evenodd" clip-rule="evenodd" d="M19.9996 0.572632C16.2818 0.57247 12.6421 1.63906 9.51244 3.64579C6.38277 5.65252 3.89462 8.51512 2.34334 11.8938C0.792066 15.2724 0.242809 19.0252 0.760772 22.7068C1.27874 26.3883 2.84217 29.8438 5.26548 32.6633L2.83081 35.098C2.69073 35.2333 2.579 35.3951 2.50213 35.574C2.42526 35.753 2.3848 35.9454 2.38311 36.1402C2.38142 36.3349 2.41853 36.528 2.49227 36.7083C2.56602 36.8885 2.67492 37.0523 2.81263 37.19C2.95034 37.3277 3.1141 37.4366 3.29434 37.5104C3.47459 37.5841 3.66772 37.6212 3.86247 37.6195C4.05721 37.6178 4.24967 37.5774 4.4286 37.5005C4.60754 37.4236 4.76938 37.3119 4.90468 37.1718L7.33934 34.7372C11.0544 37.9329 15.84 39.6066 20.737 39.4229C25.634 39.2391 30.2807 37.2115 33.7459 33.7463C37.211 30.2812 39.2386 25.6345 39.4224 20.7375C39.6061 15.8405 37.9324 11.0549 34.7367 7.33983L37.1713 4.90517C37.3077 4.7688 37.4159 4.60691 37.4897 4.42874C37.5635 4.25057 37.6015 4.05961 37.6015 3.86677C37.6015 3.67392 37.5635 3.48296 37.4897 3.30479C37.4159 3.12662 37.3077 2.96473 37.1713 2.82837C37.035 2.692 36.8731 2.58383 36.6949 2.51003C36.5168 2.43623 36.3258 2.39825 36.1329 2.39825C35.9401 2.39825 35.7491 2.43623 35.571 2.51003C35.3928 2.58383 35.2309 2.692 35.0945 2.82837L32.6599 5.26303C29.1389 2.23211 24.6454 0.568399 19.9996 0.575565M30.6828 7.24597C27.4941 4.57265 23.4195 3.19099 19.2624 3.3734C15.1053 3.5558 11.1674 5.28904 8.22502 8.23138C5.28268 11.1737 3.54945 15.1116 3.36704 19.2687C3.18463 23.4258 4.56629 27.5004 7.23961 30.6892L30.6828 7.24597ZM9.31641 32.7601C12.5052 35.4334 16.5798 36.8151 20.7368 36.6327C24.8939 36.4503 28.8319 34.717 31.7742 31.7747C34.7165 28.8323 36.4498 24.8944 36.6322 20.7373C36.8146 16.5802 35.4329 12.5056 32.7596 9.3169L9.31641 32.7601Z" fill="#808080"/>
</svg>
