<svg width="17" height="11" viewBox="0 0 17 11" fill="none" xmlns="http://www.w3.org/2000/svg">
<path fill-rule="evenodd" clip-rule="evenodd" d="M9.32475 9.90831C9.10964 10.1417 8.81792 10.2727 8.51374 10.2727C8.20957 10.2727 7.91785 10.1417 7.70273 9.90831L1.21348 2.86722C1.10392 2.75241 1.01653 2.61506 0.956412 2.46321C0.896293 2.31136 0.864648 2.14803 0.863325 1.98276C0.862001 1.8175 0.891025 1.6536 0.948703 1.50064C1.00638 1.34767 1.09156 1.2087 1.19926 1.09183C1.30697 0.974969 1.43505 0.882549 1.57602 0.819966C1.717 0.757383 1.86805 0.725891 2.02037 0.727327C2.17268 0.728763 2.3232 0.763099 2.46316 0.82833C2.60311 0.893562 2.72969 0.988383 2.83551 1.10726L8.51374 7.26837L14.192 1.10726C14.4083 0.880536 14.6981 0.75508 14.9989 0.757916C15.2996 0.760752 15.5873 0.891652 15.8 1.12242C16.0127 1.3532 16.1334 1.66537 16.136 1.99172C16.1386 2.31807 16.023 2.63248 15.814 2.86722L9.32475 9.90831Z" fill="#FE0101"/>
</svg>
