<svg width="686" height="631" viewBox="0 0 686 631" fill="none" xmlns="http://www.w3.org/2000/svg">
<path d="M564.03 85.6536C561.997 87.1768 559.578 83.9479 561.611 82.4247C562.039 82.1039 562.577 81.9664 563.106 82.0423C563.636 82.1182 564.114 82.4014 564.435 82.8296C564.755 83.2577 564.893 83.7958 564.817 84.3254C564.741 84.855 564.458 85.3328 564.03 85.6536Z" fill="#FF8383"/>
<path d="M525.181 107.945C523.133 109.572 520.714 106.343 522.747 104.82C524.78 103.297 527.214 106.421 525.181 107.945Z" fill="#FF8383"/>
<path d="M479.296 132.427C477.248 134.055 474.828 130.826 476.861 129.303C478.894 127.779 481.329 130.904 479.296 132.427Z" fill="#FF8383"/>
<path d="M499.134 142.957C497.101 144.48 494.682 141.251 496.715 139.728C497.143 139.407 497.681 139.27 498.211 139.346C498.741 139.422 499.218 139.705 499.539 140.133C499.86 140.561 499.998 141.099 499.922 141.629C499.846 142.158 499.563 142.636 499.134 142.957Z" fill="#FF8383"/>
<path d="M451.803 128.38C451.375 128.701 450.837 128.839 450.307 128.763C449.777 128.687 449.3 128.404 448.979 127.975C448.658 127.547 448.52 127.009 448.596 126.48C448.672 125.95 448.956 125.472 449.384 125.151C451.417 123.628 453.836 126.857 451.803 128.38Z" fill="#FF8383"/>
<path d="M420.78 131.831C418.747 133.354 416.328 130.125 418.361 128.602C418.789 128.281 419.327 128.144 419.857 128.219C420.386 128.295 420.864 128.579 421.185 129.007C421.505 129.435 421.643 129.973 421.567 130.503C421.491 131.032 421.208 131.51 420.78 131.831Z" fill="#FF8383"/>
<path d="M389.827 144.474C389.399 144.795 388.861 144.933 388.331 144.857C387.802 144.781 387.324 144.498 387.003 144.069C386.682 143.641 386.545 143.103 386.621 142.574C386.697 142.044 386.98 141.566 387.408 141.246C389.441 139.722 391.86 142.951 389.827 144.474Z" fill="#FF8383"/>
<path d="M358.707 162.001C356.659 163.629 354.24 160.4 356.273 158.877C358.306 157.354 360.74 160.478 358.707 162.001Z" fill="#FF8383"/>
<path d="M335.417 180.757C333.384 182.28 331.07 179.067 333.103 177.543C333.529 177.333 334.016 177.28 334.477 177.395C334.938 177.51 335.343 177.784 335.621 178.17C335.899 178.556 336.031 179.027 335.993 179.501C335.956 179.975 335.752 180.42 335.417 180.757Z" fill="#FF8383"/>
<path d="M319.81 195.813C319.381 196.134 318.843 196.272 318.314 196.196C317.784 196.12 317.307 195.837 316.986 195.408C316.665 194.98 316.527 194.442 316.603 193.912C316.679 193.383 316.962 192.905 317.391 192.584C319.424 191.061 321.843 194.29 319.81 195.813Z" fill="#FF8383"/>
<path d="M295.91 208.397C293.877 209.92 291.458 206.691 293.491 205.168C293.919 204.847 294.457 204.709 294.986 204.785C295.516 204.861 295.994 205.145 296.315 205.573C296.635 206.001 296.773 206.539 296.697 207.068C296.621 207.598 296.338 208.076 295.91 208.397Z" fill="#FF8383"/>
<path d="M261.432 217.331C259.294 218.839 256.965 215.73 258.998 214.206C261.031 212.683 263.465 215.807 261.432 217.331Z" fill="#FF8383"/>
<path d="M225.549 229.371C223.516 230.894 221.097 227.665 223.13 226.142C223.558 225.821 224.096 225.684 224.626 225.76C225.156 225.836 225.633 226.119 225.954 226.547C226.275 226.975 226.413 227.513 226.337 228.043C226.261 228.572 225.978 229.05 225.549 229.371Z" fill="#FF8383"/>
<path d="M192.265 242.639C191.837 242.96 191.298 243.097 190.769 243.021C190.239 242.946 189.762 242.662 189.441 242.234C189.12 241.806 188.982 241.268 189.058 240.738C189.134 240.209 189.417 239.731 189.846 239.41C191.879 237.887 194.298 241.116 192.265 242.639Z" fill="#FF8383"/>
<path d="M163.896 258.105C161.863 259.628 159.429 256.504 161.462 254.981C163.495 253.458 165.929 256.582 163.896 258.105Z" fill="#FF8383"/>
<path d="M150.948 271.729C148.915 273.252 146.481 270.128 148.514 268.604C150.547 267.081 152.981 270.206 150.948 271.729Z" fill="#FF8383"/>
<path d="M147.114 290.283C145.066 291.911 142.647 288.682 144.68 287.159C146.713 285.636 149.147 288.76 147.114 290.283Z" fill="#FF8383"/>
<path d="M152.993 308.099C152.565 308.42 152.027 308.557 151.497 308.481C150.968 308.405 150.49 308.122 150.169 307.694C149.848 307.266 149.711 306.728 149.787 306.198C149.863 305.668 150.146 305.191 150.574 304.87C152.607 303.347 155.026 306.576 152.993 308.099Z" fill="#FF8383"/>
<path d="M167.884 323.363C165.836 324.991 163.416 321.762 165.449 320.239C167.482 318.715 169.916 321.84 167.884 323.363Z" fill="#FF8383"/>
<path d="M189.039 328.424C186.991 330.052 184.572 326.823 186.605 325.3C188.638 323.776 191.072 326.901 189.039 328.424Z" fill="#FF8383"/>
<path d="M216.835 323.658C214.802 325.181 212.368 322.056 214.401 320.533C216.434 319.01 218.868 322.134 216.835 323.658Z" fill="#FF8383"/>
<path d="M252.18 313.14C250.147 314.664 247.713 311.539 249.746 310.016C251.779 308.493 254.213 311.617 252.18 313.14Z" fill="#FF8383"/>
<path d="M293.118 295.631C291.07 297.259 288.651 294.03 290.684 292.507C292.717 290.984 295.151 294.108 293.118 295.631Z" fill="#FF8383"/>
<path d="M318.645 282.852C316.507 284.36 314.178 281.251 316.211 279.728C318.244 278.205 320.678 281.329 318.645 282.852Z" fill="#FF8383"/>
<path d="M341.692 273.989C339.644 275.617 337.225 272.388 339.258 270.865C341.291 269.341 343.725 272.466 341.692 273.989Z" fill="#FF8383"/>
<path d="M366.843 269.801C366.415 270.122 365.877 270.26 365.347 270.184C364.817 270.108 364.34 269.825 364.019 269.396C363.698 268.968 363.56 268.43 363.636 267.9C363.712 267.371 363.996 266.893 364.424 266.572C366.457 265.049 368.876 268.278 366.843 269.801Z" fill="#FF8383"/>
<path d="M319.864 299.678C317.831 301.201 315.397 298.077 317.43 296.554C317.848 296.327 318.333 296.256 318.798 296.354C319.263 296.451 319.679 296.71 319.971 297.085C320.263 297.46 320.412 297.926 320.393 298.401C320.373 298.876 320.186 299.328 319.864 299.678Z" fill="#FF8383"/>
<path d="M317.705 314.739C315.657 316.367 313.238 313.138 315.271 311.615C317.304 310.092 319.738 313.216 317.705 314.739Z" fill="#FF8383"/>
<path d="M297.051 318.077C296.846 318.23 296.614 318.341 296.367 318.404C296.12 318.467 295.863 318.481 295.61 318.445C295.358 318.409 295.115 318.323 294.895 318.193C294.676 318.063 294.484 317.891 294.331 317.687C294.178 317.483 294.067 317.25 294.004 317.003C293.941 316.756 293.927 316.499 293.963 316.246C293.999 315.994 294.085 315.751 294.215 315.531C294.345 315.312 294.517 315.12 294.721 314.967C296.769 313.34 299.084 316.553 297.051 318.077Z" fill="#FF8383"/>
<path d="M272.373 333.114C271.947 333.325 271.46 333.377 270.999 333.263C270.537 333.148 270.132 332.873 269.854 332.488C269.576 332.102 269.445 331.63 269.482 331.157C269.519 330.683 269.723 330.238 270.058 329.9C272.091 328.377 274.406 331.591 272.373 333.114Z" fill="#FF8383"/>
<path d="M252.544 332.94C252.116 333.26 251.578 333.398 251.048 333.322C250.519 333.246 250.041 332.963 249.72 332.535C249.399 332.107 249.262 331.569 249.338 331.039C249.414 330.509 249.697 330.032 250.125 329.711C252.158 328.188 254.577 331.416 252.544 332.94Z" fill="#FF8383"/>
<path d="M228.842 338.934C226.809 340.457 224.39 337.228 226.528 335.72C228.665 334.212 230.89 337.306 228.842 338.934Z" fill="#FF8383"/>
<path d="M204.501 338.966C202.468 340.49 200.048 337.261 202.081 335.738C202.51 335.417 203.048 335.279 203.577 335.355C204.107 335.431 204.585 335.714 204.905 336.143C205.226 336.571 205.364 337.109 205.288 337.638C205.212 338.168 204.929 338.646 204.501 338.966Z" fill="#FF8383"/>
<path d="M181.697 339.434C179.649 341.062 177.23 337.833 179.263 336.31C181.296 334.787 183.73 337.911 181.697 339.434Z" fill="#FF8383"/>
<path d="M155.624 335.911C153.591 337.434 151.171 334.205 153.204 332.682C153.633 332.361 154.171 332.223 154.7 332.299C155.23 332.375 155.708 332.658 156.028 333.087C156.349 333.515 156.487 334.053 156.411 334.582C156.335 335.112 156.052 335.59 155.624 335.911Z" fill="#FF8383"/>
<path d="M130.579 336.375C128.531 338.002 126.112 334.774 128.145 333.25C130.178 331.727 132.612 334.852 130.579 336.375Z" fill="#FF8383"/>
<path d="M115.019 344.391C112.971 346.019 110.552 342.79 112.585 341.267C114.618 339.743 117.052 342.868 115.019 344.391Z" fill="#FF8383"/>
<path d="M109.455 357.898C107.422 359.421 105.003 356.192 107.035 354.669C107.464 354.348 108.002 354.211 108.531 354.287C109.061 354.363 109.539 354.646 109.859 355.074C110.18 355.502 110.318 356.04 110.242 356.57C110.166 357.1 109.883 357.577 109.455 357.898Z" fill="#FF8383"/>
<path d="M112.364 368.136C111.936 368.457 111.398 368.594 110.869 368.518C110.339 368.442 109.861 368.159 109.54 367.731C109.22 367.303 109.082 366.765 109.158 366.235C109.234 365.705 109.517 365.228 109.945 364.907C111.978 363.384 114.397 366.613 112.364 368.136Z" fill="#FF8383"/>
<path d="M123.932 362.64C123.504 362.961 122.965 363.099 122.436 363.023C121.906 362.947 121.429 362.663 121.108 362.235C120.787 361.807 120.649 361.269 120.725 360.739C120.801 360.21 121.084 359.732 121.513 359.411C123.546 357.888 125.965 361.117 123.932 362.64Z" fill="#FF8383"/>
<path d="M142.068 371.647C140.035 373.171 137.616 369.942 139.649 368.419C140.077 368.098 140.615 367.96 141.145 368.036C141.674 368.112 142.152 368.395 142.473 368.823C142.794 369.252 142.931 369.79 142.855 370.319C142.779 370.849 142.496 371.327 142.068 371.647Z" fill="#FF8383"/>
<path d="M131.114 372.852C129.081 374.375 126.647 371.251 128.68 369.728C130.713 368.204 133.147 371.329 131.114 372.852Z" fill="#FF8383"/>
<path d="M164.504 266.519C162.471 268.042 160.036 264.918 162.069 263.395C164.102 261.871 166.537 264.996 164.504 266.519Z" fill="#FF8383"/>
<path d="M180.046 261.596C179.618 261.917 179.08 262.055 178.55 261.979C178.021 261.903 177.543 261.62 177.222 261.191C176.901 260.763 176.764 260.225 176.84 259.696C176.916 259.166 177.199 258.688 177.627 258.367C178.055 258.047 178.593 257.909 179.123 257.985C179.652 258.061 180.13 258.344 180.451 258.772C180.772 259.2 180.909 259.739 180.833 260.268C180.758 260.798 180.474 261.275 180.046 261.596Z" fill="#FF8383"/>
<path d="M194.228 261.708C194.016 261.867 193.774 261.982 193.518 262.048C193.261 262.113 192.994 262.128 192.732 262.09C192.47 262.053 192.217 261.964 191.989 261.829C191.762 261.694 191.562 261.515 191.404 261.303C191.245 261.091 191.129 260.85 191.064 260.593C190.998 260.336 190.984 260.069 191.021 259.807C191.059 259.545 191.148 259.293 191.283 259.065C191.418 258.837 191.596 258.638 191.808 258.479C193.841 256.956 196.261 260.185 194.228 261.708Z" fill="#FF8383"/>
<path d="M201.499 273.53C199.466 275.053 197.047 271.825 199.185 270.316C201.322 268.808 203.547 271.903 201.499 273.53Z" fill="#FF8383"/>
<path d="M205.54 291.509C203.507 293.032 201.073 289.908 203.106 288.385C205.139 286.862 207.573 289.986 205.54 291.509Z" fill="#FF8383"/>
<path d="M208.895 305.334C208.683 305.493 208.441 305.609 208.185 305.674C207.928 305.74 207.661 305.754 207.399 305.717C207.137 305.679 206.884 305.59 206.656 305.455C206.429 305.32 206.229 305.141 206.071 304.929C205.912 304.717 205.796 304.476 205.731 304.219C205.665 303.963 205.651 303.696 205.688 303.433C205.726 303.171 205.815 302.919 205.95 302.691C206.085 302.463 206.263 302.264 206.475 302.105C208.508 300.582 210.928 303.811 208.895 305.334Z" fill="#FF8383"/>
<path d="M200.342 314.354C198.309 315.877 195.89 312.648 197.923 311.125C198.351 310.804 198.889 310.666 199.419 310.742C199.949 310.818 200.426 311.101 200.747 311.53C201.068 311.958 201.206 312.496 201.13 313.025C201.054 313.555 200.77 314.033 200.342 314.354Z" fill="#FF8383"/>
<path d="M186.758 318.277C184.725 319.8 182.29 316.676 184.323 315.153C186.356 313.63 188.79 316.754 186.758 318.277Z" fill="#FF8383"/>
<path d="M168.08 316.026C167.652 316.347 167.114 316.484 166.584 316.409C166.055 316.333 165.577 316.049 165.256 315.621C164.935 315.193 164.798 314.655 164.874 314.125C164.95 313.596 165.233 313.118 165.661 312.797C167.694 311.274 170.113 314.503 168.08 316.026Z" fill="#FF8383"/>
<path d="M157.33 299.435C156.902 299.756 156.364 299.894 155.834 299.818C155.305 299.742 154.827 299.459 154.506 299.03C154.185 298.602 154.048 298.064 154.124 297.535C154.2 297.005 154.483 296.527 154.911 296.206C156.944 294.683 159.363 297.912 157.33 299.435Z" fill="#FF8383"/>
<path d="M155.634 282.22C153.587 283.848 151.167 280.619 153.2 279.096C155.233 277.572 157.667 280.697 155.634 282.22Z" fill="#FF8383"/>
<path d="M192.007 280.176C189.974 281.7 187.539 278.575 189.572 277.052C191.605 275.529 194.039 278.653 192.007 280.176Z" fill="#FF8383"/>
<path d="M195.99 293.342C195.786 293.495 195.554 293.606 195.306 293.669C195.059 293.733 194.802 293.747 194.55 293.71C194.297 293.674 194.054 293.589 193.835 293.458C193.615 293.328 193.424 293.156 193.271 292.952C193.118 292.748 193.006 292.516 192.943 292.269C192.88 292.021 192.866 291.764 192.902 291.512C192.939 291.259 193.024 291.016 193.154 290.797C193.284 290.577 193.456 290.386 193.661 290.233C195.709 288.605 198.023 291.819 195.99 293.342Z" fill="#FF8383"/>
<path d="M160.923 377.87C158.875 379.498 156.455 376.269 158.488 374.746C160.521 373.223 162.956 376.347 160.923 377.87Z" fill="#FF8383"/>
<path d="M178.764 378.507C176.731 380.031 174.297 376.906 176.33 375.383C178.363 373.86 180.797 376.984 178.764 378.507Z" fill="#FF8383"/>
<path d="M203.732 382.3C201.699 383.823 199.384 380.609 201.417 379.086C201.843 378.875 202.33 378.823 202.791 378.937C203.252 379.052 203.658 379.327 203.936 379.712C204.213 380.098 204.345 380.57 204.308 381.044C204.271 381.517 204.066 381.962 203.732 382.3Z" fill="#FF8383"/>
<path d="M232.106 384.661C231.678 384.981 231.14 385.119 230.611 385.043C230.081 384.967 229.603 384.684 229.283 384.256C228.962 383.828 228.824 383.289 228.9 382.76C228.976 382.23 229.259 381.752 229.687 381.432C231.72 379.909 234.139 383.137 232.106 384.661Z" fill="#FF8383"/>
<path d="M230.911 355.775C228.863 357.402 226.444 354.173 228.477 352.65C230.51 351.127 232.944 354.251 230.911 355.775Z" fill="#FF8383"/>
<path d="M181.945 353.346C181.527 353.573 181.042 353.644 180.577 353.547C180.112 353.449 179.696 353.19 179.404 352.815C179.112 352.44 178.962 351.974 178.982 351.499C179.001 351.024 179.189 350.572 179.51 350.222C181.558 348.594 183.978 351.823 181.945 353.346Z" fill="#FF8383"/>
<path d="M263.352 355.089C261.319 356.612 258.9 353.383 260.933 351.86C261.361 351.539 261.899 351.401 262.429 351.477C262.958 351.553 263.436 351.836 263.757 352.265C264.078 352.693 264.215 353.231 264.139 353.76C264.063 354.29 263.78 354.768 263.352 355.089Z" fill="#FF8383"/>
<path d="M256.525 381.863C256.096 382.183 255.558 382.321 255.029 382.245C254.499 382.169 254.021 381.886 253.701 381.458C253.38 381.03 253.242 380.492 253.318 379.962C253.394 379.432 253.677 378.955 254.105 378.634C256.138 377.111 258.557 380.339 256.525 381.863Z" fill="#FF8383"/>
<path d="M205.95 395.855C205.522 396.176 204.984 396.314 204.455 396.238C203.925 396.162 203.447 395.878 203.126 395.45C202.806 395.022 202.668 394.484 202.744 393.954C202.82 393.425 203.103 392.947 203.531 392.626C203.959 392.306 204.498 392.168 205.027 392.244C205.557 392.32 206.034 392.603 206.355 393.031C206.676 393.459 206.814 393.997 206.738 394.527C206.662 395.057 206.379 395.534 205.95 395.855Z" fill="#FF8383"/>
<path d="M180.611 391.688C178.563 393.315 176.144 390.086 178.177 388.563C180.21 387.04 182.644 390.164 180.611 391.688Z" fill="#FF8383"/>
<path d="M155.164 388.254C153.131 389.777 150.711 386.548 152.744 385.025C153.173 384.704 153.711 384.566 154.24 384.642C154.77 384.718 155.248 385.002 155.568 385.43C155.889 385.858 156.027 386.396 155.951 386.926C155.875 387.455 155.592 387.933 155.164 388.254Z" fill="#FF8383"/>
<path d="M134.395 387.198C133.966 387.519 133.428 387.657 132.899 387.581C132.369 387.505 131.891 387.222 131.571 386.793C131.25 386.365 131.112 385.827 131.188 385.298C131.264 384.768 131.547 384.29 131.975 383.969C134.008 382.446 136.428 385.675 134.395 387.198Z" fill="#FF8383"/>
<path d="M108.936 379.386C106.903 380.909 104.484 377.68 106.517 376.157C106.945 375.836 107.483 375.699 108.013 375.774C108.542 375.85 109.02 376.134 109.341 376.562C109.662 376.99 109.799 377.528 109.723 378.058C109.647 378.587 109.364 379.065 108.936 379.386Z" fill="#FF8383"/>
<path d="M83.4164 372.738C81.2789 374.246 78.9493 371.136 80.9823 369.613C83.0153 368.09 85.4494 371.214 83.4164 372.738Z" fill="#FF8383"/>
<path d="M64.6026 376.659C62.5697 378.182 60.2551 374.968 62.2881 373.445C62.7141 373.234 63.2011 373.182 63.6623 373.296C64.1234 373.411 64.529 373.686 64.8067 374.071C65.0845 374.457 65.2164 374.929 65.179 375.402C65.1416 375.876 64.9374 376.321 64.6026 376.659Z" fill="#FF8383"/>
<path d="M52.6265 387.966C50.5935 389.489 48.1744 386.26 50.2073 384.737C50.6355 384.416 51.1736 384.279 51.7032 384.354C52.2328 384.43 52.7105 384.714 53.0313 385.142C53.3521 385.57 53.4897 386.108 53.4138 386.638C53.3378 387.167 53.0547 387.645 52.6265 387.966Z" fill="#FF8383"/>
<path d="M52.7101 403.028C52.2819 403.349 51.7438 403.487 51.2142 403.411C50.6846 403.335 50.2069 403.052 49.8861 402.624C49.5653 402.195 49.4277 401.657 49.5036 401.128C49.5795 400.598 49.8627 400.12 50.2909 399.8C52.3239 398.276 54.743 401.505 52.7101 403.028Z" fill="#FF8383"/>
<path d="M65.0212 405.005C62.9732 406.633 60.5541 403.404 62.587 401.881C64.62 400.358 67.0542 403.482 65.0212 405.005Z" fill="#FF8383"/>
<path d="M71.846 413.988C71.4119 414.351 70.8516 414.526 70.2883 414.475C69.7251 414.424 69.205 414.152 68.8426 413.718C68.4802 413.284 68.3051 412.723 68.3559 412.16C68.4066 411.597 68.679 411.077 69.1131 410.714C71.1461 409.191 73.5652 412.42 71.5322 413.943L71.846 413.988Z" fill="#FF8383"/>
<path d="M85.0534 416.417C83.0204 417.94 80.5863 414.816 82.6193 413.293C84.6522 411.77 87.0864 414.894 85.0534 416.417Z" fill="#FF8383"/>
<path d="M104.325 426.437C102.277 428.065 99.8578 424.836 101.891 423.313C103.924 421.79 106.358 424.914 104.325 426.437Z" fill="#FF8383"/>
<path d="M129.695 434.877C127.647 436.505 125.332 433.291 127.365 431.768C129.398 430.245 131.832 433.369 129.695 434.877Z" fill="#FF8383"/>
<path d="M131.71 404.426C129.678 405.949 127.258 402.721 129.291 401.197C129.719 400.877 130.258 400.739 130.787 400.815C131.317 400.891 131.795 401.174 132.115 401.602C132.436 402.03 132.574 402.568 132.498 403.098C132.422 403.628 132.139 404.105 131.71 404.426Z" fill="#FF8383"/>
<path d="M202.462 412.006C202.034 412.327 201.496 412.464 200.966 412.388C200.437 412.312 199.959 412.029 199.638 411.601C199.317 411.173 199.18 410.635 199.256 410.105C199.331 409.576 199.615 409.098 200.043 408.777C202.076 407.254 204.495 410.483 202.462 412.006Z" fill="#FF8383"/>
<path d="M157.771 434.1C155.738 435.623 153.319 432.394 155.352 430.871C155.78 430.55 156.318 430.412 156.848 430.488C157.377 430.564 157.855 430.848 158.176 431.276C158.497 431.704 158.634 432.242 158.558 432.771C158.482 433.301 158.199 433.779 157.771 434.1Z" fill="#FF8383"/>
<path d="M180.456 432.976C178.423 434.499 175.989 431.375 178.022 429.852C180.055 428.329 182.489 431.453 180.456 432.976Z" fill="#FF8383"/>
<path d="M199.93 423.705C197.897 425.228 195.478 422 197.511 420.476C197.939 420.156 198.477 420.018 199.007 420.094C199.536 420.17 200.014 420.453 200.335 420.881C200.656 421.309 200.793 421.847 200.718 422.377C200.642 422.907 200.358 423.384 199.93 423.705Z" fill="#FF8383"/>
<path d="M233.036 409.452C232.608 409.773 232.07 409.91 231.54 409.834C231.011 409.758 230.533 409.475 230.212 409.047C229.891 408.619 229.754 408.081 229.83 407.551C229.906 407.022 230.189 406.544 230.617 406.223C232.65 404.7 235.069 407.929 233.036 409.452Z" fill="#FF8383"/>
<path d="M102.224 444.068C100.191 445.591 97.7572 442.467 99.7902 440.944C101.823 439.421 104.257 442.545 102.224 444.068Z" fill="#FF8383"/>
<path d="M73.9517 445.459C71.9187 446.983 69.4996 443.754 71.5325 442.231C71.9607 441.91 72.4988 441.772 73.0284 441.848C73.558 441.924 74.0357 442.207 74.3565 442.635C74.6773 443.064 74.8149 443.602 74.739 444.131C74.663 444.661 74.3798 445.139 73.9517 445.459Z" fill="#FF8383"/>
<path d="M44.4542 447.21C44.026 447.53 43.4879 447.668 42.9583 447.592C42.4287 447.516 41.951 447.233 41.6302 446.805C41.3094 446.377 41.1718 445.838 41.2478 445.309C41.3237 444.779 41.6069 444.302 42.035 443.981C44.068 442.458 46.4872 445.686 44.4542 447.21Z" fill="#FF8383"/>
<path d="M28.3708 456.645C26.3228 458.273 23.9037 455.044 25.9367 453.521C27.9696 451.998 30.4038 455.122 28.3708 456.645Z" fill="#FF8383"/>
<path d="M19.0679 472.39C17.0349 473.913 14.6158 470.684 16.6488 469.161C17.0769 468.84 17.615 468.702 18.1446 468.778C18.6742 468.854 19.152 469.137 19.4727 469.566C19.7935 469.994 19.9311 470.532 19.8552 471.062C19.7793 471.591 19.4961 472.069 19.0679 472.39Z" fill="#FF8383"/>
<path d="M23.3491 490.188C22.9368 490.497 22.4187 490.63 21.9087 490.557C21.3987 490.484 20.9387 490.211 20.6297 489.798C20.3208 489.386 20.1883 488.868 20.2614 488.358C20.3346 487.848 20.6073 487.388 21.0196 487.079C21.2237 486.926 21.456 486.815 21.7032 486.752C21.9503 486.689 22.2075 486.675 22.46 486.711C22.7126 486.747 22.9555 486.833 23.1749 486.963C23.3943 487.093 23.586 487.265 23.739 487.469C23.8919 487.673 24.0032 487.905 24.0664 488.153C24.1296 488.4 24.1435 488.657 24.1073 488.909C24.071 489.162 23.9855 489.405 23.8554 489.624C23.7253 489.844 23.5533 490.035 23.3491 490.188Z" fill="#FF8383"/>
<path d="M33.9594 487.653C31.8218 489.161 29.4923 486.052 31.5253 484.529C33.5582 483.006 35.9924 486.13 33.9594 487.653Z" fill="#FF8383"/>
<path d="M44.6101 495.265C42.5621 496.893 40.1429 493.664 42.1759 492.141C44.2089 490.617 46.643 493.742 44.6101 495.265Z" fill="#FF8383"/>
<path d="M59.6579 493.047C57.6249 494.57 55.1908 491.446 57.2238 489.922C59.2567 488.399 61.6909 491.523 59.6579 493.047Z" fill="#FF8383"/>
<path d="M74.2866 494.503C72.2537 496.026 69.8345 492.797 71.8675 491.274C72.2957 490.953 72.8337 490.815 73.3633 490.891C73.8929 490.967 74.3707 491.25 74.6915 491.679C75.0123 492.107 75.1499 492.645 75.074 493.174C74.998 493.704 74.7148 494.182 74.2866 494.503Z" fill="#FF8383"/>
<path d="M95.8952 462.909C93.8622 464.432 91.4281 461.308 93.4611 459.785C95.494 458.262 97.9282 461.386 95.8952 462.909Z" fill="#FF8383"/>
<path d="M99.6645 485.012C97.5269 486.52 95.1974 483.411 97.2303 481.887C99.2633 480.364 101.697 483.488 99.6645 485.012Z" fill="#FF8383"/>
<path d="M124.158 479.449C122.125 480.972 119.691 477.848 121.724 476.325C123.757 474.802 126.191 477.926 124.158 479.449Z" fill="#FF8383"/>
<path d="M148.597 463.099C146.564 464.623 144.13 461.498 146.163 459.975C148.196 458.452 150.63 461.576 148.597 463.099Z" fill="#FF8383"/>
<path d="M173.064 453.265C171.031 454.788 168.612 451.559 170.645 450.036C171.073 449.715 171.611 449.578 172.141 449.654C172.67 449.73 173.148 450.013 173.469 450.441C173.79 450.869 173.927 451.407 173.851 451.937C173.775 452.466 173.492 452.944 173.064 453.265Z" fill="#FF8383"/>
<path d="M194.422 443.518C192.374 445.146 189.954 441.917 191.987 440.394C194.02 438.871 196.455 441.995 194.422 443.518Z" fill="#FF8383"/>
<path d="M200.646 456.684C198.598 458.312 196.179 455.083 198.212 453.56C200.245 452.037 202.679 455.161 200.646 456.684Z" fill="#FF8383"/>
<path d="M128.5 494.589C126.467 496.112 124.047 492.884 126.08 491.36C126.509 491.04 127.047 490.902 127.576 490.978C128.106 491.054 128.584 491.337 128.904 491.765C129.225 492.193 129.363 492.732 129.287 493.261C129.211 493.791 128.928 494.268 128.5 494.589Z" fill="#FF8383"/>
<path d="M213.498 425.865C213.07 426.186 212.532 426.323 212.002 426.247C211.473 426.172 210.995 425.888 210.674 425.46C210.353 425.032 210.216 424.494 210.292 423.964C210.368 423.435 210.651 422.957 211.079 422.636C213.112 421.113 215.531 424.342 213.498 425.865Z" fill="#FF8383"/>
<path d="M263.481 395.137C263.069 395.446 262.551 395.578 262.041 395.505C261.531 395.432 261.07 395.159 260.762 394.747C260.453 394.335 260.32 393.817 260.393 393.307C260.466 392.797 260.739 392.337 261.151 392.028C261.356 391.875 261.588 391.764 261.835 391.7C262.082 391.637 262.339 391.623 262.592 391.659C262.844 391.696 263.087 391.781 263.307 391.911C263.526 392.041 263.718 392.213 263.871 392.418C264.024 392.622 264.135 392.854 264.198 393.101C264.261 393.348 264.275 393.606 264.239 393.858C264.203 394.111 264.117 394.353 263.987 394.573C263.857 394.792 263.685 394.984 263.481 395.137Z" fill="#FF8383"/>
<path d="M290.706 369.046C288.673 370.569 286.253 367.34 288.286 365.817C288.715 365.496 289.253 365.359 289.782 365.435C290.312 365.511 290.79 365.794 291.11 366.222C291.431 366.65 291.569 367.188 291.493 367.718C291.417 368.247 291.134 368.725 290.706 369.046Z" fill="#FF8383"/>
<path d="M316.807 344.82C314.759 346.448 312.34 343.219 314.373 341.696C316.406 340.172 318.84 343.297 316.807 344.82Z" fill="#FF8383"/>
<path d="M276.167 366.961C274.119 368.589 271.7 365.36 273.733 363.837C275.766 362.313 278.2 365.438 276.167 366.961Z" fill="#FF8383"/>
<path d="M296.421 352.253C295.993 352.574 295.455 352.711 294.925 352.635C294.396 352.559 293.918 352.276 293.597 351.848C293.276 351.42 293.139 350.882 293.215 350.352C293.29 349.823 293.574 349.345 294.002 349.024C296.035 347.501 298.454 350.73 296.421 352.253Z" fill="#FF8383"/>
<path d="M398.653 276.497C396.605 278.125 394.186 274.896 396.219 273.373C398.252 271.85 400.686 274.974 398.653 276.497Z" fill="#FF8383"/>
<path d="M362.723 291.094C360.69 292.617 358.256 289.493 360.394 287.985C362.531 286.477 364.756 289.571 362.723 291.094Z" fill="#FF8383"/>
<path d="M41.4313 517.439C39.3984 518.962 36.9642 515.838 38.9972 514.315C41.0302 512.792 43.4643 515.916 41.4313 517.439Z" fill="#FF8383"/>
<path d="M41.647 533.8C39.614 535.323 37.1949 532.094 39.2279 530.571C39.4399 530.412 39.681 530.297 39.9377 530.231C40.1944 530.165 40.4614 530.151 40.7237 530.189C40.9859 530.226 41.2382 530.315 41.4661 530.45C41.6939 530.585 41.893 530.764 42.0519 530.976C42.2107 531.188 42.3262 531.429 42.3918 531.686C42.4575 531.943 42.4719 532.21 42.4343 532.472C42.3967 532.734 42.3078 532.986 42.1727 533.214C42.0377 533.442 41.859 533.641 41.647 533.8Z" fill="#FF8383"/>
<path d="M56.0892 550.707C54.0562 552.23 51.6371 549.002 53.7747 547.493C55.9122 545.985 58.1372 549.08 56.0892 550.707Z" fill="#FF8383"/>
<path d="M60.424 545.778C58.391 547.302 55.9569 544.177 57.9898 542.654C58.4076 542.428 58.8922 542.357 59.3574 542.454C59.8226 542.551 60.2382 542.81 60.5303 543.185C60.8224 543.56 60.972 544.026 60.9525 544.501C60.9331 544.976 60.7458 545.429 60.424 545.778Z" fill="#FF8383"/>
<path d="M83.5284 540.233C83.1002 540.554 82.5622 540.691 82.0326 540.615C81.503 540.539 81.0252 540.256 80.7044 539.828C80.3836 539.4 80.246 538.862 80.322 538.332C80.3979 537.803 80.6811 537.325 81.1093 537.004C83.1422 535.481 85.5614 538.71 83.5284 540.233Z" fill="#FF8383"/>
<path d="M73.051 546.307C72.6228 546.628 72.0848 546.765 71.5552 546.69C71.0256 546.614 70.5478 546.33 70.227 545.902C69.9062 545.474 69.7687 544.936 69.8446 544.406C69.9205 543.877 70.2037 543.399 70.6319 543.078C71.06 542.757 71.5981 542.62 72.1277 542.696C72.6573 542.772 73.1351 543.055 73.4559 543.483C73.7766 543.911 73.9142 544.449 73.8383 544.979C73.7624 545.509 73.4792 545.986 73.051 546.307Z" fill="#FF8383"/>
<path d="M124.953 533.468C122.905 535.096 120.486 531.867 122.519 530.344C124.552 528.82 126.986 531.945 124.953 533.468Z" fill="#FF8383"/>
<path d="M158.25 524.578C156.217 526.102 153.797 522.873 155.83 521.35C156.259 521.029 156.797 520.891 157.326 520.967C157.856 521.043 158.334 521.326 158.654 521.754C158.975 522.183 159.113 522.721 159.037 523.25C158.961 523.78 158.678 524.258 158.25 524.578Z" fill="#FF8383"/>
<path d="M195.374 512.074C194.962 512.383 194.444 512.516 193.934 512.443C193.424 512.37 192.964 512.097 192.655 511.685C192.346 511.272 192.214 510.754 192.287 510.244C192.36 509.734 192.633 509.274 193.045 508.965C193.249 508.812 193.481 508.701 193.729 508.638C193.976 508.574 194.233 508.561 194.485 508.597C194.738 508.633 194.981 508.719 195.2 508.849C195.42 508.979 195.611 509.151 195.764 509.355C195.917 509.559 196.029 509.791 196.092 510.039C196.155 510.286 196.169 510.543 196.133 510.795C196.096 511.048 196.011 511.291 195.881 511.51C195.751 511.73 195.579 511.921 195.374 512.074Z" fill="#FF8383"/>
<path d="M227.894 504.889C227.465 505.21 226.927 505.348 226.398 505.272C225.868 505.196 225.39 504.913 225.07 504.484C224.749 504.056 224.611 503.518 224.687 502.989C224.763 502.459 225.046 501.981 225.474 501.66C227.507 500.137 229.927 503.366 227.894 504.889Z" fill="#FF8383"/>
<path d="M256.084 489.929C254.036 491.556 251.617 488.328 253.65 486.804C255.683 485.281 258.117 488.406 256.084 489.929Z" fill="#FF8383"/>
<path d="M220.787 493.408C218.754 494.932 216.32 491.807 218.353 490.284C220.386 488.761 222.82 491.885 220.787 493.408Z" fill="#FF8383"/>
<path d="M286.935 472.043C286.506 472.363 285.968 472.501 285.439 472.425C284.909 472.349 284.431 472.066 284.111 471.638C283.79 471.21 283.652 470.672 283.728 470.142C283.804 469.612 284.087 469.135 284.515 468.814C286.548 467.291 288.968 470.52 286.935 472.043Z" fill="#FF8383"/>
<path d="M316.902 455.845C316.474 456.166 315.936 456.303 315.407 456.228C314.877 456.152 314.399 455.868 314.078 455.44C313.758 455.012 313.62 454.474 313.696 453.944C313.772 453.415 314.055 452.937 314.483 452.616C316.516 451.093 318.935 454.322 316.902 455.845Z" fill="#FF8383"/>
<path d="M344.015 440.199C341.982 441.722 339.563 438.493 341.596 436.97C342.024 436.649 342.562 436.512 343.092 436.588C343.621 436.664 344.099 436.947 344.42 437.375C344.741 437.803 344.878 438.341 344.802 438.871C344.727 439.4 344.443 439.878 344.015 440.199Z" fill="#FF8383"/>
<path d="M378.287 424.511C376.239 426.139 373.82 422.91 375.853 421.387C377.886 419.864 380.32 422.988 378.287 424.511Z" fill="#FF8383"/>
<path d="M410.144 396.629C408.111 398.152 405.692 394.924 407.725 393.4C408.153 393.08 408.691 392.942 409.221 393.018C409.75 393.094 410.228 393.377 410.549 393.805C410.87 394.233 411.007 394.771 410.931 395.301C410.855 395.831 410.572 396.308 410.144 396.629Z" fill="#FF8383"/>
<path d="M347.745 453.649C345.712 455.172 343.293 451.943 345.326 450.42C345.754 450.099 346.292 449.962 346.821 450.038C347.351 450.114 347.829 450.397 348.149 450.825C348.47 451.253 348.608 451.791 348.532 452.321C348.456 452.85 348.173 453.328 347.745 453.649Z" fill="#FF8383"/>
<path d="M370.716 447.549C370.29 447.759 369.803 447.812 369.341 447.697C368.88 447.582 368.475 447.308 368.197 446.922C367.919 446.537 367.787 446.065 367.825 445.591C367.862 445.117 368.066 444.672 368.401 444.335C370.434 442.812 372.749 446.026 370.716 447.549Z" fill="#FF8383"/>
<path d="M394.99 430.854C392.852 432.362 390.523 429.253 392.556 427.73C394.589 426.207 397.023 429.331 394.99 430.854Z" fill="#FF8383"/>
<path d="M423.457 400.564C421.424 402.087 418.99 398.963 421.023 397.44C423.056 395.917 425.49 399.041 423.457 400.564Z" fill="#FF8383"/>
<path d="M450.206 365.119C448.173 366.642 445.738 363.518 447.876 362.01C450.014 360.502 452.239 363.596 450.206 365.119Z" fill="#FF8383"/>
<path d="M478.419 335.111C476.386 336.634 473.952 333.51 475.985 331.987C478.017 330.464 480.452 333.588 478.419 335.111Z" fill="#FF8383"/>
<path d="M518.377 302.093C516.329 303.72 514.014 300.507 516.047 298.983C516.46 298.675 516.978 298.542 517.488 298.615C517.998 298.688 518.458 298.961 518.767 299.373C519.076 299.786 519.208 300.304 519.135 300.814C519.062 301.324 518.789 301.784 518.377 302.093Z" fill="#FF8383"/>
<path d="M553.055 281.34C552.627 281.66 552.089 281.798 551.559 281.722C551.029 281.646 550.552 281.363 550.231 280.935C549.91 280.507 549.772 279.969 549.848 279.439C549.924 278.909 550.207 278.432 550.636 278.111C552.669 276.588 555.088 279.816 553.055 281.34Z" fill="#FF8383"/>
<path d="M599.313 258.725C597.28 260.248 594.846 257.124 596.879 255.601C598.912 254.078 601.346 257.202 599.313 258.725Z" fill="#FF8383"/>
<path d="M651.446 233.856C649.398 235.484 646.979 232.255 649.012 230.732C651.045 229.208 653.479 232.333 651.446 233.856Z" fill="#FF8383"/>
<path d="M522.823 163.858C520.79 165.381 518.476 162.168 520.509 160.644C520.935 160.434 521.422 160.381 521.883 160.496C522.344 160.611 522.75 160.885 523.027 161.271C523.305 161.657 523.437 162.128 523.4 162.602C523.362 163.076 523.158 163.521 522.823 163.858Z" fill="#FF8383"/>
<path d="M545.691 213.57C545.262 213.891 544.724 214.029 544.195 213.953C543.665 213.877 543.187 213.594 542.867 213.166C542.546 212.737 542.408 212.199 542.484 211.67C542.56 211.14 542.843 210.662 543.271 210.342C545.304 208.818 547.723 212.047 545.691 213.57Z" fill="#FF8383"/>
<path d="M490.484 230.848C490.056 231.169 489.518 231.307 488.989 231.231C488.459 231.155 487.981 230.872 487.661 230.443C487.34 230.015 487.202 229.477 487.278 228.948C487.354 228.418 487.637 227.94 488.065 227.619C490.098 226.096 492.517 229.325 490.484 230.848Z" fill="#FF8383"/>
<path d="M462.054 307.789C460.006 309.417 457.587 306.188 459.62 304.665C461.653 303.141 464.087 306.266 462.054 307.789Z" fill="#FF8383"/>
<path d="M478.899 269.961C478.487 270.27 477.969 270.403 477.459 270.33C476.949 270.257 476.488 269.984 476.18 269.572C475.871 269.159 475.738 268.641 475.811 268.131C475.884 267.621 476.157 267.161 476.569 266.852C476.982 266.543 477.5 266.411 478.01 266.484C478.52 266.557 478.98 266.83 479.289 267.242C479.598 267.654 479.73 268.172 479.657 268.682C479.584 269.192 479.311 269.652 478.899 269.961Z" fill="#FF8383"/>
<path d="M238.599 250.776C236.566 252.3 234.147 249.071 236.18 247.548C236.608 247.227 237.146 247.089 237.676 247.165C238.205 247.241 238.683 247.524 239.004 247.952C239.325 248.381 239.462 248.919 239.386 249.448C239.311 249.978 239.027 250.456 238.599 250.776Z" fill="#FF8383"/>
<path d="M243.932 281.322C241.899 282.845 239.48 279.617 241.513 278.093C241.941 277.773 242.479 277.635 243.009 277.711C243.538 277.787 244.016 278.07 244.337 278.498C244.658 278.926 244.795 279.464 244.719 279.994C244.644 280.524 244.36 281.001 243.932 281.322Z" fill="#FF8383"/>
<path d="M263.089 248.95C261.056 250.474 258.637 247.245 260.67 245.722C261.098 245.401 261.636 245.263 262.166 245.339C262.696 245.415 263.173 245.698 263.494 246.126C263.815 246.555 263.953 247.093 263.877 247.622C263.801 248.152 263.518 248.63 263.089 248.95Z" fill="#FF8383"/>
<path d="M270.801 277.81C268.768 279.333 266.349 276.104 268.382 274.581C268.81 274.26 269.348 274.123 269.878 274.199C270.408 274.274 270.885 274.558 271.206 274.986C271.527 275.414 271.665 275.952 271.589 276.482C271.513 277.011 271.23 277.489 270.801 277.81Z" fill="#FF8383"/>
<path d="M56.6641 504.999C56.2359 505.32 55.6979 505.458 55.1683 505.382C54.6387 505.306 54.161 505.023 53.8402 504.595C53.5194 504.166 53.3818 503.628 53.4577 503.099C53.5336 502.569 53.8168 502.091 54.245 501.771C56.278 500.248 58.6971 503.476 56.6641 504.999Z" fill="#FF8383"/>
<path d="M198.76 313.487L207.894 304.122L204.704 289.895L200.603 272.335L193.212 260.601L179.031 260.49L163.279 265.383L154.62 281.114L156.225 298.209L167.185 314.831L185.593 317.47L198.595 313.89L198.76 313.487ZM207.267 304.032L198.341 313.427L185.459 316.917L167.26 314.308L156.375 297.911L154.754 280.92L163.279 265.383L178.912 260.58L192.779 260.646L199.961 272.35L203.972 289.79L207.267 304.032Z" fill="#FF8383"/>
<path d="M267.514 278.404C252.328 286.047 212.182 305.483 208.223 304.062L195.513 292.206L191.141 278.77L193.735 260.676L237.971 249.939L243.261 280.051L269.816 276.493L243.276 279.946L238.001 249.729L193.72 260.78L191.081 279.188L195.064 292.355L207.879 304.226C212.6 306.29 262.267 281.495 267.917 278.569L267.514 278.404Z" fill="#FF8383"/>
<path d="M84.0687 415.1L64.3498 403.734L51.9033 401.949L64.2452 403.719L83.9641 415.085C83.9641 415.085 83.9491 415.19 84.0687 415.1Z" fill="#FF8383"/>
<path d="M193.436 442.202L212.512 424.549L192.764 441.679L171.525 451.337L147.268 461.202L122.724 477.537L98.3346 483.114L72.9721 492.5L58.553 491.074L43.3849 493.382L21.7646 489.322L17.8139 470.716L26.9666 455.27L42.9301 445.924L72.3234 444.16L100.865 443.128L128.469 433.743L100.969 443.143L72.5326 444.19L43.0346 445.939L26.9366 455.479L17.8289 470.612L21.3763 489.053L43.2503 493.576L58.4034 491.372L72.9271 492.814L98.2896 483.427L123.471 478.285L147.193 461.725L171.659 451.889L193.002 442.247L193.436 442.202Z" fill="#FF8383"/>
<path d="M82.7512 538.947L59.6765 545.033L55.8637 550.037L56.3866 550.112L60.0649 545.302L82.3029 539.097L82.7512 538.947Z" fill="#FF8383"/>
<path d="M393.901 429.525L422.994 399.325L449.446 363.73L477.538 333.813L517.496 300.794L552.488 280.086L598.418 257.53L650.506 232.974L524.272 106.108L536.538 169.456L522.571 161.903L536.927 169.725L544.213 211.972L648.818 232.092L597.671 256.782L551.726 279.443L516.735 300.151L476.657 333.26L448.445 363.266L422.008 398.757L393.438 429.032L369.7 445.696L346.745 451.692L316.007 453.904L315.902 454.636L346.745 452.439L369.82 446.354L393.901 429.525ZM536.926 171.22L648.041 231.554L544.841 212.062L536.926 171.22ZM524.719 107.453L648.46 230.867L536.852 170.248L524.719 107.453Z" fill="#FF8383"/>
<path d="M598.328 257.409C598.763 254.376 564.534 91.064 563.073 84.1298L537.841 132.816L524.854 106.51L522.868 162.799L537.661 134.071L598.238 257.289L598.328 257.409ZM562.729 85.0412C574.059 140.036 594.661 239.057 597.388 255.033L537.557 133.309L562.729 85.0412ZM536.81 133.309L522.152 161.095L524.001 107.989L536.81 133.309Z" fill="#FF8383"/>
<path d="M167.211 322.094L146.636 289.15L163.283 257.166L146.501 289.344L167.27 322.423L167.211 322.094Z" fill="#FF8383"/>
<path d="M262.209 247.65L260.342 216L262.164 247.216L238.105 248.998L225.146 227.713L193.809 260.153L224.772 228.086L237.672 249.042L262.284 247.127L262.209 247.65Z" fill="#FF8383"/>
<path d="M477.913 268.645L449.676 228.839L522.211 162.917L431.982 203.352L389.275 143.112L394.422 220.384L269.906 275.865L393.391 220.876L397.099 275.419L448.735 228.704L476.987 268.406L477.913 268.645ZM448.899 228.3L397.787 274.344L394.093 220.443L431.399 203.696L448.899 228.3ZM520.059 163.782L449.408 227.733L431.563 203.292L520.059 163.782ZM389.05 143.934L430.921 203.307L394.138 219.382L389.05 143.934Z" fill="#FF8383"/>
<path d="M490.021 229.608L522.614 163.083L451.324 127.245L426.484 138.948L419.853 130.099C419.853 130.099 419.853 130.099 419.778 130.622L425.468 138.589C383.932 158.039 337.225 179.31 334.297 178.89L489.364 228.98L490.021 229.608ZM522.001 162.889L489.872 228.412L451.294 127.454L522.001 162.889ZM425.931 139.082L488.975 228.71L335.955 179.234C344.892 176.459 394.155 153.741 425.408 139.007L425.931 139.082ZM450.891 127.29L488.498 226.827L426.409 138.724C437.873 133.216 447.035 128.872 450.368 127.215L450.891 127.29Z" fill="#FF8383"/>
<path d="M598.327 257.409L522.225 162.814L502.806 149.356L498.193 141.329L488.885 138.5L478.444 130.919L463.845 130.748L451.07 126.781L437.202 130.451L420.152 130.248L408.358 138.057L389.722 142.964L371.426 155.178L357.363 160.207L356.538 165.96L318.719 193.735L318.629 194.362L335.747 207.491C295.764 228.764 262.956 246.157 262.134 246.679L269.741 275.523L340.631 271.702L348.369 217.733L460.605 306.727L478.032 268.557L489.587 229.652L597.998 257.469L598.327 257.409ZM521.687 162.843L597.162 256.602L489.378 228.875L477.883 268.109L461.114 305.413L349.101 217.838L351.665 199.952C394.323 177.141 440.912 152.224 463.885 139.4L544.421 212.001L503.732 150.342L521.687 162.843ZM502.268 149.385L542.539 210.237L464.408 139.474C467.995 137.534 470.91 135.817 473.122 134.533L488.048 139.128L502.268 149.385ZM348.144 218.554L340.407 272.524L269.905 275.866L262.552 247.486C266.932 245.232 298.469 228.512 336.15 208.402L348.144 218.554ZM497.774 141.269L501.537 147.039L490.513 139.054L497.774 141.269ZM477.906 130.949L486.42 137.08L474.049 133.278C475.424 132.688 476.766 132.025 478.07 131.293L477.906 130.949ZM465.653 130.793L476.322 130.828L472.6 132.963L465.653 130.793ZM463.247 130.448L472.346 133.247L463.99 137.92L455.581 130.31L463.247 130.448ZM454.625 130.28L463.408 138.264C440.24 150.954 393.995 175.706 351.89 198.383L355.953 170.039L391.139 147.971L440.145 130.766L454.625 130.28ZM350.948 199.743L348.518 216.687L336.718 207.416C341.366 205.521 346.224 202.908 351.067 200.4L350.948 199.743ZM451.907 126.901L460.901 129.685L454.835 129.563L451.907 126.901ZM450.338 126.677L453.729 129.831L442.223 129.676L450.338 126.677ZM355.31 170.801L351.262 199.041C346.165 201.832 341.083 204.52 336.061 207.536L319.152 194.437L355.31 170.801ZM439.16 129.45L443.374 128.347L440.236 129.391L439.16 129.45ZM436.515 130.032L438.397 130.302L393.396 146.373L406.924 137.638L436.515 130.032ZM419.749 130.083L434.019 130.315L409.405 136.713L419.749 130.083ZM388.796 142.725L405.28 138.683L391.02 147.313L373.803 153.491L388.796 142.725ZM371.74 155.223L388.165 149.359L356.461 169.471L356.941 166.124L371.74 155.223ZM356.224 166.662L355.759 169.904L327.224 188.016L356.224 166.662ZM357.886 160.282L369.169 156.029L357.211 164.989L357.886 160.282Z" fill="#FF8383"/>
<path d="M552.068 280.025L529.678 261.978L544.944 212.076L489.109 229.263L528.901 261.439L524.71 275.035L477.749 268.303L517.227 300.434L524.919 275.812L551.486 279.621L552.068 280.025ZM529.439 262.157L550.589 279.172L525.383 275.558L529.439 262.157ZM524.486 275.857L517.077 299.986L478.839 268.886L524.486 275.857ZM544.242 212.509L529.29 260.961L490.051 229.398L544.242 212.509Z" fill="#FF8383"/>
<path d="M477.433 333.797L461.069 306.473L421.485 336.877L316.09 343.116L263.242 425.096L232.692 408.121L224.536 465.019L124.248 477.328L76.5359 507.847L73.495 492.574L76.5955 508.176L41.1693 531.918L82.9017 537.9L76.5059 508.056L123.471 478.284L223.429 466.035L219.696 492.078L226.773 503.767L219.905 492.108L259.488 461.704L315.557 454.798L288.503 440.246L421.246 337.056L477.104 333.856C477.104 333.856 477.418 333.901 477.433 333.797ZM460.71 306.742L476.656 333.258L422.86 336.22L460.71 306.742ZM288.19 439.454L314.616 453.916L260.311 460.435L288.19 439.454ZM258.323 461.644L221.012 490.346L237.895 464.159L258.323 461.644ZM287.607 439.05L259.399 460.838L238.329 463.367L262.779 425.35L287.607 439.05ZM236.984 463.815L220.22 489.912L223.728 465.437L236.984 463.815ZM420.065 337.101L288.1 438.587L263.138 424.334L315.852 342.548L420.065 337.101ZM262.181 425.051L237.462 463.457L223.878 465.139L232.02 408.345L262.181 425.051ZM76.341 509.207L82.2141 538.229L41.0048 532.321L76.341 509.207Z" fill="#FF8383"/>
<path d="M255.098 488.615L361.843 289.793L398.011 275.765L367.008 268.652L341.544 272.793L318.916 281.718L293.387 294.497L252.45 312.004L217.105 322.522L189.414 327.305L168.78 322.319L153.994 307.07L148.19 289.479L151.995 271.131L164.613 257.569L192.878 242.088L224.459 228.042L260.327 216.105L294.88 206.649L318.824 194.497L334.552 179.353L357.722 160.686L388.737 143.143L419.75 130.083L450.653 126.721L478.056 130.65L497.91 141.075L521.868 162.335L544.318 211.986L562.671 83.9655L523.928 106.271L477.728 130.71L450.429 126.796L419.541 130.053L388.573 142.799L357.438 160.431L334.163 179.083L318.451 194.123L294.716 206.305L260.178 215.657L224.31 227.594L191.01 240.966L162.641 256.433L150.008 270.099L146.278 288.671L152.172 306.381L166.943 321.735L188.099 326.796L215.791 322.013L251.24 311.511L292.177 294.003L317.706 281.224L340.334 272.3L365.798 268.158L395.979 275.047L361.141 288.732L254.591 486.941L219.503 490.45L194.181 509.236L219.473 490.659L254.77 487.18L255.098 488.615ZM562.401 84.3539L544.273 210.806L522.167 162.485L498.089 141.314L478.744 131.069L524.152 106.943L562.401 84.3539Z" fill="#FF8383"/>
<path d="M262.366 353.774L227.781 337.394L229.73 354.326L261.858 353.594C261.858 353.594 262.261 353.759 262.366 353.774ZM228.095 338.187L260.588 353.519L229.97 354.146L228.095 338.187Z" fill="#FF8383"/>
<path d="M262.915 393.882L289.735 367.625L315.912 342.878L316.928 313.456L315.942 342.669L288.794 367.49L262.093 393.657L231.229 407.912L198.139 422.062L178.649 431.436L156.025 432.89L128.306 433.399L102.683 425.242L83.5611 414.922L70.3679 412.391L51.4257 401.563L51.4031 386.829L63.6616 375.778L82.2524 371.931L107.667 378.564L133.126 386.376L154.314 387.492L179.73 391.136L205.041 394.765L231.197 383.57L180.682 338.329L171.623 345.676L155.057 334.655L114.334 343.227C114.481 351.152 113.598 359.063 111.707 366.761L123.156 361.357L141.203 370.242L171.295 345.736L181.064 352.046L180.906 339.001L230.39 383.241L204.698 394.182L179.491 390.568L153.971 386.909L132.782 385.793L107.428 377.996L81.894 371.453L63.1987 375.284L50.9101 386.545L50.9924 401.607L70.1287 412.57L83.4119 414.474L102.534 424.794L128.261 432.966L155.965 432.561L178.709 431.018L198.199 421.643L231.304 407.389L262.258 393.254L262.915 393.882ZM180.114 338.567L180.347 351.09L171.773 345.377L180.114 338.567ZM170.592 345.421L140.859 369.659L122.828 360.67L112.066 365.745C113.662 358.276 114.432 350.655 114.364 343.018L154.728 334.715L170.592 345.421Z" fill="#FF8383"/>
<path d="M141.082 370.33L154.772 334.4L141.112 370.121C141.112 370.121 140.977 370.315 141.082 370.33Z" fill="#FF8383"/>
<path d="M255.54 380.549L262.367 353.775L271.508 331.709L296.051 316.868L316.704 313.531L318.131 298.364L317.347 281.494L198.461 313.338L215.432 322.282L199.253 313.772L317.093 281.777L317.862 298.006L316.36 312.948L296.141 316.24L271.717 330.992L251.753 331.012L228.275 336.932L203.934 336.965L181.116 337.537L154.863 333.773L129.699 334.329L114.08 342.764L108.529 356.165L111.438 366.402L130.189 371.118L141.038 369.898L159.788 376.109L177.63 376.745L202.627 380.329L230.898 382.674L255.316 379.876L255.54 380.549ZM270.566 332.321L261.784 353.371L255.092 379.951L231.436 382.644L243.555 351.718L270.566 332.321ZM242.493 352.42L230.778 382.763L221.715 367.801L242.493 352.42ZM221.297 367.741L229.837 382.628L203.15 380.404L221.297 367.741ZM251.245 331.579L269.924 331.588L243.735 350.463L251.245 331.579ZM250.408 331.459L242.703 350.956L221.178 366.336L216.34 358.384L229.537 354.192L204.112 337.952L227.677 337.38L250.408 331.459ZM215.683 358.504L220.595 366.68L202.269 379.85L184.164 368.395L215.683 358.504ZM183.267 368.694L200.7 379.625L178.108 376.387L182.893 369.067L183.267 368.694ZM204.112 337.952L228.551 353.624L216.027 357.592L204.112 337.952ZM203.066 337.802L215.399 358.25L183.417 368.395L203.066 337.802ZM181.742 369.649L177.241 376.476L168.322 373.916L181.742 369.649ZM167.096 374.274L174.686 376.43L161.716 376.065L167.096 374.274ZM182.43 368.574L167.231 373.333L155.742 370.085L141.018 349.935L150.254 348.056L182.43 368.574ZM202.529 337.831L182.834 367.991L151.255 347.773L202.529 337.831ZM156.339 371.131L165.976 373.9L159.818 375.899L156.339 371.131ZM155.188 370.966L158.668 375.734L140.844 369.764L129.995 370.984L111.558 366.312L108.783 356.628L124.385 353.528L122.454 361.043L155.188 370.966ZM130.401 335.39L154.728 334.715L180.667 338.433L199.615 338.054L150.314 347.638L130.401 335.39ZM140.091 350.442L154.636 369.606L123.171 360.505L125.102 352.99L140.091 350.442ZM130.595 336.272L149.208 347.906L140.42 349.635L130.595 336.272ZM129.34 336.092L139.598 350.158L125.087 353.095L129.34 336.092ZM128.607 335.987L124.4 352.676L109.232 355.732L128.607 335.987ZM127.561 335.837L109.188 354.551L114.065 342.868L127.561 335.837Z" fill="#FF8383"/>
<path d="M255.539 380.548L296.004 349.951L262.471 353.789L203.075 380.926L115.752 343.75L180.517 338.731L113.81 342.404L202.522 380.313L262.023 353.191L294.57 349.531L254.986 379.935L255.539 380.548Z" fill="#FF8383"/>
<path d="M262.914 393.882L255.434 380.534L229.7 354.536L254.911 380.459L262.286 393.792L262.809 393.867L262.914 393.882Z" fill="#FF8383"/>
<path d="M490.021 229.605C487.076 230.784 340.093 241.949 263.27 247.694C271.085 247.534 486.18 231.083 490.021 229.605Z" fill="#FF8383"/>
<path d="M198.945 422.389L101.465 408.414L67.9628 378.527L69.3379 377.87L130.397 403.169L82.0872 371.586L69.4425 377.885L63.6014 374.7L67.0965 377.869L51.7016 385.483L64.0957 402.524L101.121 407.832L128.739 432.605L198.676 421.283L198.945 422.389ZM102.122 409.042L196.255 422.537L128.828 433.472L102.122 409.042ZM82.0872 371.586L127.185 401.001L70.145 377.453L82.0872 371.586ZM67.2603 378.96L99.9109 408.085L64.0358 402.942L51.9251 386.902L67.2603 378.96ZM65.2145 376.105L68.5311 377.541L67.3803 378.124L65.2145 376.105Z" fill="#FF8383"/>
<path d="M133.408 385.882L132.886 385.807C131.002 386.285 100.253 381.129 76.6149 377.74L82.2062 372.244L76.2411 378.114C71.639 377.454 67.4554 376.854 63.69 376.315L51.6929 402.668L76.4949 378.577C96.1582 381.396 131.256 387.495 133.602 386.764L133.408 385.882ZM75.3598 377.561L52.5908 400.128L63.5708 375.657C64.8559 375.628 69.3384 376.377 75.3897 377.351L75.3598 377.561Z" fill="#FF8383"/>
<path d="M156.726 433.202L104.93 410.299L108.069 378.727L51.3125 385.961L104.198 409.447L102.682 424.494L156.442 432.201L156.726 433.202ZM104.915 410.404L154.096 432.185L103.474 424.928L104.915 410.404ZM107.322 378.726L104.183 410.299L52.5523 386.993L107.322 378.726Z" fill="#FF8383"/>
<path d="M179.47 431.659L153.881 386.788L130.233 402.825L83.5608 414.92C88.4163 416.79 96.4987 419.977 104.462 423.254L102.653 424.702L102.578 425.225L104.626 423.597C116.04 428.116 126.916 432.664 127.767 433.426C126.811 432.649 115.726 428.071 104.73 423.612L128.963 403.496L177.528 431.807C177.528 431.807 179.351 431.748 179.47 431.659ZM153.836 387.101L178.365 430.433L131.264 402.332L153.836 387.101ZM129.067 403.511L104.94 422.895L84.7413 414.876L129.067 403.511Z" fill="#FF8383"/>
<path d="M376.928 422.822L408.725 395.358C407.783 395.223 398.075 386.252 385.2 374.8L449.414 363.938L317.016 313.576C319.376 315.728 357.971 350.295 384.498 373.739L289.036 388.874L289.838 367.64C287.57 367.682 285.31 367.358 283.144 366.681C278.751 366.051 276.032 365.661 275.3 365.556C270.785 374.692 266.736 384.052 263.167 393.598L249.303 389.048L256.24 380.863C253.849 381.161 203.97 381.375 203.552 381.315C205.434 381.585 248.619 381.158 255.493 380.863L248.944 388.57L231.927 382.928L232.827 407.181L206.25 393.764L202.806 409.602L193.079 408.207L181.612 389.164L163.12 404.98L132.952 401.722L131.248 432.22L121.199 448.712C115.253 446.258 109.322 443.7 104.212 441.366L97.778 459.444L72.9809 443.293L45.5425 450.034L43.8863 445.207L42.4191 450.974L28.0424 454.464L25.3434 473.29L19.2781 470.179L25.1327 476.249C24.5956 480.273 23.8101 484.26 22.7808 488.187L33.8998 485.084L59.4942 490.461L73.6763 487.584L73.1515 491.245L55.6634 501.547L40.4005 514.196L40.2579 530.827L55.058 547.466L72.0052 543.171L82.4682 537.199L123.788 530.42L157.1 521.426L194.314 509.042L226.578 503.633L254.857 488.794L285.723 470.803L315.691 454.605L342.551 439.242L376.928 422.822ZM408.306 395.298L376.928 422.822L342.671 438.405L315.557 454.052L286.052 469.997L289.005 389.83L384.617 374.396C396.76 384.997 406.23 393.399 408.306 395.298ZM318.271 314.503L447.636 363.683L384.797 373.888C360.511 351.94 325.694 320.797 318.316 314.189L318.271 314.503ZM262.032 394.075L199.152 455.19L284.513 470.31L254.634 487.375L226.668 503.006L194.254 510.207L157.04 522.592L123.728 531.586L82.8262 538.424L72.3483 544.501L55.7298 548.736L40.9893 532.426L41.087 516.109L55.7968 503.594L73.3 493.188L73.2422 489.123L98.3038 484.07L118.284 451.176C120.062 451.431 121.705 452.627 123.408 453.405C146.654 463.248 146.953 462.651 147.207 462.367L135.113 443.982L156.037 434.279L171.091 452.875L171.614 452.95L156.262 434.204L135.008 443.967L129.035 434.998L160.832 407.534L190.686 410.746L198.376 423.377L200.877 411.887L231.122 409.391L247.3 390.362L262.032 394.075ZM288.318 390.158L285.365 470.325L200.108 455.221L262.853 394.3L288.318 390.158ZM288.792 367.49L287.99 388.724L262.959 392.821C266.379 383.419 270.334 374.221 274.807 365.272C277.29 365.189 279.769 365.544 282.128 366.321C284.288 367.006 286.529 367.399 288.792 367.49ZM247.151 388.42L231.751 406.493L230.941 383.107L247.151 388.42ZM204.576 394.271L230.167 407.12L201.326 409.496L204.576 394.271ZM134.546 442.726C138.502 448.63 143.325 455.94 146.371 460.753C143.652 460.363 131.685 455.232 119.121 449.801L134.546 442.726ZM200.474 410.228L198.243 420.582L191.375 408.924L200.474 410.228ZM117.178 450.697L97.8712 482.62L73.0338 487.599L72.8386 459.178L93.907 461.131L117.178 450.697ZM179.22 390.209L190.269 408.445L161.566 405.397L179.22 390.209ZM128.707 433.563L134.411 442.173L119.211 449.174L128.707 433.563ZM72.7636 459.701L73.0334 488.346L58.9709 491.133L51.1525 467.49L59.7641 458.05L72.7636 459.701ZM101.791 443.367L118.075 450.399L95.252 460.683L101.791 443.367ZM50.6441 468.058L58.1045 490.476L38.1907 480.469L50.6441 468.058ZM37.6973 480.932L55.8931 490.265L33.3019 485.532L37.6973 480.932ZM73.0551 444.265L93.9369 460.921L73.6007 459.073L73.0551 444.265ZM159.877 406.009L129.111 432.234L130.77 402.797L159.877 406.009ZM72.3975 444.384L72.3906 458.58L59.9587 457.438L72.3975 444.384ZM24.1161 477.384L32.0168 485.561L22.0187 488.291C22.5424 486.872 23.3663 482.613 24.1756 477.713L24.1161 477.384ZM36.9952 480.618L33.3472 484.471L34.6049 479.421L36.9952 480.618ZM30.8253 477.492L32.1367 484.725L24.236 476.547L24.5659 474.246L30.8253 477.492ZM34.0073 479.122L33.2876 484.142L32.155 477.896L34.0073 479.122ZM50.3307 467.266L37.7723 480.409L35.0832 479.063L40.9518 456.741L46.9136 457.596L50.3307 467.266ZM58.9424 457.826L51.0186 466.19L47.8703 456.879L58.9424 457.826ZM40.3992 456.128L34.6652 478.256L31.8866 476.79L27.9824 454.882L40.3992 456.128ZM72.0242 444.01L59.4508 457.258L47.7364 455.579L45.8713 449.974L72.0242 444.01ZM27.4883 456.839L30.9753 476.446L25.0146 473.35L27.4883 456.839ZM24.3121 473.783L24.0272 475.77L19.9349 471.554L24.3121 473.783ZM44.9296 450.587L46.8097 456.087L41.1617 455.277L41.7765 450.989L44.9296 450.587ZM41.4923 451.482L40.9075 455.561L30.3734 454.584L41.4923 451.482ZM43.5122 446.327L44.7058 449.914L42.479 450.556L43.5122 446.327Z" fill="#FF8383"/>
<path d="M194.388 510.759L199.66 455.369C197.403 456.966 168.868 476.572 140.407 496.402L127.752 493.094L134.652 500.06C109.061 517.74 84.9346 535.63 82.6321 538.288C84.83 535.615 108.867 518.353 134.637 500.165L156.92 522.68L134.726 500.285L139.839 496.641L193.745 510.774C193.745 510.774 194.373 510.864 194.388 510.759ZM198.958 455.802L193.955 510.056L141.035 495.745C167.791 477.379 194.563 458.908 198.958 455.802ZM128.424 493.617L139.331 496.461L134.577 499.836L128.424 493.617Z" fill="#FF8383"/>
<path d="M376.929 422.822L478.235 131.636L544.317 211.986L544.84 212.061L478.325 131.009L377.019 422.194L316.076 342.474L376.929 422.822Z" fill="#FF8383"/>
<path d="M376.929 422.822L362.021 290.032L477.104 333.857L477.554 268.915L543.838 213.092L550.993 280.084L544.945 212.076L478.048 268.452L477.523 333.169L361.917 289.27L366.38 268.562L318.563 298.319L361.618 289.868L376.929 422.822L212.572 424.13L199.08 422.196L172.213 451.755L127.663 492.975L101.545 519.545L40.804 515.854L82.9016 538.648L101.589 519.979L157.354 523.383L172.018 452.367L199.212 456.266L193.077 443.218L198.421 423.81L211.705 425.714L376.929 422.822ZM170.853 452.307L156.458 522.187L101.53 518.903L126.632 492.72L170.853 452.307ZM197.57 423.047L192.465 441.529L198.347 454.114L172.198 450.365L197.57 423.047ZM99.9459 519.53L81.7812 538.274L41.3716 516.363L99.9459 519.53ZM365.573 268.98L361.214 289.703L320.208 297.274L365.573 268.98Z" fill="#FF8383"/>
<path d="M369.73 446.232L449.431 363.832L409.279 395.222L409.802 395.297L445.888 366.953L370.044 445.53L343.868 438.255L340.841 272.478L260.417 215.476L180.302 259.07L191.713 241.278L179.6 260.25L260.641 216.149L340.722 272.567L342.642 438.613L369.446 445.978C369.446 445.978 369.715 446.336 369.73 446.232Z" fill="#FF8383"/>
<path d="M262.914 393.881L295.885 350.04L315.672 343.057L301.934 324.969L316.613 314.158L361.423 290.48L316.493 314.247L301.814 325.059L296.155 317.629L261.948 352.967L301.232 323.908L314.687 341.741L295.243 348.56L262.377 392.416L204.548 392.986L130.741 401.511L133.14 384.777L64.2154 402.435L63.9003 374.85L107.801 377.622L63.6015 374.701L64.0059 403.152L132.826 385.479L130.442 402.109L204.682 393.539L262.735 392.895L262.914 393.881ZM296.02 317.076L301.396 324.251L264.893 351.041L296.02 317.076Z" fill="#FF8383"/>
<path d="M393.901 429.524L400.513 414.674L422.994 399.324L409.697 395.283L401.17 414.555L351.214 449.556L376.929 422.821L346.775 451.482L343.285 438.599L346.909 452.035L394.14 429.345L393.901 429.524ZM399.347 415.361L393.213 429.105L349.989 449.914L399.347 415.361ZM408.935 395.387L421.216 399.069L401.036 413.255L408.935 395.387Z" fill="#FF8383"/>
<path d="M393.9 429.525L315.602 454.486C313.405 455.665 223.672 490.408 219.606 491.96L147.268 461.202L219.562 491.527C223.403 490.049 313.48 455.142 315.797 453.873L394.08 429.017L393.9 429.525Z" fill="#FF8383"/>
<path d="M294.973 351.191L296.081 316.659L318.22 298.484C318.22 298.484 318.22 298.484 318.295 297.961L296.156 316.136L295.063 349.816L272.18 330.738L228.619 336.768L183.948 350.539L204.396 337.459L180.436 351.956L227.363 337.336L270.91 331.41L294.256 350.981L294.973 351.191Z" fill="#FF8383"/>
<path d="M212.512 424.549L212.587 424.026L172.154 451.427L212.692 424.041L212.512 424.549Z" fill="#FF8383"/>
<path d="M199.646 455.474C201.47 453.921 218.293 428.9 226.682 415.799L262.585 393.941L227.549 414.963L231.751 408.734L289.735 367.625L295.915 349.831L288.793 367.49L231.244 407.807L226.204 415.41L211.84 424.025L198.989 454.846L199.646 455.474ZM225.621 416.501C216.514 430.139 204.85 447.467 200.633 453.054L212.542 424.339L225.621 416.501Z" fill="#FF8383"/>
<path d="M123.968 532.153L88.5972 504.88C101.775 501.919 114.778 498.224 127.544 493.812C114.487 497.871 101.215 501.207 87.7908 503.804L73.2869 492.545L87.3128 503.415C70.0368 507.77 51.3411 512.348 40.5063 514.958C48.9783 516.172 122.818 531.241 124.238 531.018L123.968 532.153ZM87.6859 504.536L122.654 530.897C114.6 529.743 68.3121 520.545 41.9556 515.272C47.7389 514.393 68.183 509.532 87.6859 504.536Z" fill="#FF8383"/>
<path d="M449.43 363.832C446.92 364.22 302.405 460.171 285.948 470.727L194.777 511.028C192.416 511.864 88.7001 537.664 83.1556 539.11L66.2512 517.047L72.2693 494.426L66.4308 516.539L55.8728 503.07L59.1849 544L66.1612 517.674L82.1547 538.647C86.5933 537.468 191.594 511.639 194.105 510.505L285.276 470.204C340.582 433.621 445.859 364.174 448.534 363.384L449.43 363.832ZM65.5191 516.942L58.9469 541.938L55.6179 504.848L65.5191 516.942Z" fill="#FF8383"/>
<path d="M342.552 439.241L373.574 346.447L477.913 268.646L397.607 275.6L374.097 345.775L289.864 408.418L263.332 393.941L260.281 430.863L177.826 492.267L147.268 461.201L111.428 477.411C107.348 476.826 102.432 476.869 96.9335 476.507L96.457 473.13L127.486 457.724L171.943 452.143L179.335 431.854L127.381 457.709L94.774 461.788L96.2032 472.667L89.6567 475.891L79.9471 469.162L102.778 443.188L51.4005 450.873L43.4087 445.564C42.5866 446.087 38.879 449.612 34.6481 453.808L27.4301 455.015L33.6618 453.987C26.68 460.992 18.4125 469.52 17.9042 470.088C19.996 470.388 46.399 472.358 72.279 474.254L58.2548 490.176L88.6111 474.994L96.4983 480.288L95.9925 475.625C100.699 476.3 105.197 476.198 109.007 476.424L97.5735 481.723L80.6386 491.143L72.4201 491.139L65.0939 499.802L39.5795 513.971L39.5045 514.494L45.3727 523.447L39.4219 530.706L58.1245 542.461L46.657 524.912L66.0045 501.641L81.5193 493.191L95.0724 493.212L81.5122 537.915L95.2069 493.018L102.559 493.111L122.832 531.883L175.749 492.61L193.537 510.744C195.913 509.804 252.512 489.524 254.245 488.599L259.07 431.116L288.474 409.18L342.552 439.241ZM372.677 347.492L342.029 439.166L289.475 409.643L372.677 347.492ZM258.681 432.341L253.976 488.987C250.329 490.599 197.647 509.625 193.716 510.983L176.824 493.298L258.681 432.341ZM398.01 275.764L476.807 268.914L374.875 344.819L398.01 275.764ZM263.601 394.299L289.296 408.657L260.61 430.056L263.601 394.299ZM147.791 462.023L176.84 492.446L124.386 531.466L104.441 493.381L127.229 493.766L123.546 477.761C120.212 477.93 116.87 477.844 113.549 477.502L147.791 462.023ZM123.142 478.343L127.379 492.72L104.113 492.694L99.4254 483.696L111.98 478.024C117.285 478.251 121.319 478.402 122.619 478.268L123.142 478.343ZM46.7463 525.779L58.0345 543.088L40.99 532.426L46.7463 525.779ZM178.663 432.078L171.525 451.335L129.354 456.604L178.663 432.078ZM98.4388 484.622L102.798 492.932L95.9691 492.914L98.4388 484.622ZM97.8112 484.532L95.2069 493.018L82.7298 492.937L97.8112 484.532ZM64.2853 503.209L46.2386 524.852L40.6243 516.362L64.2853 503.209ZM96.156 477.463L96.6621 481.379L90.0297 477.012C92.1965 476.789 94.2137 476.865 96.216 477.045L96.156 477.463ZM73.1362 493.59L80.0696 493.623L67.1853 500.849L73.1362 493.59ZM95.0578 462.042L125.274 458.261L96.3078 472.682L95.0578 462.042ZM95.7245 473.772L96.0518 476.701C94.2737 476.446 92.3911 476.176 90.5084 475.906L95.7245 473.772ZM73.0104 475.853C77.9262 476.558 83.0516 476.545 87.8033 476.906L59.8683 490.834L73.0104 475.853ZM78.2433 469.878L88.0128 476.189C83.62 475.559 78.8083 475.617 74.0567 475.256L78.2433 469.878ZM77.6158 469.788L72.652 475.375C48.2513 473.584 23.1334 471.585 18.4864 471.239L34.4832 454.959L51.2205 452.128L77.6158 469.788ZM100.207 443.993L78.0045 469.311L52.6556 451.053L100.207 443.993ZM43.1691 446.491L50.3841 451.261L35.3952 453.809C38.9982 450.269 41.9733 447.387 43.0645 446.476L43.1691 446.491Z" fill="#FF8383"/>
<path d="M58.6722 491.731L72.966 444.146L58.7768 491.746L58.6722 491.731Z" fill="#FF8383"/>
<path d="M409.144 395.417L408.621 395.342L342.552 439.241L219.322 492.452C217.409 493.885 166.203 518.994 157.937 523.039C164.547 512.672 199.271 458.088 199.556 456.101C199.256 458.193 168.944 505.084 157.294 523.801C159.82 522.562 217.902 494.17 219.935 492.646L342.552 439.241L408.83 395.372L409.144 395.417Z" fill="#FF8383"/>
<path d="M498.194 141.329L563.089 84.0254L500.645 139.119L524.301 106.645C524.301 106.645 524.301 106.645 524.376 106.122L498.014 141.09L498.194 141.329Z" fill="#FF8383"/>
<path d="M544.841 212.061C541.09 212.911 433.451 164.07 390.485 143.607L497.985 141.299L388.678 142.814C404.289 150.069 540.716 213.284 544.96 211.972L544.841 212.061Z" fill="#FF8383"/>
<path d="M598.328 257.409L544.736 212.047C543.525 213.047 529.72 237.86 514.854 264.87L478.287 268.274L367.64 168.939C409.083 155.347 475.41 133.473 478.683 131.487L358.095 161.06L366.698 168.804C348.45 174.727 335.358 178.935 335.015 179.099L366.754 268.189L408.621 395.343L437.037 346.046L447.577 364.102L461.024 306.788L438.681 345L398.086 275.242L438.666 345.105L410.25 394.402L366.336 268.129L334.76 179.383C337.346 178.473 349.885 174.399 366.459 168.983L477.48 268.692L513.718 265.347C496.414 296.704 477.987 330.675 476.641 333.364L513.987 264.959L598.104 257.484C598.104 257.484 598.208 257.499 598.328 257.409ZM544.631 212.032L597.283 256.512L515.288 264.078C529.945 237.786 542.597 215.049 544.631 212.032ZM460.127 307.833L448.923 362.16L438.636 344.567L460.127 307.833ZM358.26 160.656L473.438 132.336C457.312 138.35 402.522 156.434 366.579 168.147L358.26 160.656Z" fill="#FF8383"/>
<path d="M366.276 268.547L498.194 141.329C493.889 144.554 402.775 190.414 323.2 230.242L312.475 220.912L319.571 194.497C313.647 200.528 307.281 206.109 300.526 211.194L294.536 206.065L195.178 243.912L191.13 240.876L191.576 245.21L163.015 256.059L163.34 264.218L150.218 269.382L154.83 279.65L146.443 287.521L156.376 296.416L152.277 304.902L167.276 312.709L166.899 319.807L185.445 314.78L187.562 324.584L200.718 313.234L219.171 314.812C214.61 322.057 214.879 322.416 215.163 322.67C218.988 319.866 222.633 316.823 226.075 313.56L250.478 311.615L269.786 276.703L291.803 294.376L307.267 238.632C312.229 236.035 317.4 233.467 322.572 230.899L365.962 268.502L366.276 268.547ZM495.473 143.18L366.067 267.77L323.155 230.556C396.408 193.877 479.764 152.243 495.473 143.18ZM306.25 239.02L291.714 293.509L269.876 276.075L278.211 252.933L306.25 239.02ZM268.68 277.718L251.36 310.674L247.691 296.058L268.68 277.718ZM239.664 302.913L250.314 311.271L227.854 313.068L239.664 302.913ZM247.078 296.61L250.717 310.688L240.262 302.465L247.078 296.61ZM225.702 313.934C222.685 316.658 219.505 319.196 216.179 321.535C216.329 320.489 218.183 317.979 220.412 314.349L225.702 313.934ZM239.081 302.509L226.868 313.247L221.04 313.692C223.941 309.091 227.904 303.041 232.091 296.917L239.081 302.509ZM246.87 295.833L239.679 302.061L232.285 296.304C235.844 290.837 239.612 285.4 242.977 280.545L246.87 295.833ZM269.562 276.03L247.467 295.385L243.426 279.649L235.837 274.505C247.346 268.682 261.695 261.666 277.344 253.769L269.562 276.03ZM231.314 296.379L228.742 300.173C224.779 306.223 221.923 310.51 219.964 313.751L202.48 315.088L227.565 293.493L231.314 296.379ZM311.668 221.331L321.93 230.167L307.402 237.691L311.668 221.331ZM241.019 281.545L231.434 295.542L227.879 292.791L241.019 281.545ZM311.041 221.241L306.46 238.303C296.909 243.125 287.493 247.752 278.645 252.141L289.059 223.426L301.302 212.479L311.041 221.241ZM200.119 315.923L187.965 326.243L185.878 316.977L200.119 315.923ZM226.773 293.059L200.986 315.087L185.534 316.394L167.107 321.331L167.454 314.443L152.56 306.65L156.644 298.269L147.234 289.449L155.397 281.652L150.769 271.489L163.772 266.415L163.328 258.346L191.545 247.66L192.958 261.633L206.47 254.497L220.167 264.679L199.946 272.455L199.856 273.082L214.733 284.715L204.046 290.014L217.676 286.525L226.773 293.059ZM241.393 280.425L227.266 292.596L219.021 286.077L241.393 280.425ZM287.983 224.233L277.748 252.44L235.21 273.667L221.916 263.649L262.045 248.054C264.781 245.35 275.754 235.075 287.983 224.233ZM235.21 274.415L241.961 279.439L218.364 285.449L216.258 283.759L235.21 274.415ZM317.897 195.751L311.31 220.105L301.841 211.703C309.032 204.728 315.355 198.589 317.882 195.856L317.897 195.751ZM221.139 263.858L234.478 274.31C226.9 278.027 220.562 281.281 215.615 283.774L201.037 272.291L221.139 263.858ZM215.525 284.402L217.452 285.852L207.484 288.372L215.525 284.402ZM288.387 222.903C279.522 231.132 269.954 239.794 261.747 247.157L221.214 263.335L207.442 252.928L294.177 207.081L288.387 222.903ZM300.645 211.851L289.807 221.932L295.134 207.112L300.645 211.851ZM196.179 244.375L289.768 208.798L207.068 252.554L196.179 244.375ZM195.447 244.27L206.441 252.464L193.616 259.272L192.174 245.509L195.447 244.27ZM191.683 241.489L194.775 243.747L192.055 244.851L191.683 241.489Z" fill="#FF8383"/>
<path d="M292.117 294.422C290.189 295.213 192.612 325.843 188.144 327.231L167.499 314.878L188.248 327.246C192.388 325.918 290.398 295.243 292.326 294.452L292.117 294.422Z" fill="#FF8383"/>
<path d="M215.85 322.34L207.805 304.001L215.91 321.922L167.481 321.704L216.433 321.997L215.85 322.34Z" fill="#FF8383"/>
<path d="M251.314 311.735C258.863 305.986 442.923 134.473 450.847 126.856C448.873 128.708 258.878 305.881 251.419 311.75L251.344 312.273L251.314 311.735Z" fill="#FF8383"/>
<path d="M295.436 350.937C303.978 330.813 317.098 299.604 318.324 298.499L318.399 297.976C316.815 299.35 297.501 345.469 295.361 350.713C295.361 350.713 295.316 351.027 295.436 350.937Z" fill="#FF8383"/>
<path d="M317.556 281.522L262.225 247.544L317.661 281.537C317.661 281.537 317.541 281.626 317.556 281.522Z" fill="#FF8383"/>
<path d="M204.629 289.669L318.823 194.495L203.956 289.146L204.629 289.669Z" fill="#FF8383"/>
<path d="M163.31 265.174L191.279 241.325L190.756 241.25L162.772 265.204L163.31 265.174Z" fill="#FF8383"/>
<path d="M152.007 306.784L154.635 281.009L151.992 306.888L152.007 306.784Z" fill="#FF8383"/>
<path d="M55.1029 549.393L40.3408 516.109C40.3408 516.109 40.3408 516.108 40.2659 516.631L54.9383 549.797L55.1029 549.393Z" fill="#FF8383"/>
<path d="M122.946 361.326L108.947 356.223L154.742 334.609L108.887 356.642L123.364 361.386L122.946 361.326Z" fill="#FF8383"/>
<path d="M544.84 212.061L421.93 131.25L520.239 161.781L419.645 130.068L544.631 212.031C544.698 212.053 544.769 212.063 544.84 212.061Z" fill="#FF8383"/>
<path d="M522.212 162.919C520.568 161.723 402.14 144.958 388.648 143.024C433.831 149.502 519.806 161.827 521.913 162.769C521.997 162.845 522.1 162.897 522.212 162.919Z" fill="#FF8383"/>
<path d="M275.197 365.541C275.197 365.541 245.948 377.465 231.257 383.151C233.229 382.794 273.388 366.989 275.197 365.541Z" fill="#FF8383"/>
</svg>
