<svg width="14" height="8" viewBox="0 0 14 8" fill="none" xmlns="http://www.w3.org/2000/svg">
<path fill-rule="evenodd" clip-rule="evenodd" d="M7.70734 7.70698C7.51981 7.89445 7.26551 7.99976 7.00034 7.99976C6.73518 7.99976 6.48087 7.89445 6.29334 7.70698L0.636343 2.04998C0.540833 1.95773 0.464651 1.84739 0.412242 1.72538C0.359833 1.60338 0.332246 1.47216 0.331092 1.33938C0.329939 1.2066 0.355241 1.07492 0.405521 0.952023C0.455802 0.829127 0.530055 0.717474 0.623948 0.623581C0.717841 0.529689 0.829492 0.455436 0.952389 0.405155C1.07529 0.354874 1.20696 0.329572 1.33974 0.330726C1.47252 0.33188 1.60374 0.359466 1.72575 0.411875C1.84775 0.464284 1.9581 0.540466 2.05034 0.635976L7.00034 5.58598L11.9503 0.635976C12.1389 0.453818 12.3915 0.353024 12.6537 0.355302C12.9159 0.357581 13.1668 0.46275 13.3522 0.648158C13.5376 0.833566 13.6427 1.08438 13.645 1.34658C13.6473 1.60877 13.5465 1.86137 13.3643 2.04998L7.70734 7.70698Z" fill="#808080"/>
</svg>
