<svg width="14" height="14" viewBox="0 0 14 14" fill="none" xmlns="http://www.w3.org/2000/svg">
<path fill-rule="evenodd" clip-rule="evenodd" d="M9.25375 0.431401C9.47981 -0.1438 10.2928 -0.1438 10.5189 0.431401L10.8147 1.18497L11.5641 1.48156C12.1379 1.70832 12.1379 2.52134 11.5641 2.7481L10.8147 3.04538L10.5189 3.79826C10.2928 4.37346 9.47981 4.37346 9.25375 3.79826L8.95787 3.04469L8.20779 2.7481C7.63399 2.52134 7.63399 1.70832 8.20779 1.48156L8.95787 1.18428L9.25375 0.431401ZM9.88631 0.712087L10.1732 1.44146C10.2423 1.61706 10.3806 1.75602 10.5555 1.82585L11.2862 2.11483L10.5555 2.40451C10.4689 2.43887 10.3903 2.49066 10.3245 2.55666C10.2588 2.62267 10.2073 2.70147 10.1732 2.7882L9.88631 3.51757L9.59941 2.7882C9.56528 2.70141 9.51367 2.62256 9.44779 2.55655C9.3819 2.49055 9.30315 2.43879 9.21642 2.40451L8.4857 2.11483L9.21642 1.82585C9.30322 1.79148 9.38201 1.73962 9.4479 1.67349C9.51379 1.60736 9.56536 1.52838 9.59941 1.44146L9.88631 0.712087ZM0.736021 1.2541C0.969255 1.02075 1.24618 0.835644 1.55097 0.70935C1.85576 0.583056 2.18244 0.518052 2.51236 0.518052C2.84228 0.518052 3.16897 0.583056 3.47376 0.70935C3.77855 0.835644 4.05547 1.02075 4.28871 1.2541L12.7456 9.71135C13.2167 10.1825 13.4814 10.8215 13.4814 11.4878C13.4814 12.1541 13.2167 12.793 12.7456 13.2642C12.2745 13.7353 11.6355 14 10.9693 14C10.303 14 9.66403 13.7353 9.19292 13.2642L0.736021 4.80694C0.50268 4.57369 0.317579 4.29676 0.19129 3.99195C0.065001 3.68715 0 3.36045 0 3.03052C0 2.70059 0.065001 2.37389 0.19129 2.06908C0.317579 1.76428 0.50268 1.48735 0.736021 1.2541ZM3.55522 1.98693C3.27854 1.71034 2.90333 1.55499 2.51212 1.55505C2.12091 1.55512 1.74575 1.71059 1.46916 1.98728C1.19258 2.26396 1.03724 2.63919 1.0373 3.03042C1.03737 3.42165 1.19284 3.79682 1.46951 4.07342L2.56525 5.16989L4.65096 3.0841L3.55522 1.98693ZM9.92641 12.5307L3.29943 5.9041L5.38514 3.81831L12.0121 10.4456C12.1491 10.5825 12.2577 10.7451 12.3318 10.924C12.4059 11.103 12.4441 11.2948 12.4441 11.4885C12.4441 11.6821 12.4059 11.8739 12.3318 12.0529C12.2577 12.2318 12.1491 12.3944 12.0121 12.5314C11.8752 12.6683 11.7126 12.7769 11.5336 12.8511C11.3547 12.9252 11.1629 12.9633 10.9693 12.9633C10.7756 12.9633 10.5838 12.9252 10.4049 12.8511C10.2259 12.7769 10.0634 12.6676 9.92641 12.5307ZM13.1922 5.14846C12.9661 4.57257 12.1531 4.57257 11.9271 5.14846L11.8199 5.42016L11.5496 5.52732C10.9758 5.75408 10.9758 6.5671 11.5496 6.79387L11.8199 6.90103L11.9271 7.17342C12.1531 7.74862 12.9661 7.74862 13.1922 7.17342L13.2987 6.90103L13.5697 6.79387C14.1434 6.5671 14.1434 5.75408 13.5697 5.52732L13.2987 5.42016L13.1922 5.14846ZM12.5596 5.42846L12.4622 5.67734C12.393 5.85225 12.2548 5.9919 12.0792 6.06104L11.8275 6.16059L12.0792 6.26015C12.2548 6.32928 12.393 6.46893 12.4622 6.64384L12.5589 6.89273L12.6571 6.64384C12.7262 6.46893 12.8645 6.32997 13.0401 6.26015L13.2917 6.16059L13.0401 6.06104C12.9534 6.02675 12.8746 5.975 12.8087 5.90899C12.7429 5.84299 12.6912 5.76414 12.6571 5.67734L12.5596 5.42846ZM1.67207 9.41891C1.89813 8.84371 2.71112 8.84371 2.93718 9.41891L3.04433 9.6913L3.31395 9.79777C3.88774 10.0252 3.88774 10.8382 3.31395 11.065L3.04433 11.1722L2.93718 11.4439C2.71112 12.0198 1.89813 12.0198 1.67207 11.4439L1.56491 11.1722L1.29461 11.065C0.720812 10.8382 0.720812 10.0252 1.29461 9.79846L1.56491 9.6913L1.67207 9.41891ZM2.20715 9.94779L2.30393 9.69891L2.4021 9.94779C2.47123 10.1234 2.60949 10.2624 2.78509 10.3322L3.03673 10.4317L2.78509 10.5313C2.69836 10.5656 2.61961 10.6173 2.55372 10.6833C2.48784 10.7493 2.43623 10.8282 2.4021 10.915L2.30462 11.1639L2.20715 10.915C2.17302 10.8282 2.12141 10.7493 2.05552 10.6833C1.98964 10.6173 1.91088 10.5656 1.82416 10.5313L1.57252 10.4317L1.82416 10.3322C1.91095 10.2978 1.98975 10.246 2.05563 10.1798C2.12152 10.1137 2.1731 10.0347 2.20715 9.94779Z" fill="white"/>
</svg>
