<svg width="31" height="31" viewBox="0 0 31 31" fill="none" xmlns="http://www.w3.org/2000/svg">
<path fill-rule="evenodd" clip-rule="evenodd" d="M27.3921 2.27879C26.4544 2.44687 25.174 2.87147 23.3074 3.49512L8.95478 8.2786C7.13472 8.88455 5.81445 9.32464 4.85244 9.7006C3.85284 10.0898 3.41497 10.3486 3.23141 10.5233C2.90899 10.8329 2.65246 11.2044 2.47722 11.6156C2.30198 12.0268 2.21165 12.4691 2.21165 12.9161C2.21165 13.3631 2.30198 13.8055 2.47722 14.2167C2.65246 14.6279 2.90899 14.9994 3.23141 15.309C3.41497 15.4859 3.85284 15.7424 4.85244 16.1317C6.23686 16.6465 7.63267 17.1302 9.03882 17.5824C9.68458 17.7969 10.1313 17.9451 10.536 18.1596C11.5163 18.6789 12.3176 19.481 12.836 20.4618C13.0527 20.8665 13.2009 21.3132 13.4154 21.959L13.4441 22.0452C14.0501 23.8631 14.4902 25.1856 14.8661 26.1453C15.2554 27.1449 15.5141 27.5828 15.691 27.7664C16.0006 28.0885 16.372 28.3447 16.783 28.5197C17.1939 28.6948 17.6361 28.785 18.0828 28.785C18.5295 28.785 18.9716 28.6948 19.3826 28.5197C19.7936 28.3447 20.165 28.0885 20.4745 27.7664C20.6514 27.5828 20.908 27.1449 21.2972 26.1453C21.6731 25.1856 22.1154 23.8631 22.7192 22.0452L27.5049 7.69034C28.1263 5.82383 28.5509 4.54116 28.7168 3.60569C28.8849 2.65917 28.719 2.44466 28.635 2.36283C28.5531 2.27879 28.3386 2.11072 27.3921 2.27879ZM27.0051 0.104883C28.1329 -0.094152 29.3161 -0.0830942 30.2007 0.799296C31.0831 1.6839 31.0942 2.86705 30.8951 3.99492C30.6961 5.11173 30.2184 6.547 29.6346 8.30072L29.6014 8.38918L24.8179 22.7463L24.8068 22.7794C24.3552 24.1811 23.8722 25.5725 23.3583 26.9525C22.9713 27.9389 22.5843 28.766 22.069 29.3012C21.5531 29.8383 20.9339 30.2657 20.2487 30.5576C19.5636 30.8495 18.8264 31 18.0817 31C17.3369 31 16.5998 30.8495 15.9146 30.5576C15.2294 30.2657 14.6103 29.8383 14.0943 29.3012C13.5812 28.7638 13.192 27.9389 12.805 26.9525C12.4069 25.933 11.9492 24.5575 11.3565 22.7794L11.3454 22.7463C11.0911 21.9833 11.0004 21.7223 10.881 21.499C10.5701 20.9102 10.0893 20.4286 9.50103 20.1168C9.27987 19.9996 9.01671 19.9089 8.25374 19.6524L8.22056 19.6435C6.81921 19.1909 5.42785 18.708 4.04746 18.195C3.06113 17.808 2.23402 17.421 1.69884 16.9057C1.1617 16.3897 0.734341 15.7706 0.442411 15.0854C0.150481 14.4002 0 13.6631 0 12.9183C0 12.1736 0.150481 11.4364 0.442411 10.7513C0.734341 10.0661 1.1617 9.44693 1.69884 8.931C2.23623 8.41572 3.06113 8.0287 4.04746 7.64169C5.06696 7.24362 6.44252 6.78584 8.22056 6.19315L8.25374 6.1821L22.6086 1.39861L22.6993 1.36765C24.453 0.783815 25.8883 0.306131 27.0051 0.107096" fill="white"/>
</svg>
